<svg width="16" height="16" fill="none" xmlns="http://www.w3.org/2000/svg"><g clip-path="url(#a)"><path d="M12.667 4h-4a3.325 3.325 0 0 0-2.944 1.803 2.31 2.31 0 0 0-3.04.214A2.333 2.333 0 0 0 2 7.667c.002.346.082.688.234 1h-.9V2A.667.667 0 1 0 0 2v12a.667.667 0 1 0 1.333 0v-1.333h13.334V14A.667.667 0 1 0 16 14V7.333A3.337 3.337 0 0 0 12.667 4Zm-6 3.333a2 2 0 0 1 2-2h4a2 2 0 0 1 2 2v1.334h-8V7.333Zm-3.334.334a1 1 0 1 1 2 0 1 1 0 0 1-2 0Zm-2 3.666V10h13.334v1.333H1.333Z" fill="#fff"/></g><defs><clipPath id="a"><path fill="#fff" d="M0 0h16v16H0z"/></clipPath></defs></svg>