<svg width="20" height="20" fill="none" xmlns="http://www.w3.org/2000/svg"><path d="m18.38 4.358-6.144-2.927a4.355 4.355 0 0 0-4.403-.038L1.62 4.358a3.076 3.076 0 0 0 0 5.417l1.714.817v4.083a4.172 4.172 0 0 0 2.933 3.982c1.213.35 2.471.522 3.734.51a12.99 12.99 0 0 0 3.734-.506 4.172 4.172 0 0 0 2.933-3.982V10.59l1.666-.797v6.874a.833.833 0 1 0 1.667 0v-10c.006-.979-.767-1.883-1.62-2.309ZM15 14.68a2.5 2.5 0 0 1-1.75 2.386A11.33 11.33 0 0 1 10 17.5a11.33 11.33 0 0 1-3.25-.435A2.5 2.5 0 0 1 5 14.679v-3.293l2.764 1.317a4.393 4.393 0 0 0 2.254.615 4.166 4.166 0 0 0 2.148-.578L15 11.386v3.293Zm2.667-6.408-6.285 3a2.745 2.745 0 0 1-2.825-.038l-6.15-2.925a1.41 1.41 0 0 1-.03-2.465L8.622 2.86a2.75 2.75 0 0 1 2.825.037l6.146 2.928a1.44 1.44 0 0 1 .74 1.242 1.416 1.416 0 0 1-.666 1.204Z" fill="#2E2E2E"/></svg>