<svg width="140" height="50" fill="none" xmlns="http://www.w3.org/2000/svg"><path d="M44.063 37.57v-4.55h.618l2.04 3.492h-.257l2.074-3.492h.566v4.55h-.558v-3.848l.112.052-1.937 3.241h-.275l-1.954-3.276.129-.026v3.857h-.558Zm8.7.043c-.468 0-.88-.098-1.234-.295a2.201 2.201 0 0 1-.832-.823 2.4 2.4 0 0 1-.3-1.205c0-.45.095-.85.283-1.196a2.16 2.16 0 0 1 1.92-1.118c.423 0 .797.098 1.123.294.332.191.592.463.78.815.189.347.283.748.283 1.205a.57.57 0 0 1-.008.095v.096H50.86v-.46h3.592l-.24.182c0-.33-.072-.62-.215-.875a1.519 1.519 0 0 0-.565-.607 1.58 1.58 0 0 0-.832-.216 1.61 1.61 0 0 0-.831.216 1.5 1.5 0 0 0-.574.607c-.138.26-.206.557-.206.892v.096c0 .347.074.653.223.919.154.26.366.465.634.615.274.145.586.217.934.217.275 0 .53-.05.763-.148.24-.098.446-.248.617-.45l.343.398a1.92 1.92 0 0 1-.754.555c-.297.127-.626.19-.986.19Zm6.364-.338v-3.718H56.96l-.052 1.014c-.011.306-.031.607-.06.901a4.907 4.907 0 0 1-.128.815c-.058.243-.14.442-.249.598a.602.602 0 0 1-.42.26l-.608-.113a.526.526 0 0 0 .437-.19c.114-.139.203-.327.265-.564.063-.236.109-.505.138-.806.028-.306.051-.618.068-.936l.06-1.516h3.326v4.255h-.609Zm-3.874 1.395v-1.638h5.186v1.639h-.575V37.57h-4.037v1.1h-.574Zm6.372-1.1v-4.55h.609v3.614l3.008-3.614h.54v4.55h-.608v-3.623l-3 3.623h-.549Zm5.9 0v-4.55h.61v4.012h2.75V33.02h.61v4.55h-3.97Zm4.123 1.1v-1.152l.155.052h-.918v-.538h1.338v1.639h-.575Zm1.737-1.1v-4.55h.608v3.614l3.01-3.614h.539v4.55h-.608v-3.623l-3 3.623h-.55Zm5.902 0v-4.55h.609v2.01h2.837v-2.01h.609v4.55h-.609v-2.01h-2.837v2.01h-.609Zm7.669.043a2.43 2.43 0 0 1-1.2-.295 2.212 2.212 0 0 1-.822-.823 2.4 2.4 0 0 1-.3-1.205c0-.456.1-.858.3-1.205.2-.346.474-.618.823-.815a2.432 2.432 0 0 1 1.2-.294c.383 0 .728.075 1.037.225.308.15.551.376.728.676l-.454.312a1.438 1.438 0 0 0-.574-.511 1.703 1.703 0 0 0-.746-.165c-.32 0-.608.075-.866.226-.257.144-.46.35-.608.615a1.888 1.888 0 0 0-.223.936c0 .358.074.67.223.936.148.266.35.474.608.624.258.145.546.217.866.217.269 0 .517-.055.746-.165.228-.11.42-.277.574-.503l.454.312c-.177.295-.42.52-.728.676-.309.15-.654.226-1.038.226Zm6.244-.043-1.851-2.254.506-.303 2.065 2.557h-.72Zm-3.3 0v-4.55h.61v4.55h-.61Zm.42-2.028v-.529h1.45v.529h-1.45Zm1.587-.182-.567-.087 1.792-2.253h.66l-1.886 2.34Zm2.973 2.21v-4.55h.61v3.614l3.008-3.614h.54v4.55h-.609v-3.623l-3 3.623h-.548Zm5.902 0v-4.55h.609v3.613l3.008-3.614h.54v4.55h-.608v-3.623l-3.001 3.623h-.548Zm2.04-5.21c-.377 0-.683-.095-.917-.286-.228-.196-.348-.476-.36-.84h.437a.71.71 0 0 0 .24.546c.155.133.354.199.6.199s.446-.066.6-.2a.697.697 0 0 0 .249-.545h.437c-.006.364-.126.644-.36.84-.234.191-.543.286-.926.286Zm6.106 5.21v-4.55h.608v4.012h2.752V33.02h.608v4.55h-3.968Zm4.123 1.1v-1.152l.154.052h-.917v-.538h1.337v1.639h-.574Zm3.665-1.057c-.469 0-.881-.098-1.235-.295a2.201 2.201 0 0 1-.831-.823 2.4 2.4 0 0 1-.3-1.205c0-.45.094-.85.283-1.196a2.159 2.159 0 0 1 1.92-1.118c.422 0 .797.098 1.123.294.331.191.59.463.78.815.188.347.282.748.282 1.205 0 .029-.002.06-.009.095v.096h-3.916v-.46h3.591l-.24.182c0-.33-.071-.62-.215-.875a1.509 1.509 0 0 0-.565-.607 1.58 1.58 0 0 0-.831-.216c-.309 0-.586.072-.832.216a1.496 1.496 0 0 0-.574.607c-.137.26-.206.557-.206.892v.096c0 .347.074.653.223.919.154.26.366.465.634.615.275.145.586.217.935.217.274 0 .528-.05.763-.148.239-.098.445-.248.616-.45l.344.398c-.2.243-.452.428-.755.555-.297.127-.626.19-.985.19Zm3.369-.043v-4.55h.609v2.01h2.837v-2.01h.609v4.55h-.609v-2.01h-2.837v2.01h-.609Zm6.642 0v-4.178l.154.165h-1.86v-.537h4.02v.537h-1.86l.154-.165v4.178h-.608Zm5.516.043c-.388 0-.739-.09-1.054-.269a2.03 2.03 0 0 1-.754-.789c-.183-.346-.275-.768-.275-1.265 0-.497.092-.916.275-1.257a1.9 1.9 0 0 1 .745-.788 2.11 2.11 0 0 1 1.063-.27c.429 0 .812.1 1.149.295.342.191.611.463.805.815.195.347.292.748.292 1.205 0 .462-.097.867-.292 1.213a2.112 2.112 0 0 1-.805.815c-.337.197-.72.295-1.149.295Zm-2.323 1.638v-6.232h.583v1.37l-.06.91.086.918v3.034h-.609Zm2.28-2.184c.32 0 .606-.072.857-.217.252-.15.452-.358.601-.624.148-.271.222-.584.222-.936 0-.352-.074-.661-.222-.928a1.65 1.65 0 0 0-.601-.623 1.638 1.638 0 0 0-.857-.226c-.32 0-.608.075-.866.226-.251.15-.451.358-.599.623a1.929 1.929 0 0 0-.215.928c0 .352.072.665.215.936.148.266.348.474.599.624.258.145.546.217.866.217Z" fill="#CD5342"/><path d="M43.35 23.757V11.623h1.817l5.263 8.858h-.977l5.177-8.858h1.817l.034 12.134h-2.126l-.017-8.788h.446l-4.389 7.402h-.994l-4.457-7.402h.514v8.788H43.35Zm15.906 0V11.623h2.194v10.228h6.052V11.623h2.211v12.133H59.256Zm10.183 2.67v-3.224l.497.554h-2.434V21.85h3.994v4.577H69.44Zm6.109-2.67 5.4-12.134h2.195l5.417 12.134h-2.332L81.582 12.82h.892l-4.629 10.937h-2.297Zm2.486-2.808.6-1.768h6.48l.6 1.768h-7.68Z" fill="#6981D7"/><path d="m88.24 23.74.103-1.82c.08.012.155.023.223.035.069.011.132.017.188.017.355 0 .629-.11.823-.33.195-.219.338-.514.429-.883a6.76 6.76 0 0 0 .206-1.266c.046-.473.08-.947.103-1.421l.154-3.57h7.406v9.255h-2.143V15.75l.497.59h-4.354l.463-.607-.12 2.444a22.44 22.44 0 0 1-.206 2.288 7.71 7.71 0 0 1-.446 1.82c-.194.52-.469.925-.823 1.213-.342.29-.783.434-1.32.434a3.5 3.5 0 0 1-.566-.052 7.666 7.666 0 0 1-.617-.139Zm16.515-6.188c1.177 0 2.073.266 2.691.797.617.532.925 1.283.925 2.254 0 1.005-.342 1.79-1.028 2.357-.686.555-1.651.826-2.897.815l-4.286-.017V14.5h2.143v3.034l2.452.017Zm-.498 4.628c.629.012 1.109-.121 1.44-.399.331-.277.498-.681.498-1.213s-.167-.913-.498-1.144c-.32-.243-.8-.37-1.44-.381l-1.954-.018v3.138l1.954.017Zm5.398 1.578V14.5h2.246l3.686 6.57h-.891l3.874-6.57h2.006l.017 9.257h-1.937v-6.934l.343.225-3.429 5.738h-.926l-3.446-5.894.412-.104v6.968h-1.955Zm18.766-.002v-1.872l-.12-.398V18.21c0-.636-.189-1.127-.566-1.474-.377-.358-.948-.537-1.714-.537-.515 0-1.023.08-1.526.243a3.723 3.723 0 0 0-1.252.676l-.84-1.578a4.961 4.961 0 0 1 1.749-.85 7.688 7.688 0 0 1 2.126-.294c1.325 0 2.348.324 3.068.97.732.637 1.097 1.625 1.097 2.965v5.425h-2.022Zm-2.88.122c-.686 0-1.286-.116-1.801-.347-.514-.242-.913-.572-1.199-.988a2.602 2.602 0 0 1-.412-1.438c0-.52.12-.989.36-1.405.251-.416.658-.745 1.217-.988.561-.242 1.303-.364 2.229-.364h2.657v1.44h-2.503c-.732 0-1.222.12-1.474.363-.252.231-.377.52-.377.867 0 .393.154.705.462.936.309.23.738.346 1.286.346a2.7 2.7 0 0 0 1.406-.364c.423-.242.726-.6.909-1.074l.36 1.3c-.206.543-.578.965-1.115 1.265-.525.3-1.194.45-2.005.45Z" fill="#6981D7"/><path d="M19.018 44.07c10.503 0 19.018-8.61 19.018-19.23 0-10.62-8.515-19.23-19.018-19.23S0 14.22 0 24.84c0 10.62 8.515 19.23 19.018 19.23Z" fill="#fff"/><path d="M19.017 43.393c10.134 0 18.349-8.307 18.349-18.553S29.15 6.287 19.017 6.287C8.884 6.287.67 14.594.67 24.84s8.215 18.553 18.348 18.553Z" stroke="#CD5342" stroke-width="1.339"/><path d="M21.982 12.817c-.975.05-2.033.38-2.906.905-.849.51-1.872 1.643-2.057 2.174-.082.282-.061.255-.082.417-.023.174-.03.447-.03.447 0 .894.106 1.613.31 2.105.159.381.57.744.639.564a.046.046 0 0 1 .06-.027c.026.012.107-.078.248-.279.258-.369.576-.9.597-.999.012-.042.042-.128.072-.194.03-.066.078-.195.105-.285.027-.09.063-.198.078-.237.057-.141.093-.684.057-.855-.03-.144-.06-.189-.228-.357-.189-.192-.192-.195-.192-.36 0-.159.01-.18.18-.407.36-.477.963-.933 1.5-1.137.354-.135.473-.168 1.02-.282.215-.045 1.469-.045 1.784 0a8.212 8.212 0 0 1 1.184.276c.123.033.573.225.843.363.885.444 1.676 1.151 2.012 1.796.264.507.324.759.345 1.41.024.785-.012 1.004-.282 1.799-.366 1.076-1.112 2.084-2.123 2.86-.582.447-1.065.714-1.71.94-.56.191-2.615.758-3.208.88a40.99 40.99 0 0 0-2.504.642 5.44 5.44 0 0 1-.375.102c-.564.133-1.884.54-2.43.747-.35.135-.884.378-1.11.507a5.821 5.821 0 0 0-1.469 1.262c-.72.897-1.034 1.788-.995 2.807a4.78 4.78 0 0 0 .8 2.417c.252.384.378.534.714.867.567.555 1.158.933 1.815 1.151.396.135.677.22.92.276.108.027.264.066.345.09.789.231 1.994.369 2.924.336.897-.033 1.428-.138 2.354-.461.441-.154 1.104-.531 1.485-.846.41-.34.866-.87 1.094-1.278.306-.542.456-.98.54-1.571a2.618 2.618 0 0 0-.003-.954c-.114-.776-.396-1.352-.914-1.871a3.247 3.247 0 0 0-1.03-.669c-.245-.096-.746-.233-.722-.197.01.012.153.107.321.21.714.434 1.005.725 1.242 1.247.107.237.126.294.227.746.075.336.09 1.03.027 1.365-.11.63-.36 1.146-.755 1.577-.684.75-1.449 1.125-2.861 1.395-.147.03-.483.042-1.14.042-.971 0-1.122-.015-1.841-.168a9.258 9.258 0 0 1-.813-.213 8.186 8.186 0 0 1-.744-.261 9.2 9.2 0 0 0-.273-.138 3.749 3.749 0 0 1-.602-.38 5.061 5.061 0 0 1-.615-.624 4.22 4.22 0 0 1-.489-.861c-.165-.474-.17-.507-.17-1.089.002-.546.002-.56.101-.87.153-.47.36-.875.672-1.292.213-.29.447-.504.83-.758.852-.564 1.818-.885 3.224-1.071.264-.033.657-.105.87-.159.216-.054.486-.12.6-.147l.585-.138.72-.17a52.777 52.777 0 0 0 1.754-.448c.41-.108 1.421-.45 1.904-.644 1.347-.546 2.198-1.068 2.966-1.812.468-.455.774-.881 1.107-1.532a7.456 7.456 0 0 0 .713-2.04c.088-.41.078-1.591-.011-1.993-.315-1.422-1.143-2.564-2.499-3.458-1.022-.668-2.357-1.106-3.637-1.19a11.073 11.073 0 0 0-.57-.024c-.051 0-.276.012-.498.024Zm-4.1 3.526c.111.057.132.084.168.213.03.108-.009.342-.08.459-.111.18-.226.27-.34.27-.095 0-.128-.018-.197-.111-.075-.1-.084-.132-.084-.357 0-.282.045-.378.227-.468.127-.066.183-.066.306-.006Z" fill="#6981D7"/><path d="M15.626 17.824c-1.17.023-2.39.071-2.774.11-.141.015-.391.034-.557.043a18.43 18.43 0 0 0-2.216.294c-.54.116-.995.305-1.148.48-.184.21-.09.432.298.71.196.138.992.527 1.333.65 2.697.974 6.143 1.378 9.766 1.143a30.06 30.06 0 0 0 1.04-.087c.2-.023.525-.06.724-.085a25.182 25.182 0 0 0 3.527-.704c.323-.09 1.212-.406 1.302-.46.046-.028.274-.596.299-.746a5.14 5.14 0 0 1 .06-.277c.024-.085.042-.195.042-.246 0-.082-.012-.093-.123-.121a17.61 17.61 0 0 0-1.294-.237 21.864 21.864 0 0 1-.467-.074 7.884 7.884 0 0 0-.437-.056c-.142-.015-.377-.037-.527-.054a47.272 47.272 0 0 0-3.06-.212c-1.486-.068-2.06-.082-2.144-.05-.054.019-.087.064-.114.152-.124.387-.929 1.599-1.097 1.65-.043.011-.052.034-.04.076.052.178.088.661.055.74l-.03.085-.003-.119a.828.828 0 0 0-.034-.195l-.033-.079-.054.085a1.42 1.42 0 0 1-.184.195l-.13.113.079-.113a.905.905 0 0 0 .172-.551v-.192l-.133-.074a1.832 1.832 0 0 1-.582-.567c-.16-.283-.334-.8-.362-1.06-.015-.164-.03-.198-.075-.192a74.81 74.81 0 0 1-1.08.025Z" fill="#6981D7"/><path d="M9.107 19.695c0 .012.042.1.096.192.502.891 1.384 1.806 2.43 2.526 1.088.746 2.652 1.382 4.05 1.643.189.036.392.078.449.093.057.015.245.042.418.06.174.015.428.045.568.06.33.039 1.97.039 2.437 0 .424-.036.756-.084.941-.135.075-.024.188-.048.254-.06a4.14 4.14 0 0 0 .359-.087c.131-.039.454-.126.717-.198.99-.26 1.396-.408 2.087-.756.622-.315.941-.507 1.231-.737.27-.216.67-.621.9-.906.206-.255.502-.69.472-.69-.012 0-.224.07-.472.153-.786.264-1.68.486-2.657.657-.885.153-1.39.219-2.278.3-2.795.249-5.548.084-8.008-.48-1.6-.369-3.172-1.002-3.88-1.565-.063-.049-.114-.079-.114-.07Zm9.578 7.075a5.11 5.11 0 0 1-.55.102c-.236.032-.44.07-.45.082-.014.012-.003.127.021.253.107.57.225 1.431.268 1.975.022.264.046.49.054.502.005.015.024.406.04.873.043 1.24-.002 2.286-.134 3.15-.04.276-.04.306-.003.323.051.021 1.066.027 1.084.006a.795.795 0 0 0-.024-.22 16.796 16.796 0 0 1-.158-.9 4.053 4.053 0 0 0-.054-.325c-.018-.05-.075-.574-.142-1.273-.083-.905-.059-2.833.048-3.556.014-.097.038-.282.051-.411a8.47 8.47 0 0 1 .065-.42c.021-.1.032-.188.021-.194a.48.48 0 0 0-.137.032Zm2.385 8.714c-.231.084-.261.092-.84.184a8.613 8.613 0 0 1-1.574.116c-.846 0-1.772-.103-2.753-.3l-.264-.054-.215.068a6.025 6.025 0 0 0-1.506.728c-.246.17-.524.418-.524.47 0 .019 1.214.027 3.906.027 2.15 0 4.501.008 5.224.018l1.316.017-.105-.13c-.14-.175-.405-.388-.75-.593-.455-.278-1.355-.637-1.58-.632-.063 0-.213.038-.335.081Z" fill="#6981D7"/></svg>