<svg width="38" height="38" fill="none" xmlns="http://www.w3.org/2000/svg"><path d="M10.106 24.449h-5.33c-.503 0-.925-.175-1.266-.523-.341-.349-.511-.78-.51-1.294v-7.265c0-.515.17-.947.512-1.295a1.693 1.693 0 0 1 1.265-.522h5.33l5.862-5.994c.563-.575 1.207-.704 1.933-.387.726.317 1.088.885 1.087 1.704v20.253c0 .818-.363 1.386-1.089 1.704-.726.319-1.37.19-1.931-.387l-5.863-5.994Zm13.092-.311-.007-.008.072-.08.001-.003.001-.001.575-.648.01.012c.008-.01.014-.022.023-.031 2.392-2.695 2.406-7.066.045-9.784l-.005.006-.649-.73.008-.01a1.113 1.113 0 0 1-.199-.686c.01-.248.1-.484.253-.663l-.002-.002 1.154-1.3.008.01c.16-.143.36-.22.565-.22.205 0 .403.08.563.223l.008-.008.073.082.528.595.047.054v.001c3.655 4.177 3.64 10.924-.048 15.078-.008.01-.018.016-.027.025l.002.003-.649.731-.007-.008a.846.846 0 0 1-.61.223.864.864 0 0 1-.59-.284v.001l-.011-.012-.002-.002-.002-.002-1.06-1.195-.002-.001v-.001l-.077-.086.008-.008a1.107 1.107 0 0 1-.195-.636c0-.23.07-.454.198-.635Z" fill="#6981D7"/><path d="m27.227 28.35-.008-.007.084-.076.662-.6.012.01c.01-.009.016-.02.025-.029 5.562-5.049 5.579-13.253.053-18.322l-.006.006-.66-.6h-.002l-.001-.001-.082-.075.008-.008a.892.892 0 0 1-.228-.635.908.908 0 0 1 .29-.614l-.002-.002.63-.572.695-.63.008.008c.185-.132.414-.204.649-.203.235 0 .463.073.647.207l.009-.008.744.676-.001.001c7.013 6.42 6.996 16.822-.053 23.221-.01.01-.022.015-.032.024l.003.003-.745.676-.009-.008a1.117 1.117 0 0 1-.7.207 1.1 1.1 0 0 1-.677-.263h-.001l-.015-.012-1.22-1.108-.001-.001-.002-.002-.086-.078.009-.009a.893.893 0 0 1-.224-.588c0-.214.08-.42.227-.588Z" fill="#6981D7"/></svg>