<svg width="38" height="38" fill="none" xmlns="http://www.w3.org/2000/svg"><path d="M30 9.917v19.166c0 .509-.201.996-.56 1.356a1.9 1.9 0 0 1-1.35.561h-4.772c-.506 0-.992-.202-1.35-.561a1.92 1.92 0 0 1-.559-1.356V9.917c0-.509.201-.996.56-1.356A1.9 1.9 0 0 1 23.319 8h4.772c.506 0 .992.202 1.35.561.358.36.559.847.559 1.356ZM15.682 8h-4.773c-.506 0-.992.202-1.35.561A1.92 1.92 0 0 0 9 9.917v19.166c0 .509.201.996.56 1.356a1.9 1.9 0 0 0 1.35.561h4.772c.506 0 .992-.202 1.35-.561.358-.36.559-.847.559-1.356V9.917a1.92 1.92 0 0 0-.56-1.356A1.905 1.905 0 0 0 15.682 8Z" fill="#6981D7"/></svg>