<svg width="24" height="24" fill="none" xmlns="http://www.w3.org/2000/svg"><path d="M7.749 21.432c-.142.251-.319.412-.532.484a.831.831 0 0 1-.584.054.87.87 0 0 1-.505-.296.912.912 0 0 1-.213-.537c-.017-.215.036-.448.16-.699l10.15-17.843c.141-.251.31-.421.505-.511a.831.831 0 0 1 .584-.054.76.76 0 0 1 .478.296c.142.143.23.322.266.537.035.215-.018.448-.16.699l-10.15 17.87ZM5.57 13.854c-1.435 0-2.56-.51-3.374-1.531C1.399 11.3 1 9.877 1 8.05c0-1.219.177-2.258.531-3.118.372-.86.895-1.513 1.568-1.961.69-.466 1.515-.699 2.471-.699 1.417 0 2.533.51 3.348 1.532.815 1.021 1.222 2.436 1.222 4.246 0 1.218-.186 2.266-.558 3.144-.354.86-.877 1.523-1.568 1.988-.673.448-1.487.672-2.444.672Zm0-1.746c.531 0 .983-.144 1.355-.43.372-.305.656-.753.85-1.344.195-.61.293-1.37.293-2.284 0-1.344-.222-2.347-.665-3.01-.442-.68-1.054-1.021-1.833-1.021-.514 0-.965.152-1.355.457-.372.286-.664.734-.877 1.343-.195.591-.292 1.335-.292 2.23 0 1.362.221 2.383.664 3.064.46.663 1.08.995 1.86.995ZM18.43 21.7c-1.435 0-2.56-.51-3.374-1.532-.797-1.02-1.196-2.445-1.196-4.273 0-1.218.177-2.257.531-3.117.372-.86.895-1.514 1.568-1.961.69-.466 1.514-.7 2.471-.7 1.417 0 2.533.511 3.348 1.533.815 1.02 1.222 2.436 1.222 4.245 0 1.219-.186 2.267-.558 3.145-.354.86-.877 1.522-1.568 1.988-.673.448-1.487.672-2.444.672Zm0-1.747c.531 0 .983-.143 1.355-.43.372-.304.655-.752.85-1.343.195-.61.292-1.37.292-2.285 0-1.343-.22-2.346-.664-3.01-.443-.68-1.054-1.02-1.833-1.02-.514 0-.965.152-1.355.457-.372.286-.664.734-.877 1.343-.195.591-.292 1.335-.292 2.23 0 1.362.221 2.383.664 3.064.46.663 1.08.994 1.86.994Z" fill="#6981D7"/></svg>