<svg width="298" height="31" fill="none" xmlns="http://www.w3.org/2000/svg"><path d="M1.459 23V10.203h4.157c1.389 0 2.452.355 3.19 1.064.739.703 1.108 1.637 1.108 2.803 0 1.16-.37 2.1-1.107 2.822-.739.714-1.802 1.072-3.19 1.072H3.084V23H1.459Zm1.626-6.38h2.531c.99 0 1.685-.247 2.083-.74.399-.497.598-1.1.598-1.81 0-.715-.2-1.312-.598-1.793-.398-.486-1.093-.73-2.083-.73H3.085v5.072Zm8.033 3.7c0-.926.366-1.647 1.099-2.163.732-.515 1.667-.773 2.803-.773h2.075v-.65c0-.557-.144-1.006-.43-1.345-.288-.346-.78-.519-1.477-.519-.698 0-1.202.144-1.512.43a1.328 1.328 0 0 0-.457 1.011v.053h-1.565v-.061c0-.727.32-1.357.958-1.89.645-.539 1.515-.809 2.61-.809 1.096 0 1.943.261 2.54.783.604.521.906 1.303.906 2.346v4.158c0 .38.03.74.088 1.08.058.335.14.63.246.888V23h-1.52a2.883 2.883 0 0 1-.23-.571 3.692 3.692 0 0 1-.122-.703c-.211.38-.557.717-1.037 1.01-.48.287-1.099.431-1.855.431-.873 0-1.611-.243-2.215-.73-.603-.492-.905-1.198-.905-2.118Zm1.573-.089c0 .528.153.94.457 1.24.311.293.786.44 1.424.44.639 0 1.219-.22 1.74-.66.522-.445.783-.92.783-1.424V18.51h-1.899c-.826 0-1.45.155-1.872.466a1.48 1.48 0 0 0-.633 1.256Zm11.822 3.024c-1.325 0-2.303-.325-2.936-.976-.627-.65-.94-1.388-.94-2.215v-.052h1.52v.052c0 .493.176.932.528 1.319.357.387.97.58 1.837.58.714 0 1.271-.144 1.67-.43.398-.294.597-.698.597-1.214 0-.41-.14-.738-.422-.984-.275-.246-.715-.37-1.318-.37h-1.591v-1.23h1.336c.604 0 1.037-.12 1.3-.36.27-.246.405-.577.405-.993 0-.475-.167-.841-.501-1.099-.328-.258-.788-.386-1.38-.386-.75 0-1.318.178-1.705.536-.38.351-.571.802-.571 1.353v.053h-1.52v-.053c0-.96.33-1.731.992-2.311.663-.58 1.597-.87 2.804-.87 1.137 0 1.998.24 2.584.72.592.475.888 1.12.888 1.934 0 .474-.158.902-.475 1.283-.31.38-.73.624-1.257.73v.026c.627.094 1.12.316 1.477.668.357.351.536.805.536 1.362 0 .944-.366 1.667-1.098 2.171-.733.504-1.653.756-2.76.756Zm6.082 3.428V13.859h1.424l.07 1.204h.044c.234-.38.592-.706 1.072-.975.486-.27 1.049-.404 1.688-.404 1.154 0 2.077.433 2.768 1.3.691.862 1.037 1.963 1.037 3.305v.281c0 1.336-.346 2.438-1.037 3.305s-1.614 1.3-2.768 1.3c-.64 0-1.187-.114-1.644-.342a2.979 2.979 0 0 1-1.081-.923v4.773h-1.573Zm1.573-6.381c.182.41.477.776.888 1.098.41.323.908.484 1.494.484.873 0 1.515-.317 1.925-.95.41-.638.615-1.426.615-2.364v-.28c0-.938-.205-1.724-.615-2.356-.41-.633-1.052-.95-1.925-.95-.586 0-1.084.162-1.494.484-.41.316-.706.68-.888 1.09v3.744Zm8.024.017c0-.925.367-1.646 1.099-2.162.732-.515 1.667-.773 2.804-.773h2.074v-.65c0-.557-.144-1.006-.43-1.345-.288-.346-.78-.519-1.477-.519-.697 0-1.202.144-1.512.43a1.328 1.328 0 0 0-.457 1.011v.053h-1.565v-.061c0-.727.32-1.357.959-1.89.644-.539 1.514-.809 2.61-.809 1.096 0 1.942.261 2.54.783.603.521.905 1.303.905 2.346v4.158c0 .38.03.74.088 1.08.059.335.14.63.246.888V23h-1.52a2.883 2.883 0 0 1-.229-.571 3.692 3.692 0 0 1-.123-.703c-.21.38-.556.717-1.037 1.01-.48.287-1.099.431-1.855.431-.872 0-1.61-.243-2.214-.73-.604-.492-.906-1.198-.906-2.118Zm1.574-.088c0 .528.152.94.457 1.24.31.293.785.44 1.424.44.638 0 1.218-.22 1.74-.66.521-.445.782-.92.782-1.424V18.51H44.27c-.827 0-1.45.155-1.873.466a1.48 1.48 0 0 0-.632 1.256Zm9.615-1.784v.282c0 .914.225 1.681.677 2.302.45.621 1.122.932 2.012.932.885 0 1.553-.31 2.004-.932.451-.62.677-1.388.677-2.302v-.282c0-.908-.226-1.673-.677-2.294-.451-.62-1.122-.931-2.012-.931-.885 0-1.553.31-2.004.931-.452.621-.677 1.386-.677 2.294Zm3.067-4.517c1.207 0 2.16.43 2.857 1.292.703.855 1.054 1.93 1.054 3.225v.282c0 1.335-.39 2.425-1.169 3.269-.779.838-1.819 1.257-3.12 1.257-1.347 0-2.4-.422-3.155-1.266-.756-.844-1.134-2.256-1.134-4.236v-.264c0-2.133.346-3.782 1.037-4.948.698-1.172 2.001-1.901 3.912-2.189.984-.146 1.555-.275 1.713-.386.164-.117.261-.252.29-.404h1.38c-.058.603-.301 1.08-.73 1.432-.421.352-1.244.61-2.469.774-1.482.199-2.484.665-3.006 1.397-.515.727-.823 1.679-.923 2.857h.097a3.52 3.52 0 0 1 1.31-1.53c.58-.375 1.265-.562 2.056-.562Zm5.353 4.64v-.28c0-1.378.39-2.503 1.169-3.376.779-.873 1.822-1.31 3.129-1.31 1.3 0 2.34.437 3.12 1.31.779.873 1.169 1.998 1.169 3.375v.281c0 1.377-.39 2.502-1.17 3.375-.779.873-1.819 1.31-3.12 1.31-1.306 0-2.349-.437-3.128-1.31-.78-.873-1.17-1.998-1.17-3.375Zm1.608-.28v.28c0 .955.226 1.761.677 2.417.451.65 1.12.976 2.004.976.89 0 1.561-.325 2.013-.976.45-.656.676-1.462.676-2.417v-.28c0-.956-.225-1.759-.676-2.41-.452-.655-1.122-.984-2.013-.984-.885 0-1.553.329-2.004.985-.451.65-.677 1.453-.677 2.408Zm7.972-3.191v-1.24h7.33v1.24h-2.874V23h-1.573v-7.901H69.38Zm8.358 5.22c0-.925.367-1.646 1.099-2.162.732-.515 1.667-.773 2.804-.773h2.074v-.65c0-.557-.144-1.006-.43-1.345-.288-.346-.78-.519-1.477-.519-.698 0-1.202.144-1.512.43a1.328 1.328 0 0 0-.457 1.011v.053h-1.565v-.061c0-.727.32-1.357.958-1.89.645-.539 1.515-.809 2.61-.809 1.096 0 1.943.261 2.54.783.604.521.906 1.303.906 2.346v4.158c0 .38.03.74.088 1.08.059.335.14.63.246.888V23h-1.52a2.883 2.883 0 0 1-.229-.571 3.692 3.692 0 0 1-.123-.703c-.211.38-.557.717-1.037 1.01-.48.287-1.099.431-1.855.431-.873 0-1.611-.243-2.215-.73-.603-.492-.905-1.198-.905-2.118Zm1.573-.088c0 .528.153.94.457 1.24.311.293.786.44 1.424.44.639 0 1.22-.22 1.74-.66.522-.445.783-.92.783-1.424V18.51h-1.899c-.826 0-1.45.155-1.872.466a1.48 1.48 0 0 0-.632 1.256Zm8.482-6.372h1.573v3.859h4.122v-3.859h1.573V23H93.49v-4.052h-4.122V23h-1.573v-9.14Zm9.272 4.711v-.28c0-1.378.39-2.503 1.17-3.376.779-.873 1.822-1.31 3.128-1.31 1.301 0 2.341.437 3.12 1.31.78.873 1.169 1.998 1.169 3.375v.281c0 1.377-.389 2.502-1.169 3.375-.779.873-1.819 1.31-3.12 1.31-1.306 0-2.35-.437-3.129-1.31-.779-.873-1.169-1.998-1.169-3.375Zm1.609-.28v.28c0 .955.225 1.761.677 2.417.45.65 1.119.976 2.003.976.891 0 1.562-.325 2.013-.976.451-.656.677-1.462.677-2.417v-.28c0-.956-.226-1.759-.677-2.41-.451-.655-1.122-.984-2.013-.984-.884 0-1.552.329-2.003.985-.452.65-.677 1.453-.677 2.408ZM156.494 21V8.4h5.454c1.128 0 2.1.186 2.916.558.816.36 1.446.882 1.89 1.566.444.684.666 1.5.666 2.448 0 .936-.222 1.746-.666 2.43-.444.672-1.074 1.188-1.89 1.548-.816.36-1.788.54-2.916.54h-3.834l1.296-1.278V21h-2.916Zm8.01 0-3.15-4.572h3.114L167.654 21h-3.15Zm-5.094-4.464-1.296-1.368h3.672c.9 0 1.572-.192 2.016-.576.444-.396.666-.936.666-1.62 0-.696-.222-1.236-.666-1.62-.444-.384-1.116-.576-2.016-.576h-3.672l1.296-1.386v7.146Zm14.928 4.608c-1.104 0-2.076-.216-2.916-.648-.828-.432-1.47-1.02-1.926-1.764-.456-.756-.684-1.614-.684-2.574 0-.972.222-1.83.666-2.574a4.764 4.764 0 0 1 1.854-1.764c.78-.432 1.662-.648 2.646-.648.948 0 1.8.204 2.556.612a4.422 4.422 0 0 1 1.818 1.728c.444.744.666 1.638.666 2.682 0 .108-.006.234-.018.378a42.22 42.22 0 0 1-.036.378h-7.866v-1.638h6.39l-1.08.486c0-.504-.102-.942-.306-1.314a2.171 2.171 0 0 0-.846-.864c-.36-.216-.78-.324-1.26-.324s-.906.108-1.278.324c-.36.204-.642.498-.846.882-.204.372-.306.816-.306 1.332v.432c0 .528.114.996.342 1.404.24.396.57.702.99.918.432.204.936.306 1.512.306.516 0 .966-.078 1.35-.234.396-.156.756-.39 1.08-.702l1.494 1.62a4.437 4.437 0 0 1-1.674 1.17c-.672.264-1.446.396-2.322.396Zm10.672 0c-.912 0-1.734-.204-2.466-.612a4.556 4.556 0 0 1-1.746-1.728c-.42-.744-.63-1.626-.63-2.646 0-1.008.21-1.884.63-2.628a4.556 4.556 0 0 1 1.746-1.728c.732-.42 1.554-.63 2.466-.63.852 0 1.578.18 2.178.54.612.36 1.08.906 1.404 1.638.324.732.486 1.668.486 2.808 0 1.128-.168 2.064-.504 2.808-.336.732-.81 1.278-1.422 1.638-.612.36-1.326.54-2.142.54Zm.486-2.304c.456 0 .87-.108 1.242-.324.372-.216.666-.522.882-.918.228-.408.342-.888.342-1.44 0-.564-.114-1.044-.342-1.44a2.322 2.322 0 0 0-.882-.918 2.428 2.428 0 0 0-1.242-.324c-.468 0-.888.108-1.26.324a2.45 2.45 0 0 0-.9.918c-.216.396-.324.876-.324 1.44 0 .552.108 1.032.324 1.44.228.396.528.702.9.918.372.216.792.324 1.26.324Zm2.412 5.652v-5.454l.18-2.862-.054-2.88v-1.98h2.682v13.176h-2.808Zm9.494-3.348c-.804 0-1.524-.156-2.16-.468a3.335 3.335 0 0 1-1.458-1.422c-.348-.648-.522-1.47-.522-2.466v-5.472h2.808v5.058c0 .804.168 1.398.504 1.782.348.372.834.558 1.458.558.432 0 .816-.09 1.152-.27.336-.192.6-.48.792-.864.192-.396.288-.888.288-1.476v-4.788h2.808V21h-2.664v-2.664l.486.774a3.36 3.36 0 0 1-1.44 1.53 4.259 4.259 0 0 1-2.052.504Zm13.077 0c-1.104 0-2.076-.216-2.916-.648-.828-.432-1.47-1.02-1.926-1.764-.456-.756-.684-1.614-.684-2.574 0-.972.222-1.83.666-2.574a4.764 4.764 0 0 1 1.854-1.764c.78-.432 1.662-.648 2.646-.648.948 0 1.8.204 2.556.612a4.422 4.422 0 0 1 1.818 1.728c.444.744.666 1.638.666 2.682 0 .108-.006.234-.018.378a42.22 42.22 0 0 1-.036.378h-7.866v-1.638h6.39l-1.08.486c0-.504-.102-.942-.306-1.314a2.171 2.171 0 0 0-.846-.864c-.36-.216-.78-.324-1.26-.324s-.906.108-1.278.324c-.36.204-.642.498-.846.882-.204.372-.306.816-.306 1.332v.432c0 .528.114.996.342 1.404.24.396.57.702.99.918.432.204.936.306 1.512.306.516 0 .966-.078 1.35-.234.396-.156.756-.39 1.08-.702l1.494 1.62a4.437 4.437 0 0 1-1.674 1.17c-.672.264-1.446.396-2.322.396Zm9.807 0a9.834 9.834 0 0 1-2.394-.288c-.756-.204-1.356-.456-1.8-.756l.936-2.016c.444.276.966.504 1.566.684a6.782 6.782 0 0 0 1.8.252c.648 0 1.104-.078 1.368-.234.276-.156.414-.372.414-.648 0-.228-.108-.396-.324-.504-.204-.12-.48-.21-.828-.27-.348-.06-.732-.12-1.152-.18-.408-.06-.822-.138-1.242-.234a4.462 4.462 0 0 1-1.152-.468 2.429 2.429 0 0 1-.846-.828c-.204-.348-.306-.798-.306-1.35 0-.612.174-1.152.522-1.62.36-.468.876-.834 1.548-1.098.672-.276 1.476-.414 2.412-.414.66 0 1.332.072 2.016.216.684.144 1.254.354 1.71.63l-.936 1.998a4.553 4.553 0 0 0-1.422-.558 6.075 6.075 0 0 0-1.368-.162c-.624 0-1.08.084-1.368.252-.288.168-.432.384-.432.648 0 .24.102.42.306.54.216.12.498.216.846.288.348.072.726.138 1.134.198.42.048.84.126 1.26.234.42.108.798.264 1.134.468.348.192.63.462.846.81.216.336.324.78.324 1.332 0 .6-.18 1.134-.54 1.602-.36.456-.882.816-1.566 1.08-.672.264-1.494.396-2.466.396Zm10.265 0c-1.14 0-2.028-.288-2.664-.864-.636-.588-.954-1.458-.954-2.61V9.174h2.808v8.46c0 .408.108.726.324.954.216.216.51.324.882.324.444 0 .822-.12 1.134-.36l.756 1.98c-.288.204-.636.36-1.044.468-.396.096-.81.144-1.242.144Zm-5.112-7.452v-2.16h6.714v2.16h-6.714ZM239.64 21V9.1h4.709c1.258 0 2.363.255 3.315.765s1.689 1.213 2.21 2.108c.533.895.799 1.921.799 3.077s-.266 2.182-.799 3.077c-.521.895-1.258 1.598-2.21 2.108s-2.057.765-3.315.765h-4.709Zm.867-.782h3.774c1.122 0 2.097-.221 2.924-.663a4.791 4.791 0 0 0 1.921-1.819c.454-.782.68-1.677.68-2.686s-.226-1.898-.68-2.669a4.756 4.756 0 0 0-1.921-1.836c-.827-.442-1.802-.663-2.924-.663h-3.774v10.336Zm16.51.85c-.895 0-1.688-.193-2.38-.578a4.288 4.288 0 0 1-1.615-1.598c-.385-.68-.578-1.456-.578-2.329 0-.884.182-1.66.544-2.329a4.15 4.15 0 0 1 1.53-1.598c.646-.385 1.372-.578 2.176-.578.805 0 1.525.187 2.159.561a3.908 3.908 0 0 1 1.513 1.581c.374.669.561 1.445.561 2.329a.467.467 0 0 1-.017.119v.119h-7.837v-.663h7.378l-.34.323c.012-.691-.136-1.309-.442-1.853a3.238 3.238 0 0 0-1.207-1.292c-.51-.317-1.099-.476-1.768-.476-.657 0-1.246.159-1.768.476-.51.306-.912.737-1.207 1.292-.294.544-.442 1.167-.442 1.87v.153c0 .725.159 1.371.476 1.938.329.555.777.992 1.343 1.309.567.306 1.213.459 1.938.459a4.05 4.05 0 0 0 1.581-.306 3.11 3.11 0 0 0 1.258-.935l.493.561a3.695 3.695 0 0 1-1.462 1.088 4.908 4.908 0 0 1-1.887.357Zm8.784 0a6.517 6.517 0 0 1-2.074-.323c-.635-.215-1.128-.487-1.479-.816l.391-.68c.34.295.793.55 1.36.765a5.384 5.384 0 0 0 1.836.306c.929 0 1.598-.153 2.006-.459.408-.306.612-.708.612-1.207 0-.363-.108-.646-.323-.85-.204-.215-.482-.38-.833-.493a7.88 7.88 0 0 0-1.156-.272c-.419-.08-.839-.164-1.258-.255a5.138 5.138 0 0 1-1.156-.391 2.239 2.239 0 0 1-.85-.697c-.204-.306-.306-.708-.306-1.207 0-.453.125-.861.374-1.224s.623-.652 1.122-.867c.499-.227 1.122-.34 1.87-.34.555 0 1.111.08 1.666.238.567.159 1.026.368 1.377.629l-.391.68a3.61 3.61 0 0 0-1.258-.612 5.423 5.423 0 0 0-1.411-.187c-.861 0-1.496.159-1.904.476-.397.317-.595.714-.595 1.19 0 .374.102.674.306.901.215.215.499.385.85.51.351.113.737.21 1.156.289.419.068.839.147 1.258.238.419.09.805.221 1.156.391.351.159.629.385.833.68.215.283.323.669.323 1.156 0 .487-.136.912-.408 1.275-.261.363-.652.646-1.173.85-.521.204-1.162.306-1.921.306Zm5.874-.068v-8.874h.85V21h-.85Zm.425-11.033a.671.671 0 0 1-.493-.204.652.652 0 0 1-.204-.476c0-.193.068-.357.204-.493a.671.671 0 0 1 .493-.204c.204 0 .368.068.493.204a.617.617 0 0 1 .204.476.672.672 0 0 1-.204.493.638.638 0 0 1-.493.204Zm7.697 14.399c-.805 0-1.57-.125-2.295-.374-.726-.25-1.315-.595-1.768-1.037l.459-.646a4.72 4.72 0 0 0 1.581.952c.623.227 1.292.34 2.006.34 1.19 0 2.062-.278 2.618-.833.566-.555.85-1.428.85-2.618v-2.465l.17-1.326-.136-1.326v-2.907h.816v7.922c0 1.485-.363 2.573-1.088 3.264-.714.703-1.785 1.054-3.213 1.054Zm-.238-3.689c-.839 0-1.593-.181-2.261-.544a4.343 4.343 0 0 1-1.581-1.53c-.386-.657-.578-1.405-.578-2.244 0-.85.192-1.598.578-2.244a4.21 4.21 0 0 1 1.581-1.513c.668-.363 1.422-.544 2.261-.544.804 0 1.524.176 2.159.527.646.34 1.156.833 1.53 1.479.374.635.561 1.4.561 2.295 0 .884-.187 1.649-.561 2.295a3.883 3.883 0 0 1-1.53 1.496c-.635.351-1.355.527-2.159.527Zm.068-.765c.714 0 1.343-.147 1.887-.442a3.317 3.317 0 0 0 1.275-1.258c.317-.544.476-1.162.476-1.853 0-.703-.159-1.32-.476-1.853a3.199 3.199 0 0 0-1.275-1.241c-.544-.295-1.173-.442-1.887-.442-.692 0-1.315.147-1.87.442a3.314 3.314 0 0 0-1.292 1.241c-.306.533-.459 1.15-.459 1.853 0 .691.153 1.309.459 1.853a3.44 3.44 0 0 0 1.292 1.258c.555.295 1.178.442 1.87.442Zm12.404-7.854c.725 0 1.354.142 1.887.425.544.272.963.691 1.258 1.258.306.555.459 1.247.459 2.074V21h-.85v-5.117c0-.997-.255-1.757-.765-2.278-.499-.521-1.202-.782-2.108-.782-.692 0-1.292.142-1.802.425-.51.283-.901.68-1.173 1.19-.261.51-.391 1.122-.391 1.836V21h-.85v-8.874h.816v2.465l-.119-.272a3.321 3.321 0 0 1 1.343-1.649c.623-.408 1.388-.612 2.295-.612Z" fill="#898E9F"/><rect x="117" y="15.5" width="21.92" height="21.92" rx="3" transform="rotate(-45 117 15.5)" fill="#242424"/><circle cx="132.533" cy="15.5" r="8.877" fill="#FCFCFC"/><rect x="126.988" y="9.952" width="11.175" height="11.175" rx="3" fill="#242424"/><circle cx="132.521" cy="15.485" r="3.868" fill="#FCFCFC"/><rect x="130.871" y="15.5" width="2.507" height="2.507" rx="1" transform="rotate(-45 130.871 15.5)" fill="#242424"/></svg>