<svg width="16" height="16" fill="none" xmlns="http://www.w3.org/2000/svg"><g clip-path="url(#a)"><g clip-path="url(#b)" fill="#fff"><path d="M12.386 1.427 8.209.034a.667.667 0 0 0-.421 0L3.611 1.427a3.329 3.329 0 0 0-2.279 3.162V8c0 5.042 6.133 7.827 6.396 7.943a.668.668 0 0 0 .541 0c.263-.116 6.396-2.9 6.396-7.943V4.59a3.329 3.329 0 0 0-2.279-3.162ZM13.332 8c0 3.637-4.213 6.022-5.333 6.593C6.877 14.024 2.665 11.646 2.665 8V4.59a2 2 0 0 1 1.368-1.9L8 1.37l3.965 1.322a2 2 0 0 1 1.368 1.898V8Z"/><path d="m10.2 5.534-2.791 2.8-1.496-1.56a.667.667 0 1 0-.961.924l1.537 1.6a1.248 1.248 0 0 0 .897.4h.022a1.249 1.249 0 0 0 .89-.369l2.848-2.848a.67.67 0 1 0-.946-.947Z"/></g></g><defs><clipPath id="a"><path fill="#fff" d="M0 0h16v16H0z"/></clipPath><clipPath id="b"><path fill="#fff" d="M0 0h16v16H0z"/></clipPath></defs></svg>