<svg width="22" height="22" fill="none" xmlns="http://www.w3.org/2000/svg"><path d="M8.931 1.564a2.15 2.15 0 0 1 4.138 0l1.105 3.542c.292.932 1.127 1.564 2.069 1.564h3.578c2.107 0 2.983 2.806 1.278 4.095l-2.894 2.189c-.763.576-1.082 1.598-.79 2.531l1.105 3.541c.651 2.086-1.642 3.82-3.347 2.531l-2.895-2.188a2.106 2.106 0 0 0-2.557 0l-2.894 2.188c-1.705 1.29-3.998-.445-3.347-2.53l1.105-3.542c.292-.933-.027-1.955-.79-2.531L.901 10.765C-.804 9.476.072 6.67 2.179 6.67h3.578c.942 0 1.778-.632 2.069-1.564L8.93 1.564Z" fill="#63B3DF"/></svg>