<svg width="32" height="36" fill="none" xmlns="http://www.w3.org/2000/svg"><path d="M13.636 1.775c.679-2.367 4.05-2.367 4.728 0l1.677 5.853a2.46 2.46 0 0 0 2.962 1.702l5.93-1.48c2.399-.599 4.084 2.307 2.364 4.075l-4.253 4.373a2.439 2.439 0 0 0 0 3.404l4.253 4.372c1.72 1.77.035 4.675-2.364 4.076l-5.93-1.48a2.46 2.46 0 0 0-2.962 1.702l-1.677 5.853c-.679 2.367-4.05 2.367-4.728 0l-1.677-5.853a2.46 2.46 0 0 0-2.962-1.702l-5.93 1.48c-2.399.599-4.084-2.307-2.364-4.075l4.253-4.373a2.439 2.439 0 0 0 0-3.404L.703 11.926c-1.72-1.77-.035-4.675 2.364-4.076l5.93 1.48a2.46 2.46 0 0 0 2.962-1.702l1.677-5.853Z" fill="#fff"/></svg>