<svg width="24" height="24" fill="none" xmlns="http://www.w3.org/2000/svg"><g clip-path="url(#a)"><path d="M10.523 2.085c.424-1.447 2.53-1.447 2.954 0l1.049 3.576c.228.776 1.047 1.237 1.85 1.04l3.707-.904c1.5-.366 2.553 1.41 1.478 2.49l-2.658 2.673c-.577.58-.577 1.5 0 2.08l2.658 2.672c1.075 1.081.021 2.857-1.478 2.49l-3.706-.904c-.804-.196-1.623.265-1.851 1.04l-1.049 3.577c-.424 1.447-2.53 1.447-2.954 0l-1.049-3.576c-.227-.776-1.047-1.237-1.85-1.04l-3.707.904c-1.5.366-2.553-1.41-1.477-2.49l2.657-2.673c.577-.58.577-1.5 0-2.08L2.44 8.288c-1.076-1.081-.022-2.857 1.477-2.49l3.706.903c.804.197 1.624-.264 1.851-1.04l1.049-3.576Z" stroke="#fff" stroke-width="2"/></g><defs><clipPath id="a"><path fill="#fff" d="M0 0h24v24H0z"/></clipPath></defs></svg>