<svg width="22" height="22" fill="none" xmlns="http://www.w3.org/2000/svg"><path d="M9.647 1.788a1.4 1.4 0 0 1 2.706 0l1.105 3.541c.384 1.23 1.498 2.09 2.785 2.09h3.578c.672 0 1.164.436 1.352 1.039.19.604.039 1.282-.526 1.709l-2.895 2.189c-1.022.773-1.436 2.127-1.053 3.353l1.105 3.54c.224.717-.052 1.352-.526 1.71-.47.355-1.099.42-1.653 0l-2.894-2.189a2.856 2.856 0 0 0-3.462 0l-2.894 2.19c-.554.418-1.183.354-1.653 0a1.525 1.525 0 0 1-.526-1.71L5.3 15.709c.383-1.226-.031-2.58-1.053-3.353l-2.895-2.189C.788 9.74.638 9.062.827 8.457c.188-.602.68-1.037 1.352-1.037h3.578c1.287 0 2.4-.86 2.785-2.09l1.105-3.542Z" stroke="#DEE2E7" stroke-width="1.5"/></svg>