<svg width="32" height="32" fill="none" xmlns="http://www.w3.org/2000/svg"><g clip-path="url(#a)"><g clip-path="url(#b)"><path d="M29.41 6.973 19.578 2.29a6.968 6.968 0 0 0-7.044-.06L2.591 6.973a4.921 4.921 0 0 0 0 8.667l2.743 1.307v6.533a6.676 6.676 0 0 0 4.692 6.37c1.941.562 3.954.837 5.975.817 2.02.022 4.033-.25 5.974-.81a6.676 6.676 0 0 0 4.692-6.37v-6.543l2.667-1.275v10.998a1.333 1.333 0 1 0 2.667 0v-16c.009-1.566-1.228-3.012-2.591-3.694ZM24 23.487a4 4 0 0 1-2.8 3.817A18.12 18.12 0 0 1 16 28a18.12 18.12 0 0 1-5.2-.696A4 4 0 0 1 8 23.487v-5.27l4.423 2.107a7.03 7.03 0 0 0 3.607.985 6.667 6.667 0 0 0 3.436-.925l4.535-2.167v5.27Zm4.267-10.254-10.056 4.8a4.392 4.392 0 0 1-4.52-.06l-9.838-4.68a2.256 2.256 0 0 1-.05-3.944l9.994-4.773a4.4 4.4 0 0 1 4.52.06l9.832 4.684a2.303 2.303 0 0 1 1.185 1.987 2.267 2.267 0 0 1-1.067 1.926Z" fill="#2E2E2E"/></g></g><defs><clipPath id="a"><path fill="#fff" d="M0 0h32v32H0z"/></clipPath><clipPath id="b"><path fill="#fff" d="M0 0h32v32H0z"/></clipPath></defs></svg>