<svg width="38" height="38" fill="none" xmlns="http://www.w3.org/2000/svg"><path d="m29.649 21.543-3.376 3.45c-.325.334-.74.5-1.243.5-.504 0-.918-.166-1.244-.5-.326-.332-.489-.756-.489-1.27 0-.515.163-.94.489-1.272L27.161 19l-3.375-3.452c-.326-.333-.489-.757-.489-1.271 0-.515.163-.939.489-1.272.326-.333.74-.5 1.244-.5.503 0 .918.167 1.243.5l3.376 3.452 3.375-3.452c.326-.333.74-.5 1.244-.5.503 0 .918.167 1.243.5.326.333.489.757.489 1.272 0 .514-.163.938-.489 1.271L32.136 19l3.375 3.45c.326.334.489.758.489 1.272 0 .515-.163.939-.489 1.272-.325.333-.74.5-1.243.5-.504 0-.918-.167-1.244-.5l-3.375-3.451Zm-19.543 2.906h-5.33c-.503 0-.925-.175-1.266-.523-.341-.349-.511-.78-.51-1.294v-7.265c0-.515.17-.947.512-1.295a1.693 1.693 0 0 1 1.265-.522h5.33l5.862-5.994c.563-.575 1.207-.704 1.933-.387.726.317 1.088.885 1.087 1.704v20.253c0 .818-.363 1.386-1.089 1.704-.726.319-1.37.19-1.931-.387l-5.863-5.994Z" fill="#6981D7"/></svg>