<svg width="62" height="76" viewBox="0 0 62 76" fill="none" xmlns="http://www.w3.org/2000/svg">
<path d="M0.971438 23.4226C8.0306 -7.60908 54.0048 -7.57324 61.0281 23.4584C65.1489 41.6618 53.8256 57.0701 43.8998 66.6018C30 79.9496 30 78.1054 18.0639 66.6018C8.17394 57.0701 -3.1494 41.6259 0.971438 23.4226Z" fill="#63B3DF"/>
<path d="M31.0003 41.1242C37.1749 41.1242 42.1803 36.1187 42.1803 29.9442C42.1803 23.7696 37.1749 18.7642 31.0003 18.7642C24.8258 18.7642 19.8203 23.7696 19.8203 29.9442C19.8203 36.1187 24.8258 41.1242 31.0003 41.1242Z" fill="white"/>
<g clip-path="url(#clip0_2411_30064)">
<g filter="url(#filter0_d_2411_30064)">
<path d="M31.583 51.9033C43.5029 51.9033 53.166 42.2403 53.166 30.3203C53.166 18.4003 43.5029 8.7373 31.583 8.7373C19.663 8.7373 10 18.4003 10 30.3203C10 42.2403 19.663 51.9033 31.583 51.9033Z" fill="white"/>
<path fill-rule="evenodd" clip-rule="evenodd" d="M9.7168 30.3201C9.7168 18.244 19.5064 8.45435 31.5825 8.45435C43.6587 8.45435 53.4483 18.244 53.4483 30.3201C53.4483 42.3962 43.6587 52.1859 31.5825 52.1859C19.5064 52.1859 9.7168 42.3962 9.7168 30.3201ZM31.5825 10.5398C20.6582 10.5398 11.8023 19.3958 11.8023 30.3201C11.8023 41.2444 20.6582 50.1004 31.5825 50.1004C42.5069 50.1004 51.3628 41.2444 51.3628 30.3201C51.3628 19.3958 42.5069 10.5398 31.5825 10.5398Z" fill="#CD5342"/>
</g>
<path d="M34.9457 16.8258C33.8395 16.883 32.638 17.2532 31.6476 17.8423C30.6845 18.4144 29.5236 19.6862 29.3129 20.2824C29.2196 20.5982 29.2439 20.5681 29.2196 20.7502C29.1936 20.9447 29.1869 21.2517 29.1869 21.2517C29.1869 22.2547 29.3061 23.0624 29.5375 23.6145C29.7179 24.0419 30.1842 24.4491 30.2625 24.2472C30.2726 24.2202 30.3032 24.2067 30.3305 24.2169C30.3611 24.2304 30.453 24.1293 30.613 23.9039C30.9057 23.4899 31.2664 22.8942 31.2903 22.7831C31.3039 22.7359 31.3379 22.6384 31.372 22.5644C31.406 22.4903 31.4604 22.3456 31.4911 22.2446C31.5217 22.1436 31.5625 22.0224 31.5795 21.9787C31.6442 21.8205 31.6851 21.2113 31.6442 21.0195C31.6102 20.8579 31.5762 20.8075 31.3855 20.6189C31.1712 20.4035 31.1677 20.4001 31.1677 20.2151C31.1677 20.0367 31.178 20.0131 31.372 19.7573C31.7803 19.2222 32.4644 18.7106 33.0737 18.4817C33.4752 18.3303 33.6114 18.2932 34.2308 18.1653C34.476 18.1149 35.8986 18.1149 36.2558 18.1653C36.5655 18.2125 37.0182 18.3067 37.2939 18.3875C37.396 18.4178 37.5356 18.4582 37.6003 18.475C37.7398 18.512 38.2503 18.7274 38.5566 18.8822C39.5607 19.3804 40.459 20.1747 40.8402 20.8983C41.1399 21.4671 41.2077 21.7498 41.2318 22.4802C41.2588 23.362 41.218 23.6077 40.9116 24.4996C40.4964 25.7079 39.6492 26.8388 38.5022 27.7104C37.842 28.2119 37.2939 28.5115 36.5622 28.7639C35.9256 28.9793 33.5944 29.6154 32.9205 29.7534C32.8456 29.7669 32.6686 29.8107 32.5291 29.8477C32.3896 29.8814 31.8144 30.026 31.2529 30.1674C30.6912 30.3088 30.1638 30.4468 30.0786 30.4737C29.9936 30.5007 29.803 30.5545 29.6532 30.5881C29.0134 30.7362 27.5158 31.194 26.8964 31.4262C26.4983 31.5776 25.8924 31.8503 25.6372 31.995C25.0756 32.3114 24.3779 32.9038 23.9695 33.4119C23.1526 34.4184 22.7953 35.4179 22.8396 36.5624C22.877 37.4944 23.1935 38.4438 23.7483 39.2749C24.0342 39.7059 24.1771 39.874 24.5582 40.2476C25.2015 40.8705 25.872 41.2946 26.6174 41.5402C27.0666 41.6916 27.3865 41.7858 27.6622 41.8497C27.7847 41.88 27.9617 41.9238 28.0536 41.9509C28.9487 42.2098 30.3169 42.3646 31.372 42.3278C32.3896 42.2907 32.992 42.1728 34.0436 41.8095C34.5441 41.6377 35.2961 41.2137 35.7284 40.8602C36.1947 40.4799 36.7118 39.8841 36.9705 39.4266C37.3176 38.8174 37.4879 38.3258 37.5833 37.6629C37.6477 37.2187 37.6477 37.0436 37.5796 36.5925C37.4504 35.721 37.1307 35.0747 36.5419 34.4923C36.2388 34.1928 35.7931 33.9068 35.3743 33.7418C35.0952 33.6341 34.527 33.4794 34.5541 33.5198C34.5644 33.5332 34.7277 33.6408 34.9182 33.7554C35.7284 34.2433 36.0585 34.5698 36.3272 35.1553C36.4497 35.4213 36.4704 35.4854 36.5859 35.9934C36.671 36.3703 36.688 37.1479 36.6166 37.5248C36.4908 38.2316 36.2081 38.8107 35.7591 39.2952C34.983 40.1367 34.1151 40.5574 32.5121 40.8602C32.3453 40.8939 31.9642 40.9073 31.2188 40.9073C30.1161 40.9073 29.9459 40.8906 29.1291 40.7188C28.85 40.6616 28.6867 40.6179 28.2067 40.4799C27.9685 40.4127 27.4478 40.2309 27.3627 40.1872C27.3321 40.1704 27.1925 40.0996 27.053 40.0324C26.8215 39.9178 26.6003 39.7798 26.3689 39.605C26.2055 39.4804 25.8141 39.09 25.6712 38.9049C25.4772 38.6557 25.2015 38.1744 25.1165 37.9389C24.9292 37.4072 24.9225 37.3701 24.9225 36.7171C24.9258 36.1046 24.9258 36.0876 25.0382 35.741C25.2118 35.2127 25.4466 34.7583 25.8006 34.2904C26.0422 33.9639 26.3076 33.725 26.7433 33.439C27.7098 32.8062 28.8058 32.446 30.402 32.2373C30.7015 32.2003 31.1473 32.1196 31.3889 32.059C31.634 31.9983 31.9403 31.9243 32.0696 31.8941C32.2024 31.8637 32.4985 31.793 32.7333 31.7392C32.9682 31.6854 33.3357 31.5979 33.5501 31.5474C34.0607 31.4296 34.755 31.2546 35.0988 31.1637C35.2484 31.1233 35.4493 31.0695 35.5412 31.0459C36.0075 30.9248 37.1544 30.541 37.7025 30.3222C39.2306 29.7097 40.197 29.124 41.0682 28.2894C41.5993 27.7778 41.9464 27.2998 42.3242 26.5695C42.7292 25.7819 42.9538 25.1458 43.1341 24.2808C43.2329 23.8198 43.2225 22.4937 43.1207 22.0426C42.7632 20.4473 41.8239 19.165 40.2854 18.162C39.1248 17.4115 37.6104 16.9201 36.1573 16.8258C35.8576 16.809 35.5685 16.7955 35.5104 16.7989C35.4526 16.7989 35.1973 16.8123 34.9457 16.8258ZM30.2931 20.7839C30.419 20.8478 30.4428 20.8781 30.4837 21.0228C30.5177 21.144 30.4734 21.4065 30.3918 21.5378C30.2659 21.7397 30.1365 21.8407 30.0072 21.8407C29.8983 21.8407 29.8608 21.8205 29.7825 21.7162C29.6975 21.6051 29.6872 21.5681 29.6872 21.3156C29.6872 20.9993 29.7383 20.8915 29.9459 20.7906C30.0889 20.7166 30.1535 20.7166 30.2931 20.7839Z" fill="#6981D7"/>
<path d="M27.7344 22.446C26.407 22.4713 25.0215 22.5252 24.587 22.5696C24.4263 22.5854 24.1423 22.6076 23.9542 22.6171C23.2767 22.6552 22.0623 22.8138 21.4397 22.947C20.8272 23.077 20.3107 23.2894 20.1363 23.4861C19.9276 23.7207 20.0335 23.9712 20.4749 24.282C20.6972 24.4373 21.6005 24.875 21.987 25.0113C25.0489 26.1053 28.9592 26.5588 33.0713 26.2956C33.4955 26.2671 34.0258 26.2226 34.2516 26.1973C34.4774 26.1719 34.8467 26.1307 35.0726 26.1021C36.2459 25.969 37.9154 25.6392 39.0751 25.3126C39.4414 25.2111 40.4507 24.8559 40.5531 24.7957C40.6045 24.764 40.8644 24.1266 40.8917 23.9585C40.9055 23.8824 40.9364 23.7429 40.9602 23.6478C40.9875 23.5526 41.0082 23.4289 41.0082 23.3719C41.0082 23.28 40.9945 23.2672 40.8681 23.2356C40.6215 23.1721 40.0844 23.077 39.4004 22.9692C39.2222 22.9438 38.983 22.9057 38.87 22.8867C38.7571 22.8676 38.5346 22.8392 38.3739 22.8233C38.213 22.8074 37.9464 22.7821 37.7753 22.7631C36.7354 22.6552 35.8185 22.5918 34.3028 22.5252C32.6163 22.4491 31.9662 22.4332 31.8705 22.4682C31.8089 22.4904 31.7713 22.5411 31.7405 22.6393C31.6003 23.0738 30.6868 24.4342 30.4953 24.4913C30.4473 24.504 30.4371 24.5293 30.4507 24.5768C30.5089 24.7767 30.55 25.3189 30.5123 25.4077L30.4781 25.5028L30.4747 25.3697C30.4713 25.2967 30.4542 25.1984 30.4371 25.1508L30.3995 25.062L30.3378 25.1572C30.3036 25.2079 30.2078 25.3062 30.1292 25.376L29.9821 25.5028L30.071 25.376C30.2078 25.1826 30.266 24.9923 30.266 24.7576V24.542L30.1155 24.4596C29.8897 24.3391 29.5784 24.0346 29.4552 23.8222C29.2739 23.5051 29.0755 22.9248 29.0446 22.633C29.0276 22.4491 29.0105 22.411 28.9592 22.4174C28.9352 22.4205 28.3844 22.4332 27.7344 22.446Z" fill="#6981D7"/>
<path d="M20.3359 24.5465C20.3359 24.5599 20.3835 24.6576 20.4446 24.7619C21.0144 25.7616 22.0151 26.7882 23.2025 27.5961C24.4373 28.4342 26.2114 29.1478 27.799 29.4407C28.0127 29.481 28.2434 29.5282 28.3078 29.5449C28.3723 29.5618 28.586 29.5921 28.7828 29.6123C28.9795 29.6291 29.2679 29.6628 29.4273 29.6796C29.8004 29.7234 31.6628 29.7234 32.192 29.6796C32.6737 29.6392 33.0503 29.5854 33.2606 29.5282C33.3454 29.5012 33.4743 29.4743 33.5489 29.4609C33.6236 29.4508 33.8068 29.4036 33.956 29.3632C34.1053 29.3195 34.4716 29.2218 34.7701 29.141C35.893 28.8482 36.3545 28.6833 37.1379 28.2928C37.8438 27.9394 38.2067 27.724 38.5356 27.4648C38.8408 27.2224 39.2955 26.768 39.5567 26.4483C39.7907 26.1621 40.1267 25.674 40.0926 25.674C40.0792 25.674 39.8382 25.7515 39.5567 25.8458C38.6645 26.142 37.6501 26.391 36.5408 26.5829C35.5368 26.7546 34.9635 26.8287 33.956 26.9195C30.7842 27.1988 27.66 27.0137 24.868 26.3809C23.0532 25.9669 21.2689 25.2567 20.4649 24.6239C20.3936 24.57 20.3359 24.5364 20.3359 24.5465Z" fill="#6981D7"/>
<path d="M31.2049 32.485C31.1288 32.5114 30.8487 32.5608 30.5806 32.6005C30.3127 32.6367 30.0813 32.6796 30.0692 32.6928C30.0539 32.706 30.0661 32.8347 30.0934 32.9765C30.2153 33.6161 30.3493 34.5828 30.398 35.193C30.4223 35.4896 30.4497 35.7438 30.4589 35.7568C30.465 35.7732 30.4863 36.2119 30.5045 36.7362C30.5533 38.1282 30.5016 39.3025 30.3523 40.2722C30.3067 40.582 30.3067 40.6151 30.3493 40.6349C30.4071 40.658 31.5581 40.6647 31.5794 40.6415C31.5885 40.6315 31.5764 40.5193 31.552 40.3941C31.4576 39.9193 31.418 39.6916 31.3723 39.3849C31.348 39.2101 31.3206 39.0451 31.3115 39.0189C31.2902 38.9627 31.2262 38.3756 31.1501 37.5907C31.0557 36.5748 31.0831 34.411 31.2049 33.5997C31.2201 33.4909 31.2475 33.2833 31.2627 33.1379C31.281 32.9929 31.3145 32.7819 31.3358 32.6664C31.3602 32.5543 31.3723 32.4553 31.3602 32.4487C31.351 32.4454 31.281 32.4587 31.2049 32.485Z" fill="#6981D7"/>
<path d="M33.9104 42.2667C33.6484 42.3607 33.6144 42.3698 32.9577 42.4725C32.3145 42.5725 31.8892 42.6059 31.1711 42.6029C30.2116 42.6029 29.1601 42.4877 28.0474 42.2667L27.7479 42.2062L27.503 42.2819C26.9142 42.4665 26.2575 42.7814 25.7947 43.0993C25.5157 43.29 25.1992 43.5687 25.1992 43.6262C25.1992 43.6474 26.5774 43.6565 29.6331 43.6565C32.0729 43.6565 34.7407 43.6654 35.5609 43.6775L37.0546 43.6957L36.9355 43.5505C36.7756 43.3538 36.4761 43.1145 36.0849 42.8844C35.5676 42.5725 34.5468 42.1697 34.2915 42.1759C34.2201 42.1759 34.05 42.2184 33.9104 42.2667Z" fill="#6981D7"/>
</g>
<defs>
<filter id="filter0_d_2411_30064" x="1.37487" y="0.112416" width="60.4163" height="60.4153" filterUnits="userSpaceOnUse" color-interpolation-filters="sRGB">
<feFlood flood-opacity="0" result="BackgroundImageFix"/>
<feColorMatrix in="SourceAlpha" type="matrix" values="0 0 0 0 0 0 0 0 0 0 0 0 0 0 0 0 0 0 127 0" result="hardAlpha"/>
<feOffset/>
<feGaussianBlur stdDeviation="4.17096"/>
<feComposite in2="hardAlpha" operator="out"/>
<feColorMatrix type="matrix" values="0 0 0 0 0 0 0 0 0 0 0 0 0 0 0 0 0 0 0.15 0"/>
<feBlend mode="normal" in2="BackgroundImageFix" result="effect1_dropShadow_2411_30064"/>
<feBlend mode="normal" in="SourceGraphic" in2="effect1_dropShadow_2411_30064" result="shape"/>
</filter>
<clipPath id="clip0_2411_30064">
<rect width="43" height="44" fill="white" transform="translate(10 8)"/>
</clipPath>
</defs>
</svg>
