<svg width="24" height="24" fill="none" xmlns="http://www.w3.org/2000/svg"><defs><clipPath id="b"><path fill="#fff" fill-opacity="0" d="M0 0h24v24H0z"/></clipPath><clipPath id="a"><path fill="#fff" fill-opacity="0" d="M0 0h24v24H0z"/></clipPath></defs><path d="M0 0h24v24H0z"/><g clip-path="url(#a)"><path d="M0 0h24v24H0z"/><g clip-path="url(#b)" fill="#FFF"><path d="M12 0a11.998 11.998 0 0 0-8.484 20.485 12.003 12.003 0 0 0 13.078 2.601 11.988 11.988 0 0 0 5.383-4.42A11.987 11.987 0 0 0 24 12 12.014 12.014 0 0 0 12 0Zm0 22a10 10 0 1 1 10-10 10.016 10.016 0 0 1-10 10Z"/><path d="M12 6a1 1 0 0 0-1 1v4.325l-3.371 2.112a.994.994 0 0 0-.445.624.99.99 0 0 0 .125.757 1.006 1.006 0 0 0 1.382.319l3.84-2.4A1.024 1.024 0 0 0 13 11.88V7a1 1 0 0 0-1-1Z"/></g></g></svg>