<svg width="24" height="24" fill="none" xmlns="http://www.w3.org/2000/svg"><defs><clipPath id="a"><path fill="#fff" fill-opacity="0" d="M0 0h24v24H0z"/></clipPath></defs><path d="M0 0h24v24H0z"/><g clip-path="url(#a)"><path d="M24 9a3.012 3.012 0 0 0-.43-1.562 3.01 3.01 0 0 0-2.77-1.444 2.99 2.99 0 0 0-2.55 1.797 2.997 2.997 0 0 0 .426 3.092c.347.427.804.75 1.324.933V16a6.002 6.002 0 0 1-10.242 4.243A6.002 6.002 0 0 1 8 16v-.08a7.01 7.01 0 0 0 4.29-2.344A7.008 7.008 0 0 0 14 9V5a4.997 4.997 0 0 0-1.465-3.534A5.012 5.012 0 0 0 9 0a1 1 0 1 0 0 2 2.997 2.997 0 0 1 3 3v4A5.001 5.001 0 0 1 2 9V5a3 3 0 0 1 3-3 1 1 0 1 0 0-2 5.012 5.012 0 0 0-3.535 1.466A4.998 4.998 0 0 0 0 5v4a7.008 7.008 0 0 0 1.71 4.576A7.01 7.01 0 0 0 6 15.92V16a8.002 8.002 0 0 0 8 8 8 8 0 0 0 8-8v-4.184A3 3 0 0 0 24 9Zm-3 1c-.2 0-.39-.059-.555-.169a1.024 1.024 0 0 1-.37-.448 1.008 1.008 0 0 1 .218-1.09.998.998 0 0 1 1.539.151 1.003 1.003 0 0 1-.125 1.263A1 1 0 0 1 21 10Z" fill="#FFF"/></g></svg>