<svg width="24" height="24" fill="none" xmlns="http://www.w3.org/2000/svg"><defs><clipPath id="a"><path fill="#fff" fill-opacity="0" d="M0 0h24v24H0z"/></clipPath></defs><path d="M0 0h24v24H0z"/><g clip-path="url(#a)" stroke="#63B3DF" stroke-width="2" stroke-linejoin="round"><path d="M22.594 13.188C20.887 15.418 16.785 20.01 12 20.01c-4.785 0-8.883-4.593-10.594-6.823A1.95 1.95 0 0 1 1 12c0-.43.145-.848.406-1.188C3.117 8.582 7.215 3.99 12 3.99c4.785 0 8.887 4.593 10.594 6.823.543.71.543 1.668 0 2.376Z"/><path d="M12 15.433A3.432 3.432 0 0 1 8.566 12a3.435 3.435 0 0 1 6.867 0A3.435 3.435 0 0 1 12 15.433Z"/></g></svg>