<svg width="24" height="24" fill="none" xmlns="http://www.w3.org/2000/svg"><g clip-path="url(#a)"><path d="M24 9a3 3 0 1 0-4 2.816V16a6 6 0 1 1-12 0v-.08A7.006 7.006 0 0 0 14 9V5a5.006 5.006 0 0 0-5-5 1 1 0 0 0 0 2 3 3 0 0 1 3 3v4A5 5 0 1 1 2 9V5a3 3 0 0 1 3-3 1 1 0 0 0 0-2 5.006 5.006 0 0 0-5 5v4a7.006 7.006 0 0 0 6 6.92V16a8 8 0 0 0 16 0v-4.184A3 3 0 0 0 24 9Zm-3 1a1 1 0 1 1 0-2 1 1 0 0 1 0 2Z" fill="#fff"/></g><defs><clipPath id="a"><path fill="#fff" d="M0 0h24v24H0z"/></clipPath></defs></svg>