<svg width="24" height="24" fill="none" xmlns="http://www.w3.org/2000/svg"><g clip-path="url(#a)"><path d="M15.7 7.134 13.85 8.2A4 4 0 0 0 12 7.142V5h-2v2.142A4 4 0 0 0 8.15 8.2L6.3 7.134l-1 1.732 1.861 1.073A3.958 3.958 0 0 0 7.001 11c.004.36.059.716.16 1.061l-1.86 1.073 1 1.732L8.15 13.8A4 4 0 0 0 10 14.858V17h2v-2.142a4 4 0 0 0 1.85-1.058l1.85 1.066 1-1.732-1.858-1.073c.1-.345.153-.702.157-1.061a3.955 3.955 0 0 0-.16-1.061l1.86-1.073-1-1.732ZM11 13a2 2 0 1 1 0-4 2 2 0 0 1 0 4Zm12.272-1.868A32.896 32.896 0 0 0 19.8 4.419 10.9 10.9 0 0 0 9.453.106a11 11 0 0 0-6.91 17.923c.295.354.457.8.457 1.262V24h13v-3h2.247a3.008 3.008 0 0 0 2.974-2.606l.45-3.394H24v-2.212s-.515-1.166-.729-1.656ZM19.917 13l-.678 5.131a1 1 0 0 1-.992.869H14v3H5v-2.709c0-.929-.326-1.828-.92-2.542a8.995 8.995 0 1 1 14.143-11.1 32.7 32.7 0 0 1 3.216 6.284l.468 1.069-1.99-.002Z" fill="#fff"/></g><defs><clipPath id="a"><path fill="#fff" d="M0 0h24v24H0z"/></clipPath></defs></svg>