<svg width="24" height="24" fill="none" xmlns="http://www.w3.org/2000/svg"><g clip-path="url(#a)"><path d="M19 6h-6a4.987 4.987 0 0 0-4.416 2.705A3.464 3.464 0 0 0 6.5 8 3.5 3.5 0 0 0 3 11.5c.003.52.123 1.033.351 1.5H2V3a1 1 0 0 0-2 0v18a1 1 0 1 0 2 0v-2h20v2a1 1 0 0 0 2 0V11a5.006 5.006 0 0 0-5-5Zm-9 5a3 3 0 0 1 3-3h6a3 3 0 0 1 3 3v2H10v-2Zm-5 .5a1.5 1.5 0 1 1 3 0 1.5 1.5 0 0 1-3 0ZM2 17v-2h20v2H2Z" fill="#fff"/></g><defs><clipPath id="a"><path fill="#fff" d="M0 0h24v24H0z"/></clipPath></defs></svg>