<svg width="14" height="17" viewBox="0 0 14 17" fill="none" xmlns="http://www.w3.org/2000/svg">
<path d="M5.96587 1.28908C6.26278 0.236973 7.73722 0.236972 8.03413 1.28908L8.76815 3.89007C8.92742 4.45446 9.5008 4.78923 10.0638 4.64652L12.6582 3.98887C13.7077 3.72284 14.4449 5.01413 13.6923 5.80021L11.8319 7.74355C11.4282 8.16523 11.4282 8.83477 11.8319 9.25645L13.6923 11.1998C14.4449 11.9859 13.7077 13.2772 12.6582 13.0111L10.0638 12.3535C9.5008 12.2108 8.92742 12.5455 8.76815 13.1099L8.03413 15.7109C7.73722 16.763 6.26278 16.763 5.96587 15.7109L5.23185 13.1099C5.07258 12.5455 4.4992 12.2108 3.93624 12.3535L1.3418 13.0111C0.29234 13.2772 -0.444879 11.9859 0.307669 11.1998L2.16809 9.25645C2.57178 8.83477 2.57178 8.16523 2.16809 7.74355L0.307669 5.80021C-0.444879 5.01413 0.292339 3.72284 1.3418 3.98887L3.93624 4.64652C4.4992 4.78923 5.07258 4.45446 5.23185 3.89008L5.96587 1.28908Z" fill="#D7697D"/>
</svg>
