<svg width="295" height="200" viewBox="0 0 295 200" fill="none" xmlns="http://www.w3.org/2000/svg">
<path d="M32.25 23.5C38.7393 23.5 44 18.2393 44 11.75V11.75C44 5.26065 49.2607 0 55.75 0H159.993H208.221H271C284.255 0 295 10.7452 295 24V38.1028V137.029V150.249C295 161.665 285.881 170.99 274.467 171.245L267.921 171.391C260.147 171.565 253.935 177.917 253.935 185.694V185.694C253.935 193.595 247.53 200 239.629 200H192.337H128.224H64.1122H15.1538V200C6.78458 200 0 193.215 0 184.846V151.454V138.863V45.5C0 33.3497 9.84974 23.5 22 23.5H32.25Z" fill="white"/>
</svg>
