<svg width="16" height="16" viewBox="0 0 16 16" fill="none" xmlns="http://www.w3.org/2000/svg">
<g clip-path="url(#clip0_764_13058)">
<path d="M12.6667 4H8.66667C8.05788 4.00223 7.46139 4.17157 6.94224 4.48957C6.4231 4.80757 6.00124 5.26201 5.72267 5.80333C5.32293 5.49985 4.83521 5.33486 4.33333 5.33333C3.71449 5.33333 3.121 5.57916 2.68342 6.01675C2.24583 6.45433 2 7.04782 2 7.66666C2.00195 8.01333 2.08193 8.35512 2.234 8.66666H1.33333V1.99999C1.33333 1.82318 1.2631 1.65361 1.13807 1.52859C1.01305 1.40357 0.843478 1.33333 0.666667 1.33333C0.489856 1.33333 0.320286 1.40357 0.195262 1.52859C0.0702379 1.65361 0 1.82318 0 1.99999L0 14C0 14.1768 0.0702379 14.3464 0.195262 14.4714C0.320286 14.5964 0.489856 14.6667 0.666667 14.6667C0.843478 14.6667 1.01305 14.5964 1.13807 14.4714C1.2631 14.3464 1.33333 14.1768 1.33333 14V12.6667H14.6667V14C14.6667 14.1768 14.7369 14.3464 14.8619 14.4714C14.987 14.5964 15.1565 14.6667 15.3333 14.6667C15.5101 14.6667 15.6797 14.5964 15.8047 14.4714C15.9298 14.3464 16 14.1768 16 14V7.33333C15.9989 6.4496 15.6474 5.60237 15.0225 4.97748C14.3976 4.35258 13.5504 4.00105 12.6667 4ZM6.66667 7.33333C6.66667 6.8029 6.87738 6.29419 7.25245 5.91912C7.62753 5.54404 8.13623 5.33333 8.66667 5.33333H12.6667C13.1971 5.33333 13.7058 5.54404 14.0809 5.91912C14.456 6.29419 14.6667 6.8029 14.6667 7.33333V8.66666H6.66667V7.33333ZM3.33333 7.66666C3.33333 7.46888 3.39198 7.27554 3.50186 7.11109C3.61175 6.94664 3.76792 6.81847 3.95065 6.74278C4.13338 6.6671 4.33444 6.64729 4.52842 6.68588C4.7224 6.72446 4.90059 6.8197 5.04044 6.95956C5.18029 7.09941 5.27553 7.27759 5.31412 7.47157C5.3527 7.66555 5.3329 7.86662 5.25721 8.04935C5.18153 8.23207 5.05335 8.38825 4.8889 8.49813C4.72445 8.60801 4.53111 8.66666 4.33333 8.66666C4.06812 8.66666 3.81376 8.56131 3.62623 8.37377C3.43869 8.18623 3.33333 7.93188 3.33333 7.66666ZM1.33333 11.3333V10H14.6667V11.3333H1.33333Z" fill="white"/>
</g>
<defs>
<clipPath id="clip0_764_13058">
<rect width="16" height="16" fill="white"/>
</clipPath>
</defs>
</svg>
