<svg width="105" height="17" viewBox="0 0 105 17" fill="none" xmlns="http://www.w3.org/2000/svg">
<path d="M5.8801 5.68451H1.87244V12.4714H0V3.94678H7.75255V12.4714H5.8801V5.68451Z" fill="#FF4A37"/>
<path d="M9.57471 3.94672H11.4472V4.88115C11.8304 4.52049 12.241 4.2418 12.679 4.04508C13.117 3.84836 13.6098 3.75 14.1573 3.75C14.7705 3.75 15.3344 3.86475 15.8491 4.09426C16.3747 4.31284 16.8236 4.62431 17.1959 5.02869C17.5682 5.42213 17.8584 5.8921 18.0664 6.4385C18.2745 6.97405 18.3785 7.55875 18.3785 8.1926C18.3785 8.84835 18.2635 9.44945 18.0336 9.9959C17.8146 10.5314 17.5134 10.9959 17.1302 11.3893C16.747 11.7718 16.2871 12.0724 15.7505 12.291C15.2249 12.5096 14.661 12.6188 14.0587 12.6188C13.5222 12.6188 13.0404 12.5369 12.6133 12.3729C12.1863 12.209 11.7976 11.9795 11.4472 11.6845V15.75H9.57471V3.94672ZM13.7795 10.8812C14.1518 10.8812 14.4967 10.8211 14.8143 10.7008C15.1428 10.5806 15.4275 10.4058 15.6684 10.1763C15.9093 9.9358 16.0954 9.65165 16.2268 9.32375C16.3692 8.98495 16.4404 8.60245 16.4404 8.17625C16.4404 7.7828 16.3801 7.42215 16.2597 7.09425C16.1392 6.75545 15.964 6.4713 15.7341 6.2418C15.5151 6.00135 15.2523 5.81555 14.9457 5.68445C14.6391 5.5533 14.2996 5.48771 13.9273 5.48771C13.3579 5.48771 12.8542 5.6243 12.4162 5.89755C11.9892 6.17075 11.6662 6.49865 11.4472 6.88115V9.4713C11.6662 9.93035 11.9782 10.2801 12.3834 10.5205C12.7885 10.761 13.2539 10.8812 13.7795 10.8812Z" fill="#FF4A37"/>
<path d="M19.3516 8.1926C19.3516 7.5478 19.4611 6.95765 19.6801 6.42215C19.8991 5.8757 20.2112 5.40573 20.6163 5.01229C21.0215 4.61885 21.5033 4.31284 22.0617 4.09426C22.6202 3.86475 23.2388 3.75 23.9177 3.75C24.5857 3.75 25.1989 3.86475 25.7573 4.09426C26.3267 4.31284 26.814 4.61885 27.2191 5.01229C27.6243 5.40573 27.9364 5.8757 28.1554 6.42215C28.3853 6.95765 28.5003 7.5478 28.5003 8.1926C28.5003 8.83745 28.3853 9.43305 28.1554 9.9795C27.9364 10.515 27.6243 10.9795 27.2191 11.3729C26.814 11.7664 26.3267 12.0724 25.7573 12.291C25.1989 12.5096 24.5857 12.6188 23.9177 12.6188C23.2498 12.6188 22.6366 12.5096 22.0781 12.291C21.5197 12.0724 21.0379 11.7664 20.6327 11.3729C20.2276 10.9795 19.91 10.515 19.6801 9.9795C19.4611 9.43305 19.3516 8.83745 19.3516 8.1926ZM21.2897 8.1926C21.2897 8.57515 21.35 8.93035 21.4704 9.2582C21.6018 9.58605 21.7825 9.8702 22.0124 10.1107C22.2424 10.3511 22.5161 10.5424 22.8337 10.6845C23.1622 10.8156 23.5235 10.8812 23.9177 10.8812C24.3119 10.8812 24.6678 10.8211 24.9853 10.7008C25.3138 10.5696 25.5931 10.3893 25.823 10.1599C26.053 9.9194 26.2336 9.63525 26.365 9.3074C26.4964 8.9795 26.5621 8.6079 26.5621 8.1926C26.5621 7.7773 26.491 7.40575 26.3486 7.07785C26.2172 6.73905 26.0311 6.4549 25.7902 6.2254C25.5493 5.98495 25.27 5.80465 24.9525 5.68445C24.6349 5.5533 24.29 5.48771 23.9177 5.48771C23.5454 5.48771 23.195 5.5533 22.8665 5.68445C22.549 5.80465 22.2698 5.98495 22.0289 6.2254C21.7989 6.4549 21.6182 6.73905 21.4868 7.07785C21.3554 7.40575 21.2897 7.7773 21.2897 8.1926Z" fill="#FF4A37"/>
<path d="M29 10.7337H29.9888C30.3734 10.2419 30.6315 9.67901 30.7634 9.04516C30.8952 8.41126 30.9611 7.69541 30.9611 6.89761V3.94678H37.8499V10.7337H39.053V14.4222H37.306V12.4714H30.7469V14.4222H29V10.7337ZM35.9711 10.7337V5.68451H32.741V7.86481C32.741 8.38941 32.6696 8.91401 32.5267 9.43856C32.3839 9.95226 32.1862 10.384 31.9335 10.7337H35.9711Z" fill="#4377C9"/>
<path d="M39.4341 8.1926C39.4341 7.5478 39.5439 6.95765 39.7637 6.42215C39.9834 5.8757 40.2965 5.40573 40.703 5.01229C41.1095 4.61885 41.593 4.31284 42.1533 4.09426C42.7136 3.86475 43.3344 3.75 44.0156 3.75C44.6857 3.75 45.301 3.86475 45.8613 4.09426C46.4327 4.31284 46.9216 4.61885 47.3281 5.01229C47.7346 5.40573 48.0477 5.8757 48.2674 6.42215C48.4982 6.95765 48.6135 7.5478 48.6135 8.1926C48.6135 8.83745 48.4982 9.43305 48.2674 9.9795C48.0477 10.515 47.7346 10.9795 47.3281 11.3729C46.9216 11.7664 46.4327 12.0724 45.8613 12.291C45.301 12.5096 44.6857 12.6188 44.0156 12.6188C43.3454 12.6188 42.7301 12.5096 42.1698 12.291C41.6094 12.0724 41.126 11.7664 40.7195 11.3729C40.313 10.9795 39.9944 10.515 39.7637 9.9795C39.5439 9.43305 39.4341 8.83745 39.4341 8.1926ZM41.3787 8.1926C41.3787 8.57515 41.4391 8.93035 41.56 9.2582C41.6918 9.58605 41.8731 9.8702 42.1038 10.1107C42.3346 10.3511 42.6092 10.5424 42.9279 10.6845C43.2575 10.8156 43.62 10.8812 44.0156 10.8812C44.4111 10.8812 44.7681 10.8211 45.0868 10.7008C45.4164 10.5696 45.6965 10.3893 45.9273 10.1599C46.158 9.9194 46.3393 9.63525 46.4711 9.3074C46.6029 8.9795 46.6689 8.6079 46.6689 8.1926C46.6689 7.7773 46.5975 7.40575 46.4546 7.07785C46.3228 6.73905 46.136 6.4549 45.8943 6.2254C45.6526 5.98495 45.3724 5.80465 45.0538 5.68445C44.7352 5.5533 44.3891 5.48771 44.0156 5.48771C43.642 5.48771 43.2904 5.5533 42.9608 5.68445C42.6422 5.80465 42.362 5.98495 42.1203 6.2254C41.8896 6.4549 41.7083 6.73905 41.5765 7.07785C41.4446 7.40575 41.3787 7.7773 41.3787 8.1926Z" fill="#4377C9"/>
<path d="M49.7764 3.94678H51.6551V7.40581L55.3631 3.94678H57.8186L53.6491 7.79926L57.9671 12.4714H55.5611L52.2816 8.96316L51.6551 9.56971V12.4714H49.7764V3.94678Z" fill="#4377C9"/>
<path d="M58.5601 3.94678H66.6356V5.68451H63.5371V12.4714H61.6586V5.68451H58.5601V3.94678Z" fill="#4377C9"/>
<path d="M67.0459 8.1926C67.0459 7.5478 67.1559 6.95765 67.3759 6.42215C67.5954 5.8757 67.9084 5.40573 68.3149 5.01229C68.7214 4.61885 69.2049 4.31284 69.7654 4.09426C70.3254 3.86475 70.9464 3.75 71.6274 3.75C72.2979 3.75 72.9129 3.86475 73.4734 4.09426C74.0449 4.31284 74.5334 4.61885 74.9399 5.01229C75.3464 5.40573 75.6599 5.8757 75.8794 6.42215C76.1104 6.95765 76.2254 7.5478 76.2254 8.1926C76.2254 8.83745 76.1104 9.43305 75.8794 9.9795C75.6599 10.515 75.3464 10.9795 74.9399 11.3729C74.5334 11.7664 74.0449 12.0724 73.4734 12.291C72.9129 12.5096 72.2979 12.6188 71.6274 12.6188C70.9574 12.6188 70.3419 12.5096 69.7819 12.291C69.2214 12.0724 68.7379 11.7664 68.3314 11.3729C67.9249 10.9795 67.6064 10.515 67.3759 9.9795C67.1559 9.43305 67.0459 8.83745 67.0459 8.1926ZM68.9909 8.1926C68.9909 8.57515 69.0514 8.93035 69.1719 9.2582C69.3039 9.58605 69.4849 9.8702 69.7159 10.1107C69.9464 10.3511 70.2214 10.5424 70.5399 10.6845C70.8694 10.8156 71.2319 10.8812 71.6274 10.8812C72.0229 10.8812 72.3804 10.8211 72.6989 10.7008C73.0284 10.5696 73.3084 10.3893 73.5394 10.1599C73.7699 9.9194 73.9514 9.63525 74.0829 9.3074C74.2149 8.9795 74.2809 8.6079 74.2809 8.1926C74.2809 7.7773 74.2094 7.40575 74.0664 7.07785C73.9349 6.73905 73.7479 6.4549 73.5064 6.2254C73.2644 5.98495 72.9844 5.80465 72.6659 5.68445C72.3474 5.5533 72.0009 5.48771 71.6274 5.48771C71.2539 5.48771 70.9024 5.5533 70.5729 5.68445C70.2544 5.80465 69.9739 5.98495 69.7324 6.2254C69.5014 6.4549 69.3204 6.73905 69.1884 7.07785C69.0569 7.40575 68.9909 7.7773 68.9909 8.1926Z" fill="#4377C9"/>
<path d="M77.3735 3.94672H79.252V4.88115C79.6365 4.52049 80.0485 4.2418 80.488 4.04508C80.9275 3.84836 81.422 3.75 81.9715 3.75C82.5865 3.75 83.1525 3.86475 83.669 4.09426C84.196 4.31284 84.6465 4.62431 85.02 5.02869C85.3935 5.42213 85.685 5.8921 85.8935 6.4385C86.1025 6.97405 86.2065 7.55875 86.2065 8.1926C86.2065 8.84835 86.0915 9.44945 85.8605 9.9959C85.641 10.5314 85.339 10.9959 84.954 11.3893C84.5695 11.7718 84.108 12.0724 83.57 12.291C83.0425 12.5096 82.4765 12.6188 81.8725 12.6188C81.334 12.6188 80.8505 12.5369 80.422 12.3729C79.9935 12.209 79.6035 11.9795 79.252 11.6845V15.75H77.3735V3.94672ZM81.5925 10.8812C81.966 10.8812 82.312 10.8211 82.6305 10.7008C82.96 10.5806 83.246 10.4058 83.4875 10.1763C83.729 9.9358 83.916 9.65165 84.048 9.32375C84.1905 8.98495 84.262 8.60245 84.262 8.17625C84.262 7.7828 84.2015 7.42215 84.081 7.09425C83.96 6.75545 83.784 6.4713 83.5535 6.2418C83.3335 6.00135 83.07 5.81555 82.7625 5.68445C82.4545 5.5533 82.114 5.48771 81.7405 5.48771C81.1695 5.48771 80.664 5.6243 80.2245 5.89755C79.796 6.17075 79.472 6.49865 79.252 6.88115V9.4713C79.472 9.93035 79.785 10.2801 80.1915 10.5205C80.598 10.761 81.065 10.8812 81.5925 10.8812Z" fill="#4377C9"/>
<path d="M87.1387 8.1926C87.1387 7.5478 87.2487 6.95765 87.4682 6.42215C87.6882 5.8757 88.0012 5.40573 88.4077 5.01229C88.8142 4.61885 89.2977 4.31284 89.8577 4.09426C90.4182 3.86475 91.0392 3.75 91.7202 3.75C92.3902 3.75 93.0057 3.86475 93.5662 4.09426C94.1372 4.31284 94.6262 4.61885 95.0327 5.01229C95.4392 5.40573 95.7522 5.8757 95.9722 6.42215C96.2027 6.95765 96.3182 7.5478 96.3182 8.1926C96.3182 8.83745 96.2027 9.43305 95.9722 9.9795C95.7522 10.515 95.4392 10.9795 95.0327 11.3729C94.6262 11.7664 94.1372 12.0724 93.5662 12.291C93.0057 12.5096 92.3902 12.6188 91.7202 12.6188C91.0502 12.6188 90.4347 12.5096 89.8742 12.291C89.3142 12.0724 88.8307 11.7664 88.4242 11.3729C88.0177 10.9795 87.6992 10.515 87.4682 9.9795C87.2487 9.43305 87.1387 8.83745 87.1387 8.1926ZM89.0832 8.1926C89.0832 8.57515 89.1437 8.93035 89.2647 9.2582C89.3967 9.58605 89.5777 9.8702 89.8087 10.1107C90.0392 10.3511 90.3137 10.5424 90.6327 10.6845C90.9622 10.8156 91.3247 10.8812 91.7202 10.8812C92.1157 10.8812 92.4727 10.8211 92.7912 10.7008C93.1212 10.5696 93.4012 10.3893 93.6317 10.1599C93.8627 9.9194 94.0437 9.63525 94.1757 9.3074C94.3077 8.9795 94.3737 8.6079 94.3737 8.1926C94.3737 7.7773 94.3022 7.40575 94.1592 7.07785C94.0272 6.73905 93.8407 6.4549 93.5987 6.2254C93.3572 5.98495 93.0772 5.80465 92.7582 5.68445C92.4397 5.5533 92.0937 5.48771 91.7202 5.48771C91.3467 5.48771 90.9952 5.5533 90.6657 5.68445C90.3467 5.80465 90.0667 5.98495 89.8252 6.2254C89.5942 6.4549 89.4132 6.73905 89.2812 7.07785C89.1492 7.40575 89.0832 7.7773 89.0832 8.1926Z" fill="#4377C9"/>
<path d="M97.4849 3.94678H101.143C102.341 3.94678 103.242 4.11618 103.846 4.45498C104.45 4.79377 104.753 5.37847 104.753 6.20906C104.753 6.60251 104.665 6.93586 104.489 7.20906C104.313 7.48231 104.082 7.72821 103.797 7.94676C104.203 8.09981 104.505 8.35661 104.703 8.71726C104.901 9.06701 105 9.47136 105 9.93041C105 10.7829 104.698 11.4222 104.093 11.8484C103.489 12.2637 102.638 12.4714 101.539 12.4714H97.4849V3.94678ZM99.3639 8.94676V10.7829H101.358C101.918 10.7829 102.341 10.7118 102.627 10.5697C102.912 10.4277 103.055 10.1982 103.055 9.88121C103.055 9.54241 102.918 9.30196 102.643 9.15991C102.379 9.01781 101.967 8.94676 101.407 8.94676H99.3639ZM99.3639 5.63531V7.32381H101.572C101.956 7.32381 102.259 7.25281 102.478 7.11071C102.698 6.96866 102.808 6.75006 102.808 6.45496C102.808 6.10526 102.66 5.88121 102.363 5.78286C102.077 5.68451 101.654 5.63531 101.094 5.63531H99.3639Z" fill="#4377C9"/>
</svg>
