<svg width="24" height="24" viewBox="0 0 24 24" fill="none" xmlns="http://www.w3.org/2000/svg">
<path d="M23.9998 22.5858L17.7378 16.3238C19.3644 14.3344 20.1642 11.7959 19.9716 9.23334C19.7791 6.67081 18.609 4.28031 16.7034 2.5563C14.7977 0.832292 12.3024 -0.0933258 9.73342 -0.029094C7.16447 0.0351378 4.71848 1.08431 2.9014 2.9014C1.08431 4.71848 0.0351378 7.16447 -0.029094 9.73342C-0.0933258 12.3024 0.832292 14.7977 2.5563 16.7034C4.28031 18.609 6.67081 19.7791 9.23334 19.9716C11.7959 20.1642 14.3344 19.3644 16.3238 17.7378L22.5858 23.9998L23.9998 22.5858ZM9.99978 17.9998C8.41753 17.9998 6.87081 17.5306 5.55522 16.6515C4.23963 15.7725 3.21425 14.5231 2.60875 13.0612C2.00324 11.5994 1.84482 9.99091 2.1535 8.43906C2.46218 6.88721 3.22411 5.46175 4.34293 4.34293C5.46175 3.22411 6.88721 2.46218 8.43906 2.1535C9.99091 1.84482 11.5994 2.00324 13.0612 2.60875C14.5231 3.21425 15.7725 4.23963 16.6515 5.55522C17.5306 6.87081 17.9998 8.41753 17.9998 9.99978C17.9974 12.1208 17.1538 14.1542 15.654 15.654C14.1542 17.1538 12.1208 17.9974 9.99978 17.9998Z" fill="white"/>
</svg>
