<svg width="20" height="20" viewBox="0 0 20 20" fill="none" xmlns="http://www.w3.org/2000/svg">
<path d="M18.3808 4.35827L12.2358 1.43077C10.8831 0.622805 9.19953 0.608469 7.83328 1.39327L1.61914 4.35827C1.59582 4.36995 1.57164 4.38245 1.54914 4.39577C0.0744497 5.23898 -0.437504 7.118 0.4057 8.59269C0.691524 9.0926 1.11195 9.50223 1.61914 9.77495L3.33332 10.5916V14.675C3.33433 16.5009 4.52242 18.114 6.26582 18.6566C7.47906 19.0076 8.73707 19.1794 10 19.1666C11.2627 19.1808 12.5207 19.0104 13.7342 18.6608C15.4776 18.1182 16.6657 16.505 16.6667 14.6791V10.59L18.3334 9.79327V16.6666C18.3334 17.1268 18.7064 17.4999 19.1667 17.4999C19.6269 17.4999 20 17.1268 20 16.6666V6.66659C20.0055 5.68804 19.2329 4.78405 18.3808 4.35827ZM15 14.6791C15.0004 15.7713 14.2918 16.7373 13.25 17.065C12.1935 17.3668 11.0987 17.5134 9.99996 17.5C8.90126 17.5134 7.80646 17.3668 6.74996 17.065C5.70812 16.7373 4.99953 15.7713 4.99996 14.6791V11.3858L7.76414 12.7025C8.44616 13.1075 9.22511 13.3203 10.0183 13.3183C10.7733 13.3237 11.5156 13.1238 12.1658 12.74L15 11.3858V14.6791ZM17.6666 8.27077L11.3816 11.2708C10.9516 11.5212 10.4615 11.65 9.96394 11.6434C9.46634 11.6368 8.97989 11.495 8.55664 11.2333L2.40746 8.30827C1.72203 7.93866 1.46601 7.08339 1.83562 6.398C1.96063 6.16621 2.14804 5.97404 2.37664 5.84327L8.62246 2.85995C9.05269 2.61007 9.54265 2.48158 10.0401 2.48818C10.5376 2.49479 11.024 2.63624 11.4475 2.89745L17.5925 5.82495C17.8145 5.94822 17.9999 6.128 18.13 6.34606C18.2601 6.56413 18.3302 6.81272 18.3333 7.06663C18.3337 7.30746 18.2727 7.54441 18.156 7.7551C18.0394 7.9658 17.8709 8.14328 17.6666 8.27077Z" fill="#2E2E2E"/>
</svg>
