<svg width="178" height="65" viewBox="0 0 178 65" fill="none" xmlns="http://www.w3.org/2000/svg">
<g clip-path="url(#clip0_2429_5093)">
<path d="M58.2261 48.841V42.9258H59.0415L61.7373 47.4664H61.3975L64.1385 42.9258H64.8862V48.841H64.1499V43.8385L64.2972 43.9061L61.7373 48.1199H61.3749L58.7924 43.861L58.9623 43.8272V48.841H58.2261Z" fill="#CD5342"/>
<path d="M69.7234 48.897C69.1043 48.897 68.5606 48.7696 68.0923 48.5139C67.6244 48.2512 67.258 47.8942 66.9936 47.4435C66.7296 46.9855 66.5972 46.4633 66.5972 45.8774C66.5972 45.2915 66.7218 44.7732 66.971 44.3226C67.2279 43.8718 67.5751 43.5191 68.013 43.2634C68.4586 43.0008 68.957 42.8691 69.5082 42.8691C70.067 42.8691 70.5615 42.9969 70.9919 43.2522C71.4301 43.5001 71.7735 43.8532 72.0226 44.3113C72.2718 44.762 72.3964 45.2842 72.3964 45.8774C72.3964 45.9151 72.3928 45.9562 72.3851 46.0014C72.3851 46.0391 72.3851 46.0802 72.3851 46.1252H67.2088V45.5281H71.9547L71.6375 45.7647C71.6375 45.3366 71.5434 44.9574 71.3544 44.6267C71.1731 44.2887 70.9239 44.0261 70.6069 43.8381C70.2897 43.6504 69.9237 43.5564 69.5082 43.5564C69.1003 43.5564 68.7343 43.6504 68.4095 43.8381C68.0849 44.0261 67.8317 44.2887 67.6506 44.6267C67.4693 44.9648 67.3787 45.3517 67.3787 45.7872V45.9112C67.3787 46.3619 67.4771 46.7601 67.6732 47.1055C67.877 47.4435 68.1567 47.7104 68.5113 47.9055C68.8739 48.0934 69.2855 48.1871 69.746 48.1871C70.1084 48.1871 70.4447 48.1235 70.754 47.9956C71.0712 47.8682 71.343 47.6727 71.5696 47.4098L72.0226 47.928C71.7585 48.2435 71.4262 48.484 71.0259 48.6491C70.6334 48.8146 70.199 48.897 69.7234 48.897Z" fill="#CD5342"/>
<path d="M78.1323 48.4579V43.6243H75.2667L75.1988 44.9426C75.1836 45.3408 75.157 45.7313 75.1195 46.1144C75.089 46.4975 75.0324 46.8506 74.9496 47.1735C74.8739 47.4889 74.7645 47.7481 74.6212 47.9509C74.4774 48.1463 74.2927 48.259 74.0661 48.2889L73.2619 48.1424C73.4959 48.1502 73.6884 48.0675 73.8396 47.8945C73.9904 47.7143 74.1075 47.4702 74.1907 47.1622C74.2736 46.8544 74.3341 46.5052 74.372 46.1144C74.4095 45.7165 74.4399 45.3109 74.4626 44.8975L74.5419 42.9258H78.9365V48.4579H78.1323ZM73.0127 50.2719V48.1424H79.8653V50.2719H79.1064V48.841H73.7716V50.2719H73.0127Z" fill="#CD5342"/>
<path d="M81.4321 48.841V42.9258H82.2363V47.6241L86.212 42.9258H86.9252V48.841H86.1218V44.1314L82.157 48.841H81.4321Z" fill="#CD5342"/>
<path d="M89.2305 48.841V42.9258H90.0349V48.1424H93.6705V42.9258H94.4749V48.841H89.2305ZM94.6788 50.2719V48.7734L94.8827 48.841H93.6705V48.1424H95.4381V50.2719H94.6788Z" fill="#CD5342"/>
<path d="M96.9727 48.841V42.9258H97.777V47.6241L101.753 42.9258H102.466V48.841H101.663V44.1314L97.6981 48.841H96.9727Z" fill="#CD5342"/>
<path d="M104.772 48.841V42.9258H105.576V45.5397H109.326V42.9258H110.13V48.841H109.326V46.227H105.576V48.841H104.772Z" fill="#CD5342"/>
<path d="M114.907 48.897C114.319 48.897 113.79 48.7696 113.322 48.5139C112.86 48.2512 112.499 47.8942 112.234 47.4435C111.969 46.9855 111.838 46.4633 111.838 45.8774C111.838 45.2842 111.969 44.762 112.234 44.3113C112.499 43.8606 112.86 43.5079 113.322 43.2522C113.79 42.9969 114.319 42.8691 114.907 42.8691C115.413 42.8691 115.87 42.967 116.278 43.1621C116.686 43.3575 117.006 43.6504 117.24 44.0408L116.641 44.4465C116.437 44.1462 116.183 43.9247 115.881 43.7817C115.579 43.6392 115.251 43.5677 114.896 43.5677C114.473 43.5677 114.092 43.6655 113.752 43.8606C113.412 44.0486 113.144 44.3152 112.948 44.6606C112.751 45.0063 112.654 45.4119 112.654 45.8774C112.654 46.3432 112.751 46.7488 112.948 47.0942C113.144 47.44 113.412 47.7104 113.752 47.9055C114.092 48.0934 114.473 48.1871 114.896 48.1871C115.251 48.1871 115.579 48.1161 115.881 47.9731C116.183 47.8305 116.437 47.6125 116.641 47.3196L117.24 47.7252C117.006 48.1083 116.686 48.4013 116.278 48.604C115.87 48.7995 115.413 48.897 114.907 48.897Z" fill="#CD5342"/>
<path d="M123.158 48.841L120.711 45.9116L121.379 45.5172L124.109 48.841H123.158ZM118.797 48.841V42.9258H119.601V48.841H118.797ZM119.352 46.2045V45.5172H121.266V46.2045H119.352ZM121.448 45.9679L120.7 45.8552L123.067 42.9258H123.939L121.448 45.9679Z" fill="#CD5342"/>
<path d="M125.379 48.841V42.9258H126.183V47.6241L130.159 42.9258H130.872V48.841H130.068V44.1314L126.103 48.841H125.379Z" fill="#CD5342"/>
<path d="M133.177 48.8398V42.9246H133.982V47.6229L137.957 42.9246H138.671V48.8398H137.866V44.1301L133.902 48.8398H133.177ZM135.873 42.0683C135.374 42.0683 134.97 41.9443 134.661 41.6964C134.359 41.4411 134.201 41.0768 134.186 40.6035H134.763C134.77 40.9042 134.876 41.1408 135.08 41.3134C135.284 41.4863 135.548 41.5725 135.873 41.5725C136.197 41.5725 136.461 41.4863 136.665 41.3134C136.877 41.1408 136.987 40.9042 136.994 40.6035H137.572C137.565 41.0768 137.406 41.4411 137.096 41.6964C136.787 41.9443 136.379 42.0683 135.873 42.0683Z" fill="#CD5342"/>
<path d="M143.939 48.841V42.9258H144.744V48.1424H148.38V42.9258H149.184V48.841H143.939ZM149.388 50.2719V48.7734L149.592 48.841H148.38V48.1424H150.146V50.2719H149.388Z" fill="#CD5342"/>
<path d="M154.231 48.897C153.612 48.897 153.068 48.7696 152.6 48.5139C152.132 48.2512 151.765 47.8942 151.501 47.4435C151.237 46.9855 151.104 46.4633 151.104 45.8774C151.104 45.2915 151.229 44.7732 151.478 44.3226C151.735 43.8718 152.083 43.5191 152.521 43.2634C152.966 43.0008 153.464 42.8691 154.016 42.8691C154.574 42.8691 155.069 42.9969 155.499 43.2522C155.937 43.5001 156.28 43.8532 156.53 44.3113C156.779 44.762 156.903 45.2842 156.903 45.8774C156.903 45.9151 156.901 45.9562 156.892 46.0014C156.892 46.0391 156.892 46.0802 156.892 46.1252H151.716V45.5281H156.462L156.145 45.7647C156.145 45.3366 156.051 44.9574 155.861 44.6267C155.681 44.2887 155.431 44.0261 155.114 43.8381C154.797 43.6504 154.431 43.5564 154.016 43.5564C153.608 43.5564 153.241 43.6504 152.917 43.8381C152.592 44.0261 152.339 44.2887 152.158 44.6267C151.977 44.9648 151.886 45.3517 151.886 45.7872V45.9112C151.886 46.3619 151.984 46.7601 152.18 47.1055C152.384 47.4435 152.664 47.7104 153.019 47.9055C153.381 48.0934 153.793 48.1871 154.253 48.1871C154.616 48.1871 154.952 48.1235 155.262 47.9956C155.578 47.8682 155.85 47.6727 156.076 47.4098L156.53 47.928C156.266 48.2435 155.934 48.484 155.533 48.6491C155.14 48.8146 154.706 48.897 154.231 48.897Z" fill="#CD5342"/>
<path d="M158.684 48.841V42.9258H159.489V45.5397H163.237V42.9258H164.042V48.841H163.237V46.227H159.489V48.841H158.684Z" fill="#CD5342"/>
<path d="M167.46 48.841V43.4103L167.664 43.6243H165.207V42.9258H170.519V43.6243H168.061L168.265 43.4103V48.841H167.46Z" fill="#CD5342"/>
<path d="M174.75 48.897C174.237 48.897 173.773 48.7808 173.357 48.5477C172.942 48.3076 172.61 47.9657 172.361 47.5224C172.119 47.0717 171.998 46.5235 171.998 45.8774C171.998 45.2316 172.119 44.6869 172.361 44.2437C172.602 43.793 172.93 43.4515 173.345 43.2184C173.762 42.9857 174.229 42.8691 174.75 42.8691C175.317 42.8691 175.822 42.9969 176.268 43.2522C176.721 43.5001 177.076 43.8532 177.332 44.3113C177.59 44.762 177.718 45.2842 177.718 45.8774C177.718 46.4784 177.59 47.0041 177.332 47.4548C177.076 47.9055 176.721 48.2586 176.268 48.5139C175.822 48.7696 175.317 48.897 174.75 48.897ZM171.68 51.0264V42.9254H172.451V44.7056L172.372 45.8887L172.485 47.083V51.0264H171.68ZM174.694 48.1871C175.117 48.1871 175.494 48.0934 175.826 47.9055C176.159 47.7104 176.423 47.44 176.619 47.0942C176.816 46.7414 176.913 46.3358 176.913 45.8774C176.913 45.4193 176.816 45.0176 176.619 44.6718C176.423 44.3264 176.159 44.056 175.826 43.8606C175.494 43.6655 175.117 43.5677 174.694 43.5677C174.271 43.5677 173.889 43.6655 173.549 43.8606C173.218 44.056 172.953 44.3264 172.757 44.6718C172.568 45.0176 172.473 45.4193 172.473 45.8774C172.473 46.3358 172.568 46.7414 172.757 47.0942C172.953 47.44 173.218 47.7104 173.549 47.9055C173.889 48.0934 174.271 48.1871 174.694 48.1871Z" fill="#CD5342"/>
<path d="M57.2827 30.8833V15.1094H59.6839L66.6385 26.6243H65.3473L72.1885 15.1094H74.5898L74.6351 30.8833H71.8261L71.8035 19.4585H72.3925L66.5932 29.0805H65.2793L59.3894 19.4585H60.0691V30.8833H57.2827Z" fill="#6981D7"/>
<path d="M78.3032 30.8833V15.1094H81.2028V28.4045H89.1997V15.1094H92.1221V30.8833H78.3032ZM91.7594 34.3535V30.1621L92.4162 30.8833H89.1997V28.4045H94.4779V34.3535H91.7594Z" fill="#6981D7"/>
<path d="M99.8311 30.8833L106.967 15.1094H109.867L117.026 30.8833H113.944L107.805 16.6642H108.984L102.867 30.8833H99.8311ZM103.116 27.2327L103.909 24.9342H112.472L113.265 27.2327H103.116Z" fill="#6981D7"/>
<path d="M116.603 30.8612L116.739 28.4951C116.845 28.5102 116.943 28.5251 117.033 28.5402C117.125 28.5552 117.207 28.5627 117.282 28.5627C117.751 28.5627 118.113 28.42 118.37 28.1346C118.627 27.8491 118.816 27.4661 118.936 26.9853C119.073 26.4896 119.163 25.9413 119.208 25.3404C119.269 24.7245 119.314 24.1085 119.344 23.4925L119.548 18.8506H129.334V30.8837H126.503V20.473L127.16 21.2391H121.406L122.018 20.4505L121.859 23.6278C121.814 24.6944 121.722 25.6858 121.587 26.6023C121.466 27.5036 121.27 28.2923 120.998 28.9683C120.741 29.6444 120.379 30.1701 119.911 30.5457C119.458 30.9213 118.876 31.1091 118.167 31.1091C117.939 31.1091 117.69 31.0865 117.419 31.0415C117.162 30.9964 116.891 30.9363 116.603 30.8612Z" fill="#6981D7"/>
<path d="M138.426 22.8165C139.982 22.8165 141.167 23.162 141.982 23.8531C142.798 24.5441 143.206 25.5207 143.206 26.7826C143.206 28.0895 142.753 29.111 141.847 29.8472C140.94 30.5682 139.665 30.9213 138.019 30.9062L132.355 30.8837V18.8506H135.186V22.794L138.426 22.8165ZM137.769 28.8331C138.599 28.8482 139.234 28.6754 139.671 28.3148C140.109 27.9543 140.329 27.4285 140.329 26.7374C140.329 26.0464 140.109 25.5507 139.671 25.2502C139.249 24.9348 138.614 24.7695 137.769 24.7545L135.186 24.7319V28.8106L137.769 28.8331Z" fill="#6981D7"/>
<path d="M144.901 30.8837V18.8506H147.868L152.739 27.3909H151.561L156.681 18.8506H159.332L159.354 30.8837H156.795V21.8701L157.248 22.1631L152.716 29.6218H151.494L146.94 21.9602L147.484 21.825V30.8837H144.901Z" fill="#6981D7"/>
<path d="M169.699 30.8832V28.4496L169.54 27.9313V23.6724C169.54 22.8461 169.291 22.2076 168.792 21.757C168.294 21.2913 167.54 21.0584 166.528 21.0584C165.847 21.0584 165.176 21.1636 164.511 21.3739C163.862 21.5842 163.31 21.8771 162.857 22.2527L161.747 20.2021C162.397 19.7063 163.167 19.3383 164.058 19.0979C164.964 18.8425 165.901 18.7148 166.867 18.7148C168.619 18.7148 169.971 19.1355 170.922 19.9768C171.889 20.8031 172.372 22.0875 172.372 23.8301V30.8832H169.699ZM165.893 31.041C164.987 31.041 164.194 30.8908 163.514 30.5904C162.835 30.2749 162.307 29.8467 161.929 29.3059C161.566 28.75 161.385 28.1266 161.385 27.4356C161.385 26.7596 161.544 26.1511 161.861 25.6103C162.193 25.0694 162.729 24.6413 163.469 24.3259C164.209 24.0104 165.191 23.8526 166.414 23.8526H169.926V25.7229H166.618C165.651 25.7229 165.003 25.8807 164.67 26.1962C164.337 26.4966 164.172 26.8722 164.172 27.3228C164.172 27.8337 164.376 28.2393 164.783 28.5397C165.191 28.8401 165.757 28.9904 166.482 28.9904C167.177 28.9904 167.796 28.8327 168.339 28.5172C168.899 28.2017 169.299 27.736 169.54 27.1201L170.016 28.8101C169.744 29.5161 169.253 30.0646 168.543 30.4551C167.849 30.8457 166.966 31.041 165.893 31.041Z" fill="#6981D7"/>
<g filter="url(#filter0_d_2429_5093)">
<path d="M25.131 57.2904C39.0105 57.2904 50.2621 46.0981 50.2621 32.2917C50.2621 18.4853 39.0105 7.29297 25.131 7.29297C11.2515 7.29297 0 18.4853 0 32.2917C0 46.0981 11.2515 57.2904 25.131 57.2904Z" fill="white"/>
<path d="M25.1309 56.4098C38.5216 56.4098 49.377 45.6116 49.377 32.2913C49.377 18.9711 38.5216 8.17285 25.1309 8.17285C11.7401 8.17285 0.884766 18.9711 0.884766 32.2913C0.884766 45.6116 11.7401 56.4098 25.1309 56.4098Z" stroke="#CD5342" stroke-width="2.08549"/>
</g>
<path d="M29.0477 16.6617C27.7597 16.728 26.3607 17.1568 25.2075 17.839C24.086 18.5017 22.7344 19.9748 22.489 20.6653C22.3804 21.0311 22.4087 20.9962 22.3804 21.2071C22.3501 21.4325 22.3423 21.7881 22.3423 21.7881C22.3423 22.9498 22.481 23.8854 22.7505 24.5247C22.9605 25.0198 23.5035 25.4914 23.5947 25.2576C23.6065 25.2263 23.6421 25.2107 23.6739 25.2225C23.7095 25.2381 23.8165 25.1211 24.0028 24.8599C24.3436 24.3804 24.7636 23.6905 24.7915 23.5617C24.8072 23.5072 24.8469 23.3941 24.8866 23.3084C24.9261 23.2226 24.9895 23.055 25.0252 22.9381C25.0609 22.8211 25.1084 22.6807 25.1282 22.6301C25.2035 22.4469 25.2512 21.7412 25.2035 21.519C25.1639 21.3319 25.1243 21.2735 24.9023 21.0551C24.6528 20.8056 24.6487 20.8017 24.6487 20.5874C24.6487 20.3807 24.6606 20.3534 24.8866 20.0572C25.362 19.4374 26.1586 18.8447 26.868 18.5796C27.3356 18.4043 27.4941 18.3614 28.2153 18.2132C28.5008 18.1548 30.1573 18.1548 30.5732 18.2132C30.9339 18.2678 31.4609 18.377 31.7819 18.4705C31.9009 18.5056 32.0634 18.5524 32.1387 18.5719C32.3012 18.6148 32.8956 18.8643 33.2523 19.0435C34.4215 19.6206 35.4674 20.5405 35.9112 21.3787C36.2602 22.0375 36.3392 22.365 36.3672 23.2109C36.3987 24.2323 36.3512 24.5169 35.9944 25.55C35.5109 26.9495 34.5244 28.2593 33.1889 29.2689C32.4202 29.8498 31.7819 30.1968 30.93 30.4892C30.1888 30.7386 27.4743 31.4754 26.6896 31.6353C26.6024 31.6509 26.3964 31.7015 26.2339 31.7444C26.0714 31.7834 25.4017 31.951 24.7478 32.1148C24.0939 32.2785 23.4797 32.4384 23.3806 32.4695C23.2816 32.5007 23.0596 32.5631 22.8853 32.6021C22.1402 32.7736 20.3965 33.3038 19.6753 33.5728C19.2116 33.7482 18.5062 34.0639 18.209 34.2316C17.5551 34.598 16.7428 35.2841 16.2672 35.8727C15.316 37.0385 14.8999 38.1962 14.9515 39.5218C14.995 40.6014 15.3636 41.7009 16.0096 42.6636C16.3425 43.1629 16.5089 43.3576 16.9527 43.7903C17.7017 44.5117 18.4824 45.0029 19.3503 45.2873C19.8735 45.4627 20.246 45.5719 20.567 45.6458C20.7096 45.681 20.9157 45.7317 21.0226 45.763C22.0649 46.063 23.658 46.2423 24.8866 46.1997C26.0714 46.1567 26.7729 46.0201 27.9974 45.5994C28.5801 45.4004 29.4558 44.9092 29.9591 44.4997C30.5021 44.0593 31.1041 43.3692 31.4054 42.8392C31.8096 42.1337 32.0078 41.5643 32.1189 40.7964C32.194 40.282 32.194 40.0792 32.1147 39.5567C31.9642 38.5472 31.5919 37.7987 30.9063 37.1241C30.5534 36.7772 30.0345 36.4459 29.5468 36.2548C29.2218 36.1301 28.5603 35.9509 28.5918 35.9977C28.6038 36.0132 28.7939 36.1378 29.0158 36.2706C29.9591 36.8357 30.3435 37.2138 30.6564 37.892C30.799 38.2001 30.8231 38.2744 30.9576 38.8627C31.0567 39.2993 31.0765 40.2 30.9934 40.6365C30.8469 41.4552 30.5177 42.1259 29.9948 42.6872C29.0912 43.6617 28.0806 44.149 26.2141 44.4997C26.0199 44.5388 25.5761 44.5543 24.7082 44.5543C23.4242 44.5543 23.226 44.535 22.2749 44.3361C21.95 44.2698 21.7598 44.2191 21.201 44.0593C20.9236 43.9814 20.3173 43.7709 20.2182 43.7202C20.1825 43.7008 20.0201 43.6188 19.8576 43.541C19.5881 43.4082 19.3305 43.2484 19.061 43.0459C18.8708 42.9016 18.4151 42.4495 18.2486 42.235C18.0227 41.9464 17.7017 41.389 17.6027 41.1161C17.3847 40.5003 17.3768 40.4573 17.3768 39.701C17.3807 38.9915 17.3807 38.9718 17.5115 38.5704C17.7137 37.9585 17.9871 37.4322 18.3993 36.8902C18.6806 36.5121 18.9897 36.2353 19.4969 35.9041C20.6224 35.1711 21.8985 34.7539 23.7571 34.5122C24.1059 34.4694 24.6249 34.3758 24.9063 34.3056C25.1917 34.2354 25.5483 34.1497 25.6989 34.1147C25.8535 34.0795 26.1983 33.9976 26.4717 33.9353C26.7452 33.8729 27.1731 33.7716 27.4228 33.7131C28.0172 33.5766 28.8258 33.374 29.2261 33.2687C29.4002 33.2219 29.6342 33.1595 29.7411 33.1323C30.2841 32.9919 31.6196 32.5475 32.2577 32.2941C34.037 31.5846 35.1623 30.9062 36.1767 29.9395C36.7951 29.3469 37.1993 28.7933 37.6393 27.9474C38.1108 27.0352 38.3723 26.2984 38.5822 25.2965C38.6973 24.7625 38.6852 23.2265 38.5666 22.7041C38.1504 20.8563 37.0566 19.3711 35.2653 18.2094C33.9138 17.3401 32.1505 16.7709 30.4586 16.6617C30.1096 16.6422 29.773 16.6266 29.7053 16.6305C29.638 16.6305 29.3407 16.6461 29.0477 16.6617ZM23.6303 21.2462C23.7769 21.3202 23.8046 21.3553 23.8522 21.523C23.8919 21.6633 23.8403 21.9673 23.7452 22.1194C23.5986 22.3533 23.448 22.4702 23.2974 22.4702C23.1706 22.4702 23.127 22.4469 23.0358 22.326C22.9368 22.1974 22.9248 22.1545 22.9248 21.8621C22.9248 21.4957 22.9843 21.3709 23.226 21.2539C23.3925 21.1682 23.4678 21.1682 23.6303 21.2462Z" fill="#6981D7"/>
<path d="M20.6484 23.1715C19.1028 23.2009 17.4895 23.2633 16.9836 23.3147C16.7964 23.3331 16.4657 23.3588 16.2467 23.3698C15.4579 23.4139 14.0438 23.5976 13.3189 23.7518C12.6057 23.9024 12.0042 24.1484 11.8012 24.3762C11.5582 24.648 11.6815 24.9381 12.1955 25.2981C12.4543 25.478 13.5061 25.9849 13.9562 26.1429C17.5214 27.41 22.0745 27.9353 26.8626 27.6304C27.3565 27.5974 27.974 27.5459 28.2369 27.5165C28.4998 27.4872 28.9298 27.4394 29.1929 27.4063C30.5591 27.2521 32.503 26.8702 33.8534 26.4919C34.2799 26.3743 35.4551 25.9629 35.5743 25.8932C35.6342 25.8564 35.9368 25.1182 35.9686 24.9234C35.9846 24.8353 36.0207 24.6737 36.0483 24.5636C36.0802 24.4534 36.1042 24.3101 36.1042 24.244C36.1042 24.1375 36.0883 24.1227 35.9411 24.0861C35.654 24.0125 35.0286 23.9024 34.2322 23.7775C34.0247 23.7482 33.7462 23.7041 33.6145 23.682C33.4831 23.6599 33.2241 23.627 33.0369 23.6086C32.8496 23.5902 32.5391 23.5609 32.3399 23.5388C31.129 23.4139 30.0614 23.3404 28.2966 23.2633C26.3328 23.1752 25.5759 23.1568 25.4644 23.1972C25.3926 23.223 25.3489 23.2817 25.313 23.3955C25.1497 23.8988 24.0861 25.4744 23.8631 25.5406C23.8073 25.5552 23.7953 25.5846 23.8112 25.6396C23.879 25.8711 23.9268 26.4992 23.8829 26.602L23.8431 26.7122L23.8391 26.5579C23.8352 26.4734 23.8153 26.3596 23.7953 26.3044L23.7516 26.2016L23.6798 26.3118C23.6399 26.3706 23.5284 26.4845 23.4369 26.5652L23.2655 26.7122L23.3691 26.5652C23.5284 26.3413 23.5961 26.1209 23.5961 25.849V25.5993L23.4209 25.5038C23.158 25.3643 22.7955 25.0116 22.652 24.7656C22.441 24.3983 22.2099 23.7261 22.174 23.3882C22.1542 23.1752 22.1342 23.1311 22.0745 23.1385C22.0466 23.1421 21.4052 23.1568 20.6484 23.1715Z" fill="#6981D7"/>
<path d="M12.0342 25.6046C12.0342 25.6202 12.0895 25.7333 12.1607 25.8541C12.8242 27.0121 13.9894 28.2011 15.372 29.1368C16.8097 30.1077 18.8755 30.9342 20.7241 31.2734C20.9729 31.3201 21.2416 31.3747 21.3166 31.3942C21.3917 31.4137 21.6405 31.4487 21.8696 31.4722C22.0987 31.4916 22.4344 31.5306 22.62 31.5502C23.0546 31.6008 25.2231 31.6008 25.8392 31.5502C26.4002 31.5033 26.8386 31.441 27.0835 31.3747C27.1823 31.3435 27.3323 31.3124 27.4193 31.2968C27.5062 31.2851 27.7195 31.2305 27.8932 31.1836C28.0671 31.133 28.4936 31.0199 28.8412 30.9263C30.1487 30.5872 30.686 30.3961 31.5982 29.9439C32.4201 29.5346 32.8427 29.285 33.2257 28.9848C33.581 28.704 34.1105 28.1778 34.4146 27.8074C34.6871 27.476 35.0783 26.9106 35.0387 26.9106C35.0231 26.9106 34.7424 27.0004 34.4146 27.1095C33.3758 27.4526 32.1946 27.7411 30.903 27.9633C29.7339 28.1622 29.0664 28.248 27.8932 28.3532C24.2 28.6767 20.5622 28.4623 17.3113 27.7294C15.1981 27.2499 13.1205 26.4273 12.1843 25.6943C12.1014 25.6319 12.0342 25.5929 12.0342 25.6046Z" fill="#6981D7"/>
<path d="M24.6915 34.7994C24.6029 34.83 24.2767 34.8873 23.9647 34.9331C23.6527 34.9751 23.3833 35.0248 23.3691 35.0401C23.3513 35.0554 23.3655 35.2044 23.3974 35.3686C23.5393 36.1095 23.6952 37.2293 23.752 37.9359C23.7803 38.2795 23.8122 38.5739 23.8229 38.589C23.83 38.608 23.8548 39.1161 23.876 39.7235C23.9328 41.3357 23.8726 42.6959 23.6988 43.819C23.6456 44.1778 23.6456 44.2162 23.6952 44.2391C23.7626 44.2659 25.1028 44.2736 25.1276 44.2468C25.1382 44.2352 25.124 44.1053 25.0957 43.9602C24.9858 43.4103 24.9397 43.1465 24.8865 42.7913C24.8581 42.5888 24.8263 42.3977 24.8156 42.3674C24.7908 42.3022 24.7163 41.6223 24.6277 40.7132C24.5178 39.5365 24.5497 37.0303 24.6915 36.0906C24.7093 35.9645 24.7411 35.724 24.7589 35.5557C24.7801 35.3877 24.8191 35.1433 24.8439 35.0095C24.8723 34.8797 24.8865 34.765 24.8723 34.7574C24.8617 34.7536 24.7801 34.7689 24.6915 34.7994Z" fill="#6981D7"/>
<path d="M27.8415 46.1288C27.5364 46.2376 27.4968 46.2481 26.7321 46.3671C25.9833 46.4829 25.4879 46.5216 24.6519 46.5182C23.5346 46.5182 22.3103 46.3847 21.0146 46.1288L20.6659 46.0587L20.3807 46.1463C19.6952 46.3601 18.9305 46.7249 18.3916 47.0932C18.0667 47.3139 17.6982 47.6368 17.6982 47.7034C17.6982 47.7279 19.303 47.7385 22.861 47.7385C25.7019 47.7385 28.8083 47.7488 29.7633 47.7628L31.5026 47.7839L31.3639 47.6157C31.1777 47.3879 30.829 47.1107 30.3734 46.8442C29.7711 46.4829 28.5825 46.0164 28.2852 46.0235C28.2021 46.0235 28.004 46.0728 27.8415 46.1288Z" fill="#6981D7"/>
</g>
<defs>
<filter id="filter0_d_2429_5093" x="-8.50013" y="-1.21205" width="67.262" height="67.0061" filterUnits="userSpaceOnUse" color-interpolation-filters="sRGB">
<feFlood flood-opacity="0" result="BackgroundImageFix"/>
<feColorMatrix in="SourceAlpha" type="matrix" values="0 0 0 0 0 0 0 0 0 0 0 0 0 0 0 0 0 0 127 0" result="hardAlpha"/>
<feOffset/>
<feGaussianBlur stdDeviation="4.17096"/>
<feComposite in2="hardAlpha" operator="out"/>
<feColorMatrix type="matrix" values="0 0 0 0 0 0 0 0 0 0 0 0 0 0 0 0 0 0 0.15 0"/>
<feBlend mode="normal" in2="BackgroundImageFix" result="effect1_dropShadow_2429_5093"/>
<feBlend mode="normal" in="SourceGraphic" in2="effect1_dropShadow_2429_5093" result="shape"/>
</filter>
<clipPath id="clip0_2429_5093">
<rect width="178" height="65" fill="white"/>
</clipPath>
</defs>
</svg>
