<svg width="140" height="50" viewBox="0 0 140 50" fill="none" xmlns="http://www.w3.org/2000/svg">
<path d="M44.0635 37.5698V33.0197H44.6806L46.7206 36.5124H46.4635L48.5378 33.0197H49.1035V37.5698H48.5464V33.7217L48.6578 33.7737L46.7206 37.0151H46.4464L44.4921 33.739L44.6206 33.713V37.5698H44.0635Z" fill="#CD5342"/>
<path d="M52.7632 37.6126C52.2947 37.6126 51.8833 37.5146 51.5289 37.318C51.1748 37.1159 50.8975 36.8412 50.6975 36.4946C50.4977 36.1423 50.3975 35.7406 50.3975 35.2899C50.3975 34.8392 50.4918 34.4405 50.6803 34.0939C50.8748 33.7471 51.1375 33.4758 51.4689 33.2791C51.8061 33.0771 52.1833 32.9758 52.6004 32.9758C53.0233 32.9758 53.3975 33.0741 53.7232 33.2705C54.0548 33.4612 54.3147 33.7328 54.5032 34.0852C54.6918 34.4319 54.7861 34.8335 54.7861 35.2899C54.7861 35.3189 54.7834 35.3505 54.7775 35.3853C54.7775 35.4142 54.7775 35.4459 54.7775 35.4805H50.8603V35.0212H54.4518L54.2118 35.2032C54.2118 34.8739 54.1405 34.5822 53.9975 34.3278C53.8603 34.0678 53.6718 33.8658 53.4318 33.7212C53.1918 33.5768 52.9148 33.5045 52.6004 33.5045C52.2917 33.5045 52.0148 33.5768 51.7689 33.7212C51.5233 33.8658 51.3317 34.0678 51.1946 34.3278C51.0575 34.5878 50.9889 34.8855 50.9889 35.2205V35.3159C50.9889 35.6626 51.0634 35.9689 51.2118 36.2346C51.366 36.4946 51.5776 36.6999 51.846 36.8499C52.1204 36.9945 52.4318 37.0666 52.7804 37.0666C53.0546 37.0666 53.3091 37.0176 53.5432 36.9192C53.7832 36.8212 53.9889 36.6709 54.1604 36.4686L54.5032 36.8673C54.3034 37.1099 54.0518 37.2949 53.7489 37.4219C53.4519 37.5493 53.1232 37.6126 52.7632 37.6126Z" fill="#CD5342"/>
<path d="M59.1273 37.2751V33.557H56.9587L56.9073 34.571C56.8958 34.8774 56.8756 35.1778 56.8473 35.4724C56.8242 35.7671 56.7813 36.0387 56.7187 36.2871C56.6614 36.5298 56.5786 36.7291 56.4702 36.8851C56.3614 37.0355 56.2215 37.1221 56.0501 37.1451L55.4415 37.0325C55.6186 37.0384 55.7643 36.9748 55.8787 36.8418C55.9928 36.7031 56.0815 36.5154 56.1444 36.2784C56.2071 36.0417 56.2529 35.7731 56.2816 35.4724C56.3099 35.1663 56.333 34.8543 56.3501 34.5364L56.4101 33.0197H59.7358V37.2751H59.1273ZM55.2529 38.6705V37.0325H60.4387V38.6705H59.8644V37.5698H55.8272V38.6705H55.2529Z" fill="#CD5342"/>
<path d="M61.625 37.5698V33.0197H62.2336V36.6337L65.2422 33.0197H65.7819V37.5698H65.1739V33.9471L62.1736 37.5698H61.625Z" fill="#CD5342"/>
<path d="M67.5254 37.5698V33.0197H68.1341V37.0325H70.8854V33.0197H71.4942V37.5698H67.5254ZM71.6485 38.6705V37.5178L71.8028 37.5698H70.8854V37.0325H72.2231V38.6705H71.6485Z" fill="#CD5342"/>
<path d="M73.3848 37.5697V33.0195H73.9935V36.6336L77.0022 33.0195H77.542V37.5697H76.934V33.9469L73.9338 37.5697H73.3848Z" fill="#CD5342"/>
<path d="M79.2871 37.5698V33.0197H79.8958V35.0304H82.7332V33.0197H83.3419V37.5698H82.7332V35.5591H79.8958V37.5698H79.2871Z" fill="#CD5342"/>
<path d="M86.9563 37.6126C86.5111 37.6126 86.1108 37.5146 85.7567 37.318C85.4075 37.1159 85.1337 36.8412 84.9339 36.4946C84.7333 36.1423 84.6338 35.7406 84.6338 35.2899C84.6338 34.8335 84.7333 34.4319 84.9339 34.0852C85.1337 33.7385 85.4075 33.4671 85.7567 33.2705C86.1108 33.0741 86.5111 32.9758 86.9563 32.9758C87.3396 32.9758 87.6852 33.0511 87.9938 33.2012C88.3025 33.3515 88.545 33.5768 88.722 33.8771L88.2683 34.1892C88.114 33.9582 87.922 33.7878 87.6937 33.6778C87.4648 33.5682 87.2166 33.5132 86.9478 33.5132C86.6278 33.5132 86.3398 33.5884 86.0823 33.7385C85.8249 33.8831 85.6222 34.0882 85.4736 34.3539C85.325 34.6198 85.251 34.9318 85.251 35.2899C85.251 35.6482 85.325 35.9602 85.4736 36.2259C85.6222 36.4918 85.8249 36.6999 86.0823 36.8499C86.3398 36.9945 86.6278 37.0666 86.9478 37.0666C87.2166 37.0666 87.4648 37.0119 87.6937 36.9019C87.922 36.7923 88.114 36.6246 88.2683 36.3992L88.722 36.7112C88.545 37.006 88.3025 37.2313 87.9938 37.3873C87.6852 37.5376 87.3396 37.6126 86.9563 37.6126Z" fill="#CD5342"/>
<path d="M93.2007 37.5698L91.3489 35.3164L91.8546 35.013L93.9204 37.5698H93.2007ZM89.9004 37.5698V33.0197H90.5091V37.5698H89.9004ZM90.3207 35.5417V35.013H91.7692V35.5417H90.3207ZM91.9065 35.3598L91.3404 35.273L93.1317 33.0197H93.7916L91.9065 35.3598Z" fill="#CD5342"/>
<path d="M94.8809 37.5698V33.0197H95.4896V36.6337L98.4983 33.0197H99.0381V37.5698H98.4294V33.9471L95.4291 37.5698H94.8809Z" fill="#CD5342"/>
<path d="M100.782 37.5692V33.0191H101.391V36.6332L104.399 33.0191H104.939V37.5692H104.331V33.9464L101.33 37.5692H100.782ZM102.822 32.3604C102.445 32.3604 102.139 32.265 101.905 32.0743C101.677 31.878 101.557 31.5977 101.545 31.2336H101.982C101.988 31.465 102.068 31.6469 102.222 31.7797C102.377 31.9127 102.576 31.979 102.822 31.979C103.068 31.979 103.268 31.9127 103.422 31.7797C103.582 31.6469 103.665 31.465 103.671 31.2336H104.108C104.102 31.5977 103.982 31.878 103.748 32.0743C103.514 32.265 103.205 32.3604 102.822 32.3604Z" fill="#CD5342"/>
<path d="M108.928 37.5698V33.0197H109.536V37.0325H112.288V33.0197H112.896V37.5698H108.928ZM113.051 38.6705V37.5178L113.205 37.5698H112.288V37.0325H113.625V38.6705H113.051Z" fill="#CD5342"/>
<path d="M116.716 37.6126C116.247 37.6126 115.835 37.5146 115.481 37.318C115.127 37.1159 114.85 36.8412 114.65 36.4946C114.45 36.1423 114.35 35.7406 114.35 35.2899C114.35 34.8392 114.444 34.4405 114.633 34.0939C114.827 33.7471 115.09 33.4758 115.421 33.2791C115.758 33.0771 116.135 32.9758 116.553 32.9758C116.975 32.9758 117.35 33.0741 117.676 33.2705C118.007 33.4612 118.266 33.7328 118.456 34.0852C118.644 34.4319 118.738 34.8335 118.738 35.2899C118.738 35.3189 118.736 35.3505 118.729 35.3853C118.729 35.4142 118.729 35.4459 118.729 35.4805H114.813V35.0212H118.404L118.164 35.2032C118.164 34.8739 118.093 34.5822 117.949 34.3278C117.813 34.0678 117.624 33.8658 117.384 33.7212C117.144 33.5768 116.867 33.5045 116.553 33.5045C116.244 33.5045 115.967 33.5768 115.721 33.7212C115.475 33.8658 115.284 34.0678 115.147 34.3278C115.01 34.5878 114.941 34.8855 114.941 35.2205V35.3159C114.941 35.6626 115.015 35.9689 115.164 36.2346C115.318 36.4946 115.53 36.6999 115.798 36.8499C116.073 36.9945 116.384 37.0666 116.733 37.0666C117.007 37.0666 117.261 37.0176 117.496 36.9192C117.735 36.8212 117.941 36.6709 118.112 36.4686L118.456 36.8673C118.256 37.1099 118.004 37.2949 117.701 37.4219C117.404 37.5493 117.075 37.6126 116.716 37.6126Z" fill="#CD5342"/>
<path d="M120.085 37.5698V33.0197H120.694V35.0304H123.531V33.0197H124.14V37.5698H123.531V35.5591H120.694V37.5698H120.085Z" fill="#CD5342"/>
<path d="M126.727 37.5698V33.3923L126.881 33.557H125.021V33.0197H129.041V33.557H127.181L127.335 33.3923V37.5698H126.727Z" fill="#CD5342"/>
<path d="M132.243 37.6126C131.855 37.6126 131.504 37.5232 131.189 37.344C130.875 37.1593 130.623 36.8962 130.435 36.5553C130.252 36.2085 130.16 35.7869 130.16 35.2899C130.16 34.7931 130.252 34.3741 130.435 34.0332C130.618 33.6865 130.866 33.4238 131.18 33.2445C131.495 33.0655 131.848 32.9758 132.243 32.9758C132.672 32.9758 133.055 33.0741 133.392 33.2705C133.734 33.4612 134.003 33.7328 134.197 34.0852C134.392 34.4319 134.489 34.8335 134.489 35.2899C134.489 35.7522 134.392 36.1566 134.197 36.5033C134.003 36.8499 133.734 37.1216 133.392 37.3179C133.055 37.5146 132.672 37.6126 132.243 37.6126ZM129.92 39.2506V33.0191H130.503V34.3885L130.443 35.2985L130.529 36.2172V39.2506H129.92ZM132.2 37.0666C132.52 37.0666 132.806 36.9945 133.057 36.8499C133.309 36.6999 133.509 36.4918 133.658 36.2259C133.806 35.9545 133.88 35.6425 133.88 35.2899C133.88 34.9375 133.806 34.6285 133.658 34.3625C133.509 34.0968 133.309 33.8888 133.057 33.7385C132.806 33.5884 132.52 33.5132 132.2 33.5132C131.88 33.5132 131.592 33.5884 131.334 33.7385C131.083 33.8888 130.883 34.0968 130.735 34.3625C130.592 34.6285 130.52 34.9375 130.52 35.2899C130.52 35.6425 130.592 35.9545 130.735 36.2259C130.883 36.4918 131.083 36.6999 131.334 36.8499C131.592 36.9945 131.88 37.0666 132.2 37.0666Z" fill="#CD5342"/>
<path d="M43.3496 23.7573V11.6235H45.1667L50.4297 20.4811H49.4525L54.6297 11.6235H56.4469L56.4812 23.7573H54.3554L54.3383 14.969H54.784L50.3954 22.3705H49.4011L44.9439 14.969H45.4582V23.7573H43.3496Z" fill="#6981D7"/>
<path d="M59.2559 23.7573V11.6235H61.4502V21.8505H67.5018V11.6235H69.7134V23.7573H59.2559ZM69.4389 26.4267V23.2025L69.936 23.7573H67.5018V21.8505H71.4962V26.4267H69.4389Z" fill="#6981D7"/>
<path d="M75.5479 23.7573L80.9481 11.6235H83.1426L88.5599 23.7573H86.2282L81.5824 12.8196H82.4742L77.8455 23.7573H75.5479ZM78.0339 20.9492L78.6341 19.1811H85.1138L85.714 20.9492H78.0339Z" fill="#6981D7"/>
<path d="M88.2402 23.7401L88.3433 21.9201C88.423 21.9317 88.4977 21.9432 88.5659 21.9548C88.6349 21.9663 88.6975 21.9721 88.7544 21.9721C89.1092 21.9721 89.383 21.8623 89.5771 21.6428C89.772 21.4232 89.9149 21.1285 90.0059 20.7587C90.1091 20.3774 90.1773 19.9556 90.2115 19.4934C90.2577 19.0196 90.2918 18.5457 90.3146 18.072L90.4689 14.5012H97.8745V23.7575H95.7319V15.7493L96.229 16.3386H91.8748L92.3377 15.7319L92.2175 18.176C92.1834 18.9964 92.1144 19.7591 92.012 20.4641C91.9203 21.1574 91.7717 21.7641 91.5661 22.2841C91.372 22.8042 91.0975 23.2085 90.7434 23.4975C90.4006 23.7864 89.9604 23.9308 89.4235 23.9308C89.2514 23.9308 89.063 23.9135 88.8575 23.8788C88.6633 23.8442 88.4578 23.7979 88.2402 23.7401Z" fill="#6981D7"/>
<path d="M104.755 17.552C105.932 17.552 106.828 17.8177 107.446 18.3493C108.063 18.8809 108.371 19.6321 108.371 20.6028C108.371 21.6081 108.029 22.3939 107.343 22.9601C106.657 23.5148 105.692 23.7864 104.446 23.7748L100.16 23.7575V14.5012H102.303V17.5346L104.755 17.552ZM104.257 22.1801C104.886 22.1917 105.366 22.0587 105.697 21.7814C106.028 21.5041 106.195 21.0996 106.195 20.568C106.195 20.0364 106.028 19.6551 105.697 19.424C105.377 19.1814 104.897 19.0542 104.257 19.0427L102.303 19.0253V22.1628L104.257 22.1801Z" fill="#6981D7"/>
<path d="M109.655 23.7575V14.5012H111.901L115.587 21.0707H114.696L118.57 14.5012H120.576L120.593 23.7575H118.656V16.8239L118.999 17.0493L115.57 22.7868H114.644L111.198 16.8932L111.61 16.7893V23.7575H109.655Z" fill="#6981D7"/>
<path d="M128.421 23.7565V21.8845L128.301 21.4858V18.2097C128.301 17.5741 128.112 17.083 127.735 16.7363C127.358 16.3781 126.787 16.199 126.021 16.199C125.506 16.199 124.998 16.2799 124.495 16.4417C124.003 16.6035 123.586 16.8287 123.243 17.1177L122.403 15.5403C122.895 15.1589 123.478 14.8758 124.152 14.6909C124.838 14.4945 125.547 14.3962 126.278 14.3962C127.603 14.3962 128.626 14.7198 129.346 15.3669C130.078 16.0026 130.443 16.9906 130.443 18.331V23.7565H128.421ZM125.541 23.8779C124.855 23.8779 124.255 23.7623 123.74 23.5312C123.226 23.2886 122.827 22.9592 122.541 22.5432C122.266 22.1156 122.129 21.6361 122.129 21.1045C122.129 20.5845 122.249 20.1165 122.489 19.7004C122.74 19.2844 123.147 18.9551 123.706 18.7124C124.267 18.4697 125.009 18.3484 125.935 18.3484H128.592V19.7871H126.089C125.357 19.7871 124.867 19.9085 124.615 20.1511C124.363 20.3822 124.238 20.6711 124.238 21.0178C124.238 21.4107 124.392 21.7227 124.7 21.9538C125.009 22.1849 125.438 22.3005 125.986 22.3005C126.512 22.3005 126.981 22.1792 127.392 21.9365C127.815 21.6938 128.118 21.3356 128.301 20.8618L128.661 22.1618C128.455 22.7049 128.083 23.1268 127.546 23.4272C127.021 23.7277 126.352 23.8779 125.541 23.8779Z" fill="#6981D7"/>
<path d="M19.0181 44.0702C29.5215 44.0702 38.0362 35.4607 38.0362 24.8404C38.0362 14.2201 29.5215 5.6106 19.0181 5.6106C8.51468 5.6106 0 14.2201 0 24.8404C0 35.4607 8.51468 44.0702 19.0181 44.0702Z" fill="white"/>
<path d="M19.0174 43.3927C29.1509 43.3927 37.3658 35.0864 37.3658 24.84C37.3658 14.5937 29.1509 6.28735 19.0174 6.28735C8.88381 6.28735 0.668945 14.5937 0.668945 24.84C0.668945 35.0864 8.88381 43.3927 19.0174 43.3927Z" stroke="#CD5342" stroke-width="1.3393"/>
<path d="M21.9821 12.8167C21.0074 12.8677 19.9487 13.1975 19.076 13.7223C18.2273 14.2321 17.2045 15.3653 17.0188 15.8964C16.9366 16.1778 16.958 16.151 16.9366 16.3132C16.9137 16.4865 16.9078 16.7601 16.9078 16.7601C16.9078 17.6537 17.0127 18.3734 17.2167 18.8652C17.3756 19.246 17.7865 19.6088 17.8555 19.4289C17.8645 19.4049 17.8914 19.3929 17.9154 19.4019C17.9424 19.414 18.0234 19.3239 18.1643 19.123C18.4223 18.7542 18.7401 18.2234 18.7612 18.1244C18.7731 18.0824 18.8031 17.9955 18.8331 17.9296C18.8631 17.8636 18.9111 17.7346 18.9381 17.6447C18.9651 17.5547 19.001 17.4467 19.016 17.4078C19.073 17.2668 19.1091 16.724 19.073 16.5531C19.0431 16.4092 19.0131 16.3642 18.8451 16.1963C18.6562 16.0044 18.6532 16.0013 18.6532 15.8365C18.6532 15.6775 18.6622 15.6565 18.8331 15.4286C19.193 14.9518 19.7958 14.496 20.3326 14.292C20.6865 14.1571 20.8064 14.1241 21.3522 14.0102C21.5683 13.9652 22.8218 13.9652 23.1366 14.0102C23.4095 14.0522 23.8084 14.1362 24.0513 14.2081C24.1413 14.2351 24.2643 14.2711 24.3213 14.2861C24.4442 14.3191 24.894 14.511 25.164 14.6489C26.0487 15.0928 26.8403 15.8004 27.1762 16.4452C27.4403 16.952 27.5 17.2039 27.5212 17.8546C27.545 18.6403 27.5091 18.8591 27.2391 19.6538C26.8732 20.7304 26.1267 21.738 25.116 22.5146C24.5343 22.9614 24.0513 23.2283 23.4066 23.4532C22.8456 23.6451 20.7914 24.2119 20.1976 24.3348C20.1316 24.3468 19.9757 24.3858 19.8527 24.4188C19.7298 24.4488 19.223 24.5777 18.7282 24.7037C18.2333 24.8297 17.7685 24.9526 17.6935 24.9766C17.6185 25.0006 17.4506 25.0485 17.3187 25.0785C16.7548 25.2105 15.4353 25.6183 14.8895 25.8252C14.5386 25.9601 14.0048 26.203 13.7798 26.332C13.285 26.6139 12.6703 27.1417 12.3104 27.5944C11.5906 28.4912 11.2757 29.3817 11.3147 30.4014C11.3477 31.2318 11.6266 32.0776 12.1155 32.8182C12.3673 33.2022 12.4933 33.352 12.8291 33.6848C13.396 34.2398 13.9868 34.6176 14.6436 34.8364C15.0395 34.9713 15.3213 35.0553 15.5643 35.1122C15.6722 35.1392 15.8282 35.1783 15.9091 35.2024C16.6979 35.4331 17.9034 35.571 18.8331 35.5382C19.7298 35.5051 20.2606 35.4001 21.1873 35.0765C21.6283 34.9234 22.291 34.5456 22.6718 34.2306C23.0827 33.8918 23.5383 33.3609 23.7663 32.9533C24.0722 32.4106 24.2222 31.9726 24.3063 31.3819C24.3631 30.9861 24.3631 30.8302 24.3031 30.4282C24.1892 29.6517 23.9075 29.0759 23.3887 28.557C23.1216 28.2902 22.7289 28.0354 22.3598 27.8883C22.1139 27.7924 21.6133 27.6546 21.6371 27.6906C21.6462 27.7025 21.7901 27.7984 21.958 27.9005C22.6718 28.3352 22.9627 28.626 23.1995 29.1477C23.3074 29.3847 23.3256 29.4419 23.4275 29.8944C23.5024 30.2302 23.5174 30.9231 23.4545 31.2589C23.3436 31.8886 23.0945 32.4046 22.6989 32.8363C22.0151 33.586 21.2502 33.9608 19.8377 34.2306C19.6908 34.2606 19.355 34.2726 18.6982 34.2726C17.7265 34.2726 17.5765 34.2577 16.8568 34.1047C16.6109 34.0537 16.467 34.0147 16.0441 33.8918C15.8341 33.8319 15.3753 33.6699 15.3004 33.631C15.2733 33.616 15.1504 33.553 15.0274 33.4931C14.8235 33.391 14.6286 33.268 14.4246 33.1123C14.2807 33.0012 13.9358 32.6534 13.8099 32.4885C13.6389 32.2665 13.396 31.8377 13.321 31.6278C13.1561 31.1541 13.1501 31.121 13.1501 30.5393C13.1531 29.9935 13.1531 29.9783 13.2521 29.6696C13.405 29.1989 13.612 28.794 13.9238 28.3771C14.1368 28.0863 14.3706 27.8734 14.7545 27.6185C15.6062 27.0547 16.5719 26.7338 17.9784 26.5479C18.2423 26.5149 18.6352 26.443 18.8481 26.389C19.064 26.335 19.3339 26.269 19.4479 26.2421C19.5649 26.215 19.8258 26.1521 20.0327 26.1041C20.2397 26.0561 20.5635 25.9782 20.7525 25.9332C21.2023 25.8282 21.8142 25.6723 22.1171 25.5913C22.2489 25.5553 22.4259 25.5074 22.5069 25.4864C22.9178 25.3784 23.9284 25.0365 24.4113 24.8416C25.7578 24.2959 26.6094 23.7741 27.377 23.0304C27.845 22.5746 28.1509 22.1487 28.4838 21.498C28.8407 20.7963 29.0386 20.2296 29.1974 19.4589C29.2845 19.0481 29.2754 17.8666 29.1856 17.4647C28.8706 16.0433 28.0429 14.9008 26.6873 14.0072C25.6646 13.3385 24.3302 12.9007 23.0498 12.8167C22.7857 12.8017 22.531 12.7897 22.4798 12.7927C22.4289 12.7927 22.2039 12.8047 21.9821 12.8167ZM17.8824 16.3432C17.9934 16.4002 18.0144 16.4271 18.0504 16.5561C18.0804 16.6641 18.0414 16.898 17.9694 17.015C17.8585 17.1949 17.7445 17.2848 17.6306 17.2848C17.5346 17.2848 17.5016 17.2668 17.4326 17.1739C17.3576 17.0749 17.3486 17.0419 17.3486 16.817C17.3486 16.5351 17.3936 16.4392 17.5765 16.3492C17.7025 16.2833 17.7595 16.2833 17.8824 16.3432Z" fill="#6981D7"/>
<path d="M15.6259 17.8244C14.4562 17.847 13.2354 17.895 12.8525 17.9345C12.7108 17.9486 12.4606 17.9684 12.2948 17.9769C11.6979 18.0108 10.6278 18.1521 10.0792 18.2708C9.53953 18.3866 9.08434 18.5758 8.93066 18.7511C8.74677 18.9601 8.84014 19.1833 9.22905 19.4602C9.42496 19.5986 10.2209 19.9885 10.5615 20.1101C13.2595 21.0847 16.7051 21.4888 20.3285 21.2543C20.7023 21.2289 21.1696 21.1893 21.3685 21.1667C21.5675 21.1441 21.8929 21.1074 22.0919 21.0819C23.1258 20.9633 24.5969 20.6695 25.6188 20.3785C25.9416 20.288 26.8309 19.9716 26.9212 19.9179C26.9665 19.8897 27.1955 19.3218 27.2196 19.172C27.2316 19.1042 27.259 18.9799 27.2799 18.8952C27.304 18.8104 27.3222 18.7002 27.3222 18.6493C27.3222 18.5674 27.3101 18.5561 27.1987 18.5279C26.9815 18.4713 26.5082 18.3866 25.9055 18.2905C25.7485 18.2679 25.5377 18.234 25.4381 18.217C25.3386 18.2001 25.1426 18.1747 25.0009 18.1606C24.8592 18.1464 24.6242 18.1239 24.4735 18.1069C23.5571 18.0108 22.7492 17.9543 21.4137 17.895C19.9276 17.8272 19.3548 17.813 19.2704 17.8441C19.2161 17.8639 19.183 17.9092 19.1559 17.9967C19.0323 18.3838 18.2274 19.5958 18.0586 19.6467C18.0164 19.658 18.0073 19.6806 18.0194 19.7229C18.0706 19.901 18.1068 20.3841 18.0736 20.4632L18.0435 20.5479L18.0405 20.4293C18.0375 20.3643 18.0224 20.2767 18.0073 20.2343L17.9742 20.1552L17.9199 20.24C17.8897 20.2852 17.8053 20.3728 17.736 20.4349L17.6064 20.5479L17.6848 20.4349C17.8053 20.2626 17.8566 20.0931 17.8566 19.884V19.6919L17.724 19.6184C17.525 19.5111 17.2507 19.2398 17.1421 19.0505C16.9824 18.768 16.8075 18.251 16.7804 17.991C16.7654 17.8272 16.7503 17.7932 16.7051 17.7989C16.6839 17.8017 16.1986 17.813 15.6259 17.8244Z" fill="#6981D7"/>
<path d="M9.10742 19.6954C9.10742 19.7074 9.14931 19.7944 9.20314 19.8873C9.70526 20.7781 10.5871 21.6928 11.6333 22.4125C12.7213 23.1593 14.2847 23.7951 15.6836 24.056C15.8719 24.092 16.0752 24.134 16.1319 24.1489C16.1888 24.164 16.3771 24.1909 16.5504 24.209C16.7238 24.2239 16.9779 24.2539 17.1183 24.2689C17.4472 24.3079 19.0882 24.3079 19.5545 24.2689C19.979 24.2329 20.3108 24.185 20.4961 24.134C20.5708 24.11 20.6844 24.086 20.7502 24.074C20.816 24.065 20.9774 24.023 21.1089 23.987C21.2404 23.948 21.5632 23.861 21.8262 23.7891C22.8157 23.5282 23.2223 23.3812 23.9126 23.0333C24.5346 22.7185 24.8544 22.5265 25.1443 22.2956C25.4131 22.0796 25.8139 21.6748 26.044 21.3899C26.2502 21.1349 26.5462 20.7001 26.5162 20.7001C26.5044 20.7001 26.292 20.7691 26.044 20.8531C25.2578 21.117 24.364 21.3389 23.3865 21.5099C22.5018 21.6628 21.9966 21.7288 21.1089 21.8098C18.314 22.0586 15.5611 21.8937 13.1009 21.3299C11.5018 20.961 9.92948 20.3283 9.22106 19.7645C9.15827 19.7164 9.10742 19.6864 9.10742 19.6954Z" fill="#6981D7"/>
<path d="M18.6853 26.7691C18.6183 26.7926 18.3714 26.8366 18.1353 26.872C17.8992 26.9042 17.6953 26.9425 17.6846 26.9542C17.6711 26.966 17.6819 27.0806 17.706 27.207C17.8134 27.7769 17.9314 28.6382 17.9744 29.1818C17.9958 29.4461 18.0199 29.6725 18.028 29.6842C18.0334 29.6988 18.0522 30.0896 18.0682 30.5568C18.1112 31.797 18.0656 32.8433 17.9341 33.7073C17.8939 33.9832 17.8939 34.0128 17.9314 34.0304C17.9824 34.051 18.9966 34.0569 19.0154 34.0363C19.0234 34.0274 19.0127 33.9274 18.9912 33.8158C18.9081 33.3928 18.8731 33.1899 18.8329 32.9167C18.8114 32.7609 18.7873 32.6139 18.7793 32.5906C18.7605 32.5405 18.7041 32.0175 18.637 31.3181C18.5538 30.413 18.578 28.4851 18.6853 27.7623C18.6988 27.6653 18.7229 27.4803 18.7363 27.3508C18.7524 27.2216 18.7819 27.0336 18.8007 26.9307C18.8222 26.8308 18.8329 26.7426 18.8222 26.7368C18.8141 26.7338 18.7524 26.7456 18.6853 26.7691Z" fill="#6981D7"/>
<path d="M21.0695 35.4843C20.8386 35.568 20.8087 35.5762 20.23 35.6677C19.6633 35.7568 19.2885 35.7866 18.6558 35.7839C17.8103 35.7839 16.8837 35.6812 15.9032 35.4843L15.6393 35.4304L15.4235 35.4979C14.9048 35.6623 14.326 35.9429 13.9183 36.2262C13.6724 36.396 13.3936 36.6444 13.3936 36.6956C13.3936 36.7145 14.6079 36.7226 17.3005 36.7226C19.4504 36.7226 21.8011 36.7305 22.5239 36.7413L23.8401 36.7575L23.7351 36.6281C23.5942 36.4529 23.3303 36.2397 22.9856 36.0347C22.5298 35.7568 21.6303 35.3979 21.4053 35.4034C21.3424 35.4034 21.1925 35.4413 21.0695 35.4843Z" fill="#6981D7"/>
</svg>
