<svg width="38" height="38" viewBox="0 0 38 38" fill="none" xmlns="http://www.w3.org/2000/svg">
<path d="M10.1063 24.4489H4.77659C4.27322 24.4489 3.85099 24.2745 3.50988 23.9257C3.16878 23.577 2.99882 23.1459 3.00001 22.6324V15.3667C3.00001 14.8521 3.17056 14.4204 3.51166 14.0716C3.85277 13.7229 4.27441 13.5491 4.77659 13.5503H10.1063L15.969 7.55608C16.5316 6.98088 17.1759 6.85191 17.902 7.16918C18.628 7.48645 18.9904 8.05439 18.9892 8.87299V29.1262C18.9892 29.9436 18.6262 30.5115 17.9002 30.83C17.1742 31.1485 16.5304 31.0195 15.969 30.4431L10.1063 24.4489Z" fill="#6981D7"/>
<path d="M23.1982 24.1382L23.1909 24.13L23.2628 24.0491L23.264 24.0473L23.2651 24.046L23.8398 23.3983L23.8501 23.41C23.8585 23.4001 23.8643 23.3884 23.8727 23.379C26.2655 20.6839 26.2789 16.3127 23.9182 13.5952L23.9132 13.6008L23.2643 12.8704L23.272 12.8618C23.1341 12.6677 23.0635 12.4237 23.0734 12.1753C23.0833 11.9269 23.1731 11.6911 23.3259 11.5117L23.3244 11.51L24.4783 10.2107L24.486 10.2193C24.6469 10.0766 24.8459 9.9993 25.0508 10C25.2556 10.0007 25.4542 10.0793 25.6143 10.2232L25.6216 10.215L25.6946 10.2972L26.2227 10.892L26.2705 10.9458L26.2693 10.9471C29.9255 15.1241 29.9105 21.8708 26.2223 26.0249C26.2139 26.0344 26.2036 26.0409 26.1948 26.0503L26.1971 26.0529L25.5482 26.7842L25.5405 26.7756C25.3681 26.9307 25.1515 27.0101 24.9311 26.999C24.7106 26.9878 24.5012 26.8868 24.3418 26.7148L24.3407 26.7161L24.3296 26.7036L24.3277 26.7019L24.3262 26.6998L23.2651 25.5047L23.264 25.5038L23.2632 25.503L23.1871 25.4173L23.1948 25.4087C23.068 25.2275 22.9994 25.0034 23 24.7728C23.0006 24.5421 23.0705 24.3185 23.1982 24.1382Z" fill="#6981D7"/>
<path d="M27.2275 28.3504L27.2192 28.3429L27.3026 28.2671L27.303 28.2667L27.3035 28.2663L27.9646 27.6665L27.9765 27.6773C27.9862 27.6681 27.9927 27.6574 28.0024 27.6482C33.5641 22.599 33.5808 14.3954 28.0555 9.32592L28.0485 9.3323L27.3882 8.73289L27.3869 8.73209L27.386 8.7309L27.3035 8.65597L27.3118 8.6484C27.1533 8.46872 27.0722 8.24286 27.0836 8.0129C27.095 7.78295 27.1981 7.5646 27.3737 7.39856L27.3719 7.39697L28.0015 6.82546L28.002 6.82506L28.0024 6.82466L28.6965 6.19456L28.7053 6.20293C28.8901 6.07086 29.1186 5.99935 29.3538 6C29.589 6.00066 29.817 6.07343 30.0009 6.20652L30.0097 6.19855L30.7543 6.87488L30.753 6.87607C37.7662 13.2966 37.7495 23.6982 30.6999 30.0972C30.6898 30.1064 30.6779 30.112 30.6678 30.1208L30.6709 30.1236L29.9258 30.8003L29.917 30.7923C29.719 30.936 29.4702 31.0094 29.2169 30.999C28.9636 30.9886 28.7232 30.895 28.5402 30.7357L28.5389 30.7369L28.5244 30.7238L27.3048 29.6162L27.3026 29.6146L27.3008 29.6126L27.2148 29.5345L27.2235 29.5265C27.0781 29.3588 26.9993 29.1513 27 28.9379C27.0007 28.7244 27.0809 28.5174 27.2275 28.3504Z" fill="#6981D7"/>
</svg>
