<svg width="38" height="38" viewBox="0 0 38 38" fill="none" xmlns="http://www.w3.org/2000/svg">
<path d="M30 9.91667V29.0833C30 29.5917 29.7989 30.0792 29.4408 30.4386C29.0828 30.7981 28.5972 31 28.0909 31H23.3182C22.8119 31 22.3263 30.7981 21.9683 30.4386C21.6102 30.0792 21.4091 29.5917 21.4091 29.0833V9.91667C21.4091 9.40834 21.6102 8.92082 21.9683 8.56138C22.3263 8.20193 22.8119 8 23.3182 8H28.0909C28.5972 8 29.0828 8.20193 29.4408 8.56138C29.7989 8.92082 30 9.40834 30 9.91667ZM15.6818 8H10.9091C10.4028 8 9.91718 8.20193 9.55916 8.56138C9.20114 8.92082 9 9.40834 9 9.91667V29.0833C9 29.5917 9.20114 30.0792 9.55916 30.4386C9.91718 30.7981 10.4028 31 10.9091 31H15.6818C16.1881 31 16.6737 30.7981 17.0317 30.4386C17.3898 30.0792 17.5909 29.5917 17.5909 29.0833V9.91667C17.5909 9.40834 17.3898 8.92082 17.0317 8.56138C16.6737 8.20193 16.1881 8 15.6818 8Z" fill="#6981D7"/>
</svg>
