<svg width="24" height="24" viewBox="0 0 24 24" fill="none" xmlns="http://www.w3.org/2000/svg">
<path d="M7.74879 21.4323C7.60709 21.6831 7.42995 21.8444 7.21739 21.916C7.02254 22.0056 6.8277 22.0235 6.63285 21.9698C6.438 21.9339 6.26973 21.8354 6.12802 21.6742C6.00403 21.5308 5.93317 21.3517 5.91546 21.1367C5.89775 20.9217 5.95089 20.6888 6.07488 20.438L16.2246 2.59456C16.3663 2.34375 16.5346 2.17355 16.7295 2.08398C16.9243 1.9944 17.1192 1.97649 17.314 2.03023C17.5089 2.06606 17.6683 2.1646 17.7923 2.32583C17.934 2.46915 18.0225 2.6483 18.058 2.86329C18.0934 3.07827 18.0403 3.31116 17.8986 3.56198L7.74879 21.4323ZM5.57005 13.8542C4.13527 13.8542 3.01047 13.3436 2.19565 12.3225C1.39855 11.3013 1 9.87706 1 8.04971C1 6.83149 1.17713 5.79241 1.5314 4.93248C1.90338 4.07256 2.42593 3.41865 3.09903 2.97078C3.78985 2.50498 4.61353 2.27209 5.57005 2.27209C6.98712 2.27209 8.10306 2.78267 8.91787 3.80383C9.73269 4.82499 10.1401 6.24029 10.1401 8.04971C10.1401 9.26794 9.95411 10.316 9.58213 11.1938C9.22786 12.0537 8.70531 12.7166 8.01449 13.1824C7.34138 13.6303 6.52657 13.8542 5.57005 13.8542ZM5.57005 12.1075C6.10145 12.1075 6.55314 11.9642 6.92512 11.6775C7.2971 11.373 7.58052 10.9251 7.77536 10.3339C7.97021 9.72478 8.06763 8.96339 8.06763 8.04971C8.06763 6.70608 7.84622 5.70283 7.40338 5.03997C6.96055 4.3592 6.34944 4.01881 5.57005 4.01881C5.05636 4.01881 4.60467 4.17109 4.21498 4.47565C3.843 4.76229 3.55072 5.21017 3.33816 5.81928C3.14332 6.41048 3.04589 7.15396 3.04589 8.04971C3.04589 9.41126 3.26731 10.4324 3.71014 11.1132C4.17069 11.7761 4.79066 12.1075 5.57005 12.1075ZM18.43 21.701C16.9952 21.701 15.8704 21.1905 15.0556 20.1693C14.2585 19.1481 13.8599 17.7239 13.8599 15.8965C13.8599 14.6783 14.037 13.6392 14.3913 12.7793C14.7633 11.9194 15.2858 11.2655 15.9589 10.8176C16.6498 10.3518 17.4734 10.1189 18.43 10.1189C19.847 10.1189 20.963 10.6295 21.7778 11.6507C22.5926 12.6718 23 14.0871 23 15.8965C23 17.1148 22.814 18.1628 22.442 19.0406C22.0878 19.9006 21.5652 20.5634 20.8744 21.0292C20.2013 21.4771 19.3865 21.701 18.43 21.701ZM18.43 19.9543C18.9614 19.9543 19.413 19.811 19.785 19.5244C20.157 19.2198 20.4404 18.7719 20.6353 18.1807C20.8301 17.5716 20.9275 16.8102 20.9275 15.8965C20.9275 14.5529 20.7061 13.5497 20.2633 12.8868C19.8204 12.206 19.2093 11.8656 18.43 11.8656C17.9163 11.8656 17.4646 12.0179 17.0749 12.3225C16.7029 12.6091 16.4106 13.057 16.1981 13.6661C16.0032 14.2573 15.9058 15.0008 15.9058 15.8965C15.9058 17.2581 16.1272 18.2793 16.57 18.96C17.0306 19.6229 17.6506 19.9543 18.43 19.9543Z" fill="#6981D7"/>
</svg>
