<svg width="24" height="24" viewBox="0 0 24 24" fill="none" xmlns="http://www.w3.org/2000/svg">
<g clip-path="url(#clip0_738_36899)">
<g clip-path="url(#clip1_738_36899)">
<path d="M18.581 2.14L12.316 0.0509967C12.1109 -0.0173244 11.8891 -0.0173244 11.684 0.0509967L5.419 2.14C4.42291 2.47088 3.55642 3.10725 2.94265 3.95871C2.32887 4.81016 1.99904 5.83338 2 6.883L2 12C2 19.563 11.2 23.74 11.594 23.914C11.7218 23.9708 11.8601 24.0001 12 24.0001C12.1399 24.0001 12.2782 23.9708 12.406 23.914C12.8 23.74 22 19.563 22 12V6.883C22.001 5.83338 21.6711 4.81016 21.0574 3.95871C20.4436 3.10725 19.5771 2.47088 18.581 2.14ZM20 12C20 17.455 13.681 21.033 12 21.889C10.317 21.036 4 17.469 4 12L4 6.883C4.00006 6.25327 4.19828 5.63954 4.56657 5.12874C4.93486 4.61794 5.45455 4.23599 6.052 4.037L12 2.054L17.948 4.037C18.5455 4.23599 19.0651 4.61794 19.4334 5.12874C19.8017 5.63954 19.9999 6.25327 20 6.883V12Z" fill="white"/>
<path d="M15.2988 8.29995L11.1108 12.5L8.86682 10.16C8.77676 10.0615 8.66791 9.98205 8.54668 9.9263C8.42544 9.87055 8.29428 9.83963 8.16091 9.83536C8.02755 9.83109 7.89467 9.85356 7.77012 9.90143C7.64557 9.94931 7.53186 10.0216 7.43569 10.1141C7.33952 10.2066 7.26283 10.3174 7.21015 10.44C7.15747 10.5626 7.12985 10.6945 7.12893 10.828C7.12801 10.9614 7.1538 11.0937 7.20479 11.217C7.25578 11.3403 7.33093 11.4521 7.42582 11.546L9.73182 13.946C9.90379 14.1317 10.1117 14.2806 10.3428 14.3838C10.574 14.4869 10.8237 14.5421 11.0768 14.546H11.1098C11.3579 14.5468 11.6036 14.4983 11.8328 14.4034C12.062 14.3084 12.27 14.1689 12.4448 13.993L16.7168 9.72095C16.8101 9.62785 16.8842 9.51727 16.9347 9.39555C16.9853 9.27382 17.0114 9.14333 17.0116 9.01151C17.0117 8.8797 16.9859 8.74915 16.9356 8.62732C16.8852 8.50549 16.8114 8.39476 16.7183 8.30145C16.6252 8.20815 16.5146 8.1341 16.3929 8.08353C16.2712 8.03295 16.1407 8.00685 16.0089 8.00671C15.8771 8.00658 15.7465 8.0324 15.6247 8.08271C15.5028 8.13303 15.3921 8.20685 15.2988 8.29995Z" fill="white"/>
</g>
</g>
<defs>
<clipPath id="clip0_738_36899">
<rect width="24" height="24" fill="white"/>
</clipPath>
<clipPath id="clip1_738_36899">
<rect width="24" height="24" fill="white"/>
</clipPath>
</defs>
</svg>
