<svg width="298" height="31" viewBox="0 0 298 31" fill="none" xmlns="http://www.w3.org/2000/svg">
<path d="M1.45898 23V10.2031H5.61621C7.00488 10.2031 8.06836 10.5576 8.80664 11.2666C9.54492 11.9697 9.91406 12.9043 9.91406 14.0703C9.91406 15.2305 9.54492 16.1709 8.80664 16.8916C8.06836 17.6064 7.00488 17.9639 5.61621 17.9639H3.08496V23H1.45898ZM3.08496 16.6191H5.61621C6.60645 16.6191 7.30078 16.373 7.69922 15.8809C8.09766 15.3828 8.29688 14.7793 8.29688 14.0703C8.29688 13.3555 8.09766 12.7578 7.69922 12.2773C7.30078 11.791 6.60645 11.5479 5.61621 11.5479H3.08496V16.6191ZM11.1182 20.3193C11.1182 19.3936 11.4844 18.6729 12.2168 18.1572C12.9492 17.6416 13.8838 17.3838 15.0205 17.3838H17.0947V16.7334C17.0947 16.1768 16.9512 15.7285 16.6641 15.3887C16.377 15.043 15.8848 14.8701 15.1875 14.8701C14.4902 14.8701 13.9863 15.0137 13.6758 15.3008C13.3711 15.582 13.2188 15.9189 13.2188 16.3115V16.3643H11.6543V16.3027C11.6543 15.5762 11.9736 14.9463 12.6123 14.4131C13.2568 13.874 14.127 13.6045 15.2227 13.6045C16.3184 13.6045 17.165 13.8652 17.7627 14.3867C18.3662 14.9082 18.668 15.6904 18.668 16.7334V20.8906C18.668 21.2715 18.6973 21.6318 18.7559 21.9717C18.8145 22.3057 18.8965 22.6016 19.002 22.8594V23H17.4814C17.3994 22.8535 17.3232 22.6631 17.2529 22.4287C17.1885 22.1943 17.1475 21.96 17.1299 21.7256C16.9189 22.1064 16.5732 22.4434 16.0928 22.7363C15.6123 23.0234 14.9941 23.167 14.2383 23.167C13.3652 23.167 12.627 22.9238 12.0234 22.4375C11.4199 21.9453 11.1182 21.2393 11.1182 20.3193ZM12.6914 20.2314C12.6914 20.7588 12.8438 21.1719 13.1484 21.4707C13.459 21.7637 13.9336 21.9102 14.5723 21.9102C15.2109 21.9102 15.791 21.6904 16.3125 21.251C16.834 20.8057 17.0947 20.3311 17.0947 19.8271V18.5088H15.1963C14.3701 18.5088 13.7461 18.6641 13.3242 18.9746C12.9023 19.2852 12.6914 19.7041 12.6914 20.2314ZM24.5127 23.2549C23.1885 23.2549 22.21 22.9297 21.5771 22.2793C20.9502 21.6289 20.6367 20.8906 20.6367 20.0645V20.0117H22.1572V20.0645C22.1572 20.5566 22.333 20.9961 22.6846 21.3828C23.042 21.7695 23.6543 21.9629 24.5215 21.9629C25.2363 21.9629 25.793 21.8193 26.1914 21.5322C26.5898 21.2393 26.7891 20.835 26.7891 20.3193C26.7891 19.9092 26.6484 19.5811 26.3672 19.335C26.0918 19.0889 25.6523 18.9658 25.0488 18.9658H23.458V17.7354H24.7939C25.3975 17.7354 25.8311 17.6152 26.0947 17.375C26.3643 17.1289 26.499 16.7979 26.499 16.3818C26.499 15.9072 26.332 15.541 25.998 15.2832C25.6699 15.0254 25.21 14.8965 24.6182 14.8965C23.8682 14.8965 23.2998 15.0752 22.9131 15.4326C22.5322 15.7842 22.3418 16.2354 22.3418 16.7861V16.8389H20.8213V16.7861C20.8213 15.8252 21.1523 15.0547 21.8145 14.4746C22.4766 13.8945 23.4111 13.6045 24.6182 13.6045C25.7549 13.6045 26.6162 13.8447 27.2021 14.3252C27.7939 14.7998 28.0898 15.4443 28.0898 16.2588C28.0898 16.7334 27.9316 17.1611 27.6152 17.542C27.3047 17.9229 26.8857 18.166 26.3584 18.2715V18.2979C26.9854 18.3916 27.4775 18.6143 27.835 18.9658C28.1924 19.3174 28.3711 19.7715 28.3711 20.3281C28.3711 21.2715 28.0049 21.9951 27.2725 22.499C26.54 23.0029 25.6201 23.2549 24.5127 23.2549ZM30.5947 26.6826V13.8594H32.0186L32.0889 15.0635H32.1328C32.3672 14.6826 32.7246 14.3574 33.2051 14.0879C33.6914 13.8184 34.2539 13.6836 34.8926 13.6836C36.0469 13.6836 36.9697 14.1172 37.6611 14.9844C38.3525 15.8457 38.6982 16.9473 38.6982 18.2891V18.5703C38.6982 19.9062 38.3525 21.0078 37.6611 21.875C36.9697 22.7422 36.0469 23.1758 34.8926 23.1758C34.2539 23.1758 33.7061 23.0615 33.249 22.833C32.7979 22.5986 32.4375 22.291 32.168 21.9102V26.6826H30.5947ZM32.168 20.3018C32.3496 20.7119 32.6455 21.0781 33.0557 21.4004C33.4658 21.7227 33.9639 21.8838 34.5498 21.8838C35.4229 21.8838 36.0645 21.5674 36.4746 20.9346C36.8848 20.2959 37.0898 19.5078 37.0898 18.5703V18.2891C37.0898 17.3516 36.8848 16.5664 36.4746 15.9336C36.0645 15.3008 35.4229 14.9844 34.5498 14.9844C33.9639 14.9844 33.4658 15.1455 33.0557 15.4678C32.6455 15.7842 32.3496 16.1475 32.168 16.5576V20.3018ZM40.1924 20.3193C40.1924 19.3936 40.5586 18.6729 41.291 18.1572C42.0234 17.6416 42.958 17.3838 44.0947 17.3838H46.1689V16.7334C46.1689 16.1768 46.0254 15.7285 45.7383 15.3887C45.4512 15.043 44.959 14.8701 44.2617 14.8701C43.5645 14.8701 43.0605 15.0137 42.75 15.3008C42.4453 15.582 42.293 15.9189 42.293 16.3115V16.3643H40.7285V16.3027C40.7285 15.5762 41.0479 14.9463 41.6865 14.4131C42.3311 13.874 43.2012 13.6045 44.2969 13.6045C45.3926 13.6045 46.2393 13.8652 46.8369 14.3867C47.4404 14.9082 47.7422 15.6904 47.7422 16.7334V20.8906C47.7422 21.2715 47.7715 21.6318 47.8301 21.9717C47.8887 22.3057 47.9707 22.6016 48.0762 22.8594V23H46.5557C46.4736 22.8535 46.3975 22.6631 46.3271 22.4287C46.2627 22.1943 46.2217 21.96 46.2041 21.7256C45.9932 22.1064 45.6475 22.4434 45.167 22.7363C44.6865 23.0234 44.0684 23.167 43.3125 23.167C42.4395 23.167 41.7012 22.9238 41.0977 22.4375C40.4941 21.9453 40.1924 21.2393 40.1924 20.3193ZM41.7656 20.2314C41.7656 20.7588 41.918 21.1719 42.2227 21.4707C42.5332 21.7637 43.0078 21.9102 43.6465 21.9102C44.2852 21.9102 44.8652 21.6904 45.3867 21.251C45.9082 20.8057 46.1689 20.3311 46.1689 19.8271V18.5088H44.2705C43.4443 18.5088 42.8203 18.6641 42.3984 18.9746C41.9766 19.2852 41.7656 19.7041 41.7656 20.2314ZM51.3809 18.4473V18.7285C51.3809 19.6426 51.6064 20.4102 52.0576 21.0312C52.5088 21.6523 53.1797 21.9629 54.0703 21.9629C54.9551 21.9629 55.623 21.6523 56.0742 21.0312C56.5254 20.4102 56.751 19.6426 56.751 18.7285V18.4473C56.751 17.5391 56.5254 16.7744 56.0742 16.1533C55.623 15.5322 54.9521 15.2217 54.0615 15.2217C53.1768 15.2217 52.5088 15.5322 52.0576 16.1533C51.6064 16.7744 51.3809 17.5391 51.3809 18.4473ZM54.4482 13.9297C55.6553 13.9297 56.6074 14.3604 57.3047 15.2217C58.0078 16.0771 58.3594 17.1523 58.3594 18.4473V18.7285C58.3594 20.0645 57.9697 21.1543 57.1904 21.998C56.4111 22.8359 55.3711 23.2549 54.0703 23.2549C52.7227 23.2549 51.6709 22.833 50.915 21.9893C50.1592 21.1455 49.7812 19.7334 49.7812 17.7529V17.4893C49.7812 15.3564 50.127 13.707 50.8184 12.541C51.5156 11.3691 52.8193 10.6396 54.7295 10.3525C55.7139 10.2061 56.2852 10.0771 56.4434 9.96582C56.6074 9.84863 56.7041 9.71387 56.7334 9.56152H58.1133C58.0547 10.165 57.8115 10.6426 57.3838 10.9941C56.9619 11.3457 56.1387 11.6035 54.9141 11.7676C53.4316 11.9668 52.4297 12.4326 51.9082 13.165C51.3926 13.8916 51.085 14.8438 50.9854 16.0215H51.082C51.3809 15.3711 51.8174 14.8613 52.3916 14.4922C52.9717 14.1172 53.6572 13.9297 54.4482 13.9297ZM59.8008 18.5703V18.2891C59.8008 16.9121 60.1904 15.7871 60.9697 14.9141C61.749 14.041 62.792 13.6045 64.0986 13.6045C65.3994 13.6045 66.4395 14.041 67.2188 14.9141C67.998 15.7871 68.3877 16.9121 68.3877 18.2891V18.5703C68.3877 19.9473 67.998 21.0723 67.2188 21.9453C66.4395 22.8184 65.3994 23.2549 64.0986 23.2549C62.792 23.2549 61.749 22.8184 60.9697 21.9453C60.1904 21.0723 59.8008 19.9473 59.8008 18.5703ZM61.4092 18.2891V18.5703C61.4092 19.5254 61.6348 20.3311 62.0859 20.9873C62.5371 21.6377 63.2051 21.9629 64.0898 21.9629C64.9805 21.9629 65.6514 21.6377 66.1025 20.9873C66.5537 20.3311 66.7793 19.5254 66.7793 18.5703V18.2891C66.7793 17.334 66.5537 16.5312 66.1025 15.8809C65.6514 15.2246 64.9805 14.8965 64.0898 14.8965C63.2051 14.8965 62.5371 15.2246 62.0859 15.8809C61.6348 16.5312 61.4092 17.334 61.4092 18.2891ZM69.3809 15.0986V13.8594H76.7109V15.0986H73.8369V23H72.2637V15.0986H69.3809ZM77.7393 20.3193C77.7393 19.3936 78.1055 18.6729 78.8379 18.1572C79.5703 17.6416 80.5049 17.3838 81.6416 17.3838H83.7158V16.7334C83.7158 16.1768 83.5723 15.7285 83.2852 15.3887C82.998 15.043 82.5059 14.8701 81.8086 14.8701C81.1113 14.8701 80.6074 15.0137 80.2969 15.3008C79.9922 15.582 79.8398 15.9189 79.8398 16.3115V16.3643H78.2754V16.3027C78.2754 15.5762 78.5947 14.9463 79.2334 14.4131C79.8779 13.874 80.748 13.6045 81.8438 13.6045C82.9395 13.6045 83.7861 13.8652 84.3838 14.3867C84.9873 14.9082 85.2891 15.6904 85.2891 16.7334V20.8906C85.2891 21.2715 85.3184 21.6318 85.377 21.9717C85.4355 22.3057 85.5176 22.6016 85.623 22.8594V23H84.1025C84.0205 22.8535 83.9443 22.6631 83.874 22.4287C83.8096 22.1943 83.7686 21.96 83.751 21.7256C83.54 22.1064 83.1943 22.4434 82.7139 22.7363C82.2334 23.0234 81.6152 23.167 80.8594 23.167C79.9863 23.167 79.248 22.9238 78.6445 22.4375C78.041 21.9453 77.7393 21.2393 77.7393 20.3193ZM79.3125 20.2314C79.3125 20.7588 79.4648 21.1719 79.7695 21.4707C80.0801 21.7637 80.5547 21.9102 81.1934 21.9102C81.832 21.9102 82.4121 21.6904 82.9336 21.251C83.4551 20.8057 83.7158 20.3311 83.7158 19.8271V18.5088H81.8174C80.9912 18.5088 80.3672 18.6641 79.9453 18.9746C79.5234 19.2852 79.3125 19.7041 79.3125 20.2314ZM87.7939 13.8594H89.3672V17.7178H93.4893V13.8594H95.0625V23H93.4893V18.9482H89.3672V23H87.7939V13.8594ZM97.0664 18.5703V18.2891C97.0664 16.9121 97.4561 15.7871 98.2354 14.9141C99.0146 14.041 100.058 13.6045 101.364 13.6045C102.665 13.6045 103.705 14.041 104.484 14.9141C105.264 15.7871 105.653 16.9121 105.653 18.2891V18.5703C105.653 19.9473 105.264 21.0723 104.484 21.9453C103.705 22.8184 102.665 23.2549 101.364 23.2549C100.058 23.2549 99.0146 22.8184 98.2354 21.9453C97.4561 21.0723 97.0664 19.9473 97.0664 18.5703ZM98.6748 18.2891V18.5703C98.6748 19.5254 98.9004 20.3311 99.3516 20.9873C99.8027 21.6377 100.471 21.9629 101.355 21.9629C102.246 21.9629 102.917 21.6377 103.368 20.9873C103.819 20.3311 104.045 19.5254 104.045 18.5703V18.2891C104.045 17.334 103.819 16.5312 103.368 15.8809C102.917 15.2246 102.246 14.8965 101.355 14.8965C100.471 14.8965 99.8027 15.2246 99.3516 15.8809C98.9004 16.5312 98.6748 17.334 98.6748 18.2891Z" fill="#898E9F"/>
<path d="M156.494 21V8.4H161.948C163.076 8.4 164.048 8.586 164.864 8.958C165.68 9.318 166.31 9.84 166.754 10.524C167.198 11.208 167.42 12.024 167.42 12.972C167.42 13.908 167.198 14.718 166.754 15.402C166.31 16.074 165.68 16.59 164.864 16.95C164.048 17.31 163.076 17.49 161.948 17.49H158.114L159.41 16.212V21H156.494ZM164.504 21L161.354 16.428H164.468L167.654 21H164.504ZM159.41 16.536L158.114 15.168H161.786C162.686 15.168 163.358 14.976 163.802 14.592C164.246 14.196 164.468 13.656 164.468 12.972C164.468 12.276 164.246 11.736 163.802 11.352C163.358 10.968 162.686 10.776 161.786 10.776H158.114L159.41 9.39V16.536ZM174.338 21.144C173.234 21.144 172.262 20.928 171.422 20.496C170.594 20.064 169.952 19.476 169.496 18.732C169.04 17.976 168.812 17.118 168.812 16.158C168.812 15.186 169.034 14.328 169.478 13.584C169.934 12.828 170.552 12.24 171.332 11.82C172.112 11.388 172.994 11.172 173.978 11.172C174.926 11.172 175.778 11.376 176.534 11.784C177.302 12.18 177.908 12.756 178.352 13.512C178.796 14.256 179.018 15.15 179.018 16.194C179.018 16.302 179.012 16.428 179 16.572C178.988 16.704 178.976 16.83 178.964 16.95H171.098V15.312H177.488L176.408 15.798C176.408 15.294 176.306 14.856 176.102 14.484C175.898 14.112 175.616 13.824 175.256 13.62C174.896 13.404 174.476 13.296 173.996 13.296C173.516 13.296 173.09 13.404 172.718 13.62C172.358 13.824 172.076 14.118 171.872 14.502C171.668 14.874 171.566 15.318 171.566 15.834V16.266C171.566 16.794 171.68 17.262 171.908 17.67C172.148 18.066 172.478 18.372 172.898 18.588C173.33 18.792 173.834 18.894 174.41 18.894C174.926 18.894 175.376 18.816 175.76 18.66C176.156 18.504 176.516 18.27 176.84 17.958L178.334 19.578C177.89 20.082 177.332 20.472 176.66 20.748C175.988 21.012 175.214 21.144 174.338 21.144ZM185.01 21.144C184.098 21.144 183.276 20.94 182.544 20.532C181.812 20.124 181.23 19.548 180.798 18.804C180.378 18.06 180.168 17.178 180.168 16.158C180.168 15.15 180.378 14.274 180.798 13.53C181.23 12.786 181.812 12.21 182.544 11.802C183.276 11.382 184.098 11.172 185.01 11.172C185.862 11.172 186.588 11.352 187.188 11.712C187.8 12.072 188.268 12.618 188.592 13.35C188.916 14.082 189.078 15.018 189.078 16.158C189.078 17.286 188.91 18.222 188.574 18.966C188.238 19.698 187.764 20.244 187.152 20.604C186.54 20.964 185.826 21.144 185.01 21.144ZM185.496 18.84C185.952 18.84 186.366 18.732 186.738 18.516C187.11 18.3 187.404 17.994 187.62 17.598C187.848 17.19 187.962 16.71 187.962 16.158C187.962 15.594 187.848 15.114 187.62 14.718C187.404 14.322 187.11 14.016 186.738 13.8C186.366 13.584 185.952 13.476 185.496 13.476C185.028 13.476 184.608 13.584 184.236 13.8C183.864 14.016 183.564 14.322 183.336 14.718C183.12 15.114 183.012 15.594 183.012 16.158C183.012 16.71 183.12 17.19 183.336 17.598C183.564 17.994 183.864 18.3 184.236 18.516C184.608 18.732 185.028 18.84 185.496 18.84ZM187.908 24.492V19.038L188.088 16.176L188.034 13.296V11.316H190.716V24.492H187.908ZM197.402 21.144C196.598 21.144 195.878 20.988 195.242 20.676C194.618 20.364 194.132 19.89 193.784 19.254C193.436 18.606 193.262 17.784 193.262 16.788V11.316H196.07V16.374C196.07 17.178 196.238 17.772 196.574 18.156C196.922 18.528 197.408 18.714 198.032 18.714C198.464 18.714 198.848 18.624 199.184 18.444C199.52 18.252 199.784 17.964 199.976 17.58C200.168 17.184 200.264 16.692 200.264 16.104V11.316H203.072V21H200.408V18.336L200.894 19.11C200.57 19.782 200.09 20.292 199.454 20.64C198.83 20.976 198.146 21.144 197.402 21.144ZM210.479 21.144C209.375 21.144 208.403 20.928 207.563 20.496C206.735 20.064 206.093 19.476 205.637 18.732C205.181 17.976 204.953 17.118 204.953 16.158C204.953 15.186 205.175 14.328 205.619 13.584C206.075 12.828 206.693 12.24 207.473 11.82C208.253 11.388 209.135 11.172 210.119 11.172C211.067 11.172 211.919 11.376 212.675 11.784C213.443 12.18 214.049 12.756 214.493 13.512C214.937 14.256 215.159 15.15 215.159 16.194C215.159 16.302 215.153 16.428 215.141 16.572C215.129 16.704 215.117 16.83 215.105 16.95H207.239V15.312H213.629L212.549 15.798C212.549 15.294 212.447 14.856 212.243 14.484C212.039 14.112 211.757 13.824 211.397 13.62C211.037 13.404 210.617 13.296 210.137 13.296C209.657 13.296 209.231 13.404 208.859 13.62C208.499 13.824 208.217 14.118 208.013 14.502C207.809 14.874 207.707 15.318 207.707 15.834V16.266C207.707 16.794 207.821 17.262 208.049 17.67C208.289 18.066 208.619 18.372 209.039 18.588C209.471 18.792 209.975 18.894 210.551 18.894C211.067 18.894 211.517 18.816 211.901 18.66C212.297 18.504 212.657 18.27 212.981 17.958L214.475 19.578C214.031 20.082 213.473 20.472 212.801 20.748C212.129 21.012 211.355 21.144 210.479 21.144ZM220.286 21.144C219.458 21.144 218.66 21.048 217.892 20.856C217.136 20.652 216.536 20.4 216.092 20.1L217.028 18.084C217.472 18.36 217.994 18.588 218.594 18.768C219.206 18.936 219.806 19.02 220.394 19.02C221.042 19.02 221.498 18.942 221.762 18.786C222.038 18.63 222.176 18.414 222.176 18.138C222.176 17.91 222.068 17.742 221.852 17.634C221.648 17.514 221.372 17.424 221.024 17.364C220.676 17.304 220.292 17.244 219.872 17.184C219.464 17.124 219.05 17.046 218.63 16.95C218.21 16.842 217.826 16.686 217.478 16.482C217.13 16.278 216.848 16.002 216.632 15.654C216.428 15.306 216.326 14.856 216.326 14.304C216.326 13.692 216.5 13.152 216.848 12.684C217.208 12.216 217.724 11.85 218.396 11.586C219.068 11.31 219.872 11.172 220.808 11.172C221.468 11.172 222.14 11.244 222.824 11.388C223.508 11.532 224.078 11.742 224.534 12.018L223.598 14.016C223.13 13.74 222.656 13.554 222.176 13.458C221.708 13.35 221.252 13.296 220.808 13.296C220.184 13.296 219.728 13.38 219.44 13.548C219.152 13.716 219.008 13.932 219.008 14.196C219.008 14.436 219.11 14.616 219.314 14.736C219.53 14.856 219.812 14.952 220.16 15.024C220.508 15.096 220.886 15.162 221.294 15.222C221.714 15.27 222.134 15.348 222.554 15.456C222.974 15.564 223.352 15.72 223.688 15.924C224.036 16.116 224.318 16.386 224.534 16.734C224.75 17.07 224.858 17.514 224.858 18.066C224.858 18.666 224.678 19.2 224.318 19.668C223.958 20.124 223.436 20.484 222.752 20.748C222.08 21.012 221.258 21.144 220.286 21.144ZM230.551 21.144C229.411 21.144 228.523 20.856 227.887 20.28C227.251 19.692 226.933 18.822 226.933 17.67V9.174H229.741V17.634C229.741 18.042 229.849 18.36 230.065 18.588C230.281 18.804 230.575 18.912 230.947 18.912C231.391 18.912 231.769 18.792 232.081 18.552L232.837 20.532C232.549 20.736 232.201 20.892 231.793 21C231.397 21.096 230.983 21.144 230.551 21.144ZM225.439 13.692V11.532H232.153V13.692H225.439ZM239.64 21V9.1H244.349C245.607 9.1 246.712 9.355 247.664 9.865C248.616 10.375 249.353 11.0777 249.874 11.973C250.407 12.8683 250.673 13.894 250.673 15.05C250.673 16.206 250.407 17.2317 249.874 18.127C249.353 19.0223 248.616 19.725 247.664 20.235C246.712 20.745 245.607 21 244.349 21H239.64ZM240.507 20.218H244.281C245.403 20.218 246.378 19.997 247.205 19.555C248.033 19.113 248.673 18.5067 249.126 17.736C249.58 16.954 249.806 16.0587 249.806 15.05C249.806 14.0413 249.58 13.1517 249.126 12.381C248.673 11.599 248.033 10.987 247.205 10.545C246.378 10.103 245.403 9.882 244.281 9.882H240.507V20.218ZM257.017 21.068C256.122 21.068 255.329 20.8753 254.637 20.49C253.957 20.1047 253.419 19.572 253.022 18.892C252.637 18.212 252.444 17.4357 252.444 16.563C252.444 15.679 252.626 14.9027 252.988 14.234C253.362 13.554 253.872 13.0213 254.518 12.636C255.164 12.2507 255.89 12.058 256.694 12.058C257.499 12.058 258.219 12.245 258.853 12.619C259.499 12.993 260.004 13.52 260.366 14.2C260.74 14.8687 260.927 15.645 260.927 16.529C260.927 16.563 260.922 16.6027 260.91 16.648C260.91 16.682 260.91 16.7217 260.91 16.767H253.073V16.104H260.451L260.111 16.427C260.123 15.7357 259.975 15.118 259.669 14.574C259.375 14.0187 258.972 13.588 258.462 13.282C257.952 12.9647 257.363 12.806 256.694 12.806C256.037 12.806 255.448 12.9647 254.926 13.282C254.416 13.588 254.014 14.0187 253.719 14.574C253.425 15.118 253.277 15.7413 253.277 16.444V16.597C253.277 17.3223 253.436 17.9683 253.753 18.535C254.082 19.0903 254.53 19.5267 255.096 19.844C255.663 20.15 256.309 20.303 257.034 20.303C257.601 20.303 258.128 20.201 258.615 19.997C259.114 19.793 259.533 19.4813 259.873 19.062L260.366 19.623C259.981 20.099 259.494 20.4617 258.904 20.711C258.326 20.949 257.697 21.068 257.017 21.068ZM265.801 21.068C265.064 21.068 264.373 20.9603 263.727 20.745C263.092 20.5297 262.599 20.2577 262.248 19.929L262.639 19.249C262.979 19.5437 263.432 19.7987 263.999 20.014C264.566 20.218 265.178 20.32 265.835 20.32C266.764 20.32 267.433 20.167 267.841 19.861C268.249 19.555 268.453 19.1527 268.453 18.654C268.453 18.2913 268.345 18.008 268.13 17.804C267.926 17.5887 267.648 17.4243 267.297 17.311C266.946 17.1977 266.56 17.107 266.141 17.039C265.722 16.9597 265.302 16.8747 264.883 16.784C264.464 16.6933 264.078 16.563 263.727 16.393C263.376 16.223 263.092 15.9907 262.877 15.696C262.673 15.39 262.571 14.9877 262.571 14.489C262.571 14.0357 262.696 13.6277 262.945 13.265C263.194 12.9023 263.568 12.6133 264.067 12.398C264.566 12.1713 265.189 12.058 265.937 12.058C266.492 12.058 267.048 12.1373 267.603 12.296C268.17 12.4547 268.629 12.6643 268.98 12.925L268.589 13.605C268.215 13.3217 267.796 13.1177 267.331 12.993C266.866 12.8683 266.396 12.806 265.92 12.806C265.059 12.806 264.424 12.9647 264.016 13.282C263.619 13.5993 263.421 13.996 263.421 14.472C263.421 14.846 263.523 15.1463 263.727 15.373C263.942 15.5883 264.226 15.7583 264.577 15.883C264.928 15.9963 265.314 16.0927 265.733 16.172C266.152 16.24 266.572 16.3193 266.991 16.41C267.41 16.5007 267.796 16.631 268.147 16.801C268.498 16.9597 268.776 17.1863 268.98 17.481C269.195 17.7643 269.303 18.1497 269.303 18.637C269.303 19.1243 269.167 19.5493 268.895 19.912C268.634 20.2747 268.243 20.558 267.722 20.762C267.201 20.966 266.56 21.068 265.801 21.068ZM271.675 21V12.126H272.525V21H271.675ZM272.1 9.967C271.907 9.967 271.743 9.899 271.607 9.763C271.471 9.627 271.403 9.46833 271.403 9.287C271.403 9.09433 271.471 8.93 271.607 8.794C271.743 8.658 271.907 8.59 272.1 8.59C272.304 8.59 272.468 8.658 272.593 8.794C272.729 8.91867 272.797 9.07733 272.797 9.27C272.797 9.46267 272.729 9.627 272.593 9.763C272.468 9.899 272.304 9.967 272.1 9.967ZM279.797 24.366C278.992 24.366 278.227 24.2413 277.502 23.992C276.776 23.7427 276.187 23.397 275.734 22.955L276.193 22.309C276.635 22.717 277.162 23.0343 277.774 23.261C278.397 23.4877 279.066 23.601 279.78 23.601C280.97 23.601 281.842 23.3233 282.398 22.768C282.964 22.2127 283.248 21.34 283.248 20.15V17.685L283.418 16.359L283.282 15.033V12.126H284.098V20.048C284.098 21.5327 283.735 22.6207 283.01 23.312C282.296 24.0147 281.225 24.366 279.797 24.366ZM279.559 20.677C278.72 20.677 277.966 20.4957 277.298 20.133C276.64 19.759 276.113 19.249 275.717 18.603C275.331 17.9457 275.139 17.1977 275.139 16.359C275.139 15.509 275.331 14.761 275.717 14.115C276.113 13.469 276.64 12.9647 277.298 12.602C277.966 12.2393 278.72 12.058 279.559 12.058C280.363 12.058 281.083 12.2337 281.718 12.585C282.364 12.925 282.874 13.418 283.248 14.064C283.622 14.6987 283.809 15.4637 283.809 16.359C283.809 17.243 283.622 18.008 283.248 18.654C282.874 19.3 282.364 19.7987 281.718 20.15C281.083 20.5013 280.363 20.677 279.559 20.677ZM279.627 19.912C280.341 19.912 280.97 19.7647 281.514 19.47C282.058 19.164 282.483 18.7447 282.789 18.212C283.106 17.668 283.265 17.0503 283.265 16.359C283.265 15.6563 283.106 15.0387 282.789 14.506C282.483 13.9733 282.058 13.5597 281.514 13.265C280.97 12.9703 280.341 12.823 279.627 12.823C278.935 12.823 278.312 12.9703 277.757 13.265C277.213 13.5597 276.782 13.9733 276.465 14.506C276.159 15.0387 276.006 15.6563 276.006 16.359C276.006 17.0503 276.159 17.668 276.465 18.212C276.782 18.7447 277.213 19.164 277.757 19.47C278.312 19.7647 278.935 19.912 279.627 19.912ZM292.031 12.058C292.756 12.058 293.385 12.1997 293.918 12.483C294.462 12.755 294.881 13.1743 295.176 13.741C295.482 14.2963 295.635 14.9877 295.635 15.815V21H294.785V15.883C294.785 14.8857 294.53 14.1263 294.02 13.605C293.521 13.0837 292.818 12.823 291.912 12.823C291.22 12.823 290.62 12.9647 290.11 13.248C289.6 13.5313 289.209 13.928 288.937 14.438C288.676 14.948 288.546 15.56 288.546 16.274V21H287.696V12.126H288.512V14.591L288.393 14.319C288.665 13.6163 289.112 13.0667 289.736 12.67C290.359 12.262 291.124 12.058 292.031 12.058Z" fill="#898E9F"/>
<rect x="117" y="15.5" width="21.9203" height="21.9203" rx="3" transform="rotate(-45 117 15.5)" fill="#242424"/>
<circle cx="132.533" cy="15.5" r="8.87694" fill="#FCFCFC"/>
<rect x="126.988" y="9.95215" width="11.1751" height="11.1751" rx="3" fill="#242424"/>
<circle cx="132.521" cy="15.4845" r="3.86829" fill="#FCFCFC"/>
<rect x="130.871" y="15.5" width="2.50739" height="2.50739" rx="1" transform="rotate(-45 130.871 15.5)" fill="#242424"/>
</svg>
