<svg width="16" height="16" viewBox="0 0 16 16" fill="none" xmlns="http://www.w3.org/2000/svg">
<g clip-path="url(#clip0_764_12003)">
<g clip-path="url(#clip1_764_12003)">
<path d="M12.386 1.42682L8.20933 0.0341604C8.07258 -0.0113868 7.92475 -0.0113868 7.788 0.0341604L3.61136 1.42682C2.9473 1.64741 2.36964 2.07166 1.96046 2.63929C1.55128 3.20692 1.33139 3.88907 1.33203 4.58881V8.00012C1.33203 13.0421 7.46534 15.8268 7.728 15.9428C7.81322 15.9806 7.90542 16.0002 7.99867 16.0002C8.09191 16.0002 8.18412 15.9806 8.26933 15.9428C8.532 15.8268 14.6653 13.0421 14.6653 8.00012V4.58881C14.6659 3.88907 14.4461 3.20692 14.0369 2.63929C13.6277 2.07166 13.05 1.64741 12.386 1.42682ZM13.332 8.00012C13.332 11.6368 9.11933 14.0221 7.99867 14.5928C6.87667 14.0241 2.66536 11.6461 2.66536 8.00012V4.58881C2.6654 4.16899 2.79754 3.75984 3.04307 3.41931C3.28859 3.07878 3.63505 2.82414 4.03335 2.69148L7.99867 1.36949L11.964 2.69148C12.3623 2.82414 12.7087 3.07878 12.9543 3.41931C13.1998 3.75984 13.3319 4.16899 13.332 4.58881V8.00012Z" fill="white"/>
<path d="M10.2005 5.53366L7.4085 8.33364L5.91251 6.77365C5.85247 6.70801 5.7799 6.65505 5.69908 6.61788C5.61826 6.58072 5.53082 6.56011 5.44191 6.55726C5.353 6.55441 5.26441 6.56939 5.18138 6.60131C5.09835 6.63322 5.02254 6.68143 4.95843 6.7431C4.89431 6.80477 4.84319 6.87864 4.80807 6.96037C4.77295 7.0421 4.75454 7.13003 4.75392 7.21899C4.75331 7.30794 4.7705 7.39612 4.8045 7.47832C4.83849 7.56053 4.88859 7.6351 4.95185 7.69765L6.48917 9.29764C6.60382 9.42147 6.7424 9.52077 6.89651 9.58952C7.05063 9.65827 7.2171 9.69505 7.38583 9.69764H7.40783C7.5732 9.69818 7.73703 9.66587 7.88982 9.60259C8.0426 9.5393 8.18129 9.4463 8.29783 9.32897L11.1458 6.48099C11.208 6.41891 11.2574 6.3452 11.2911 6.26405C11.3248 6.1829 11.3422 6.0959 11.3423 6.00803C11.3424 5.92015 11.3252 5.83312 11.2916 5.7519C11.2581 5.67068 11.2089 5.59686 11.1468 5.53466C11.0847 5.47245 11.011 5.42309 10.9299 5.38937C10.8487 5.35566 10.7617 5.33826 10.6739 5.33817C10.586 5.33807 10.499 5.35529 10.4177 5.38883C10.3365 5.42237 10.2627 5.47159 10.2005 5.53366Z" fill="white"/>
</g>
</g>
<defs>
<clipPath id="clip0_764_12003">
<rect width="16" height="16" fill="white"/>
</clipPath>
<clipPath id="clip1_764_12003">
<rect width="16" height="16" fill="white"/>
</clipPath>
</defs>
</svg>
