<svg width="14" height="16" viewBox="0 0 14 16" fill="none" xmlns="http://www.w3.org/2000/svg">
<path d="M5.96587 0.789084C6.26278 -0.263027 7.73722 -0.263028 8.03413 0.789083L8.76815 3.39007C8.92742 3.95446 9.5008 4.28923 10.0638 4.14652L12.6582 3.48887C13.7077 3.22284 14.4449 4.51413 13.6923 5.30021L11.8319 7.24355C11.4282 7.66523 11.4282 8.33477 11.8319 8.75645L13.6923 10.6998C14.4449 11.4859 13.7077 12.7772 12.6582 12.5111L10.0638 11.8535C9.5008 11.7108 8.92742 12.0455 8.76815 12.6099L8.03413 15.2109C7.73722 16.263 6.26278 16.263 5.96587 15.2109L5.23185 12.6099C5.07258 12.0455 4.4992 11.7108 3.93624 11.8535L1.3418 12.5111C0.29234 12.7772 -0.444879 11.4859 0.307669 10.6998L2.16809 8.75645C2.57178 8.33477 2.57178 7.66523 2.16809 7.24355L0.307669 5.30021C-0.444879 4.51413 0.292339 3.22284 1.3418 3.48887L3.93624 4.14652C4.4992 4.28923 5.07258 3.95446 5.23185 3.39008L5.96587 0.789084Z" fill="#D7697D"/>
</svg>
