<svg width="24" height="24" viewBox="0 0 24 24" fill="none" xmlns="http://www.w3.org/2000/svg">
<g clip-path="url(#clip0_764_5768)">
<path d="M10.5227 2.08499C10.9468 0.638337 13.0532 0.638336 13.4773 2.08499L14.5259 5.66135C14.7535 6.43738 15.5726 6.89769 16.3768 6.70147L20.0831 5.79719C21.5824 5.43141 22.6355 7.20693 21.5605 8.2878L18.9027 10.9599C18.326 11.5397 18.326 12.4603 18.9027 13.0401L21.5605 15.7122C22.6355 16.7931 21.5824 18.5686 20.0831 18.2028L16.3768 17.2985C15.5726 17.1023 14.7535 17.5626 14.5259 18.3386L13.4773 21.915C13.0532 23.3617 10.9468 23.3617 10.5227 21.915L9.47407 18.3386C9.24654 17.5626 8.42743 17.1023 7.6232 17.2985L3.91686 18.2028C2.41763 18.5686 1.36446 16.7931 2.43953 15.7122L5.09727 13.0401C5.67397 12.4603 5.67397 11.5397 5.09727 10.9599L2.43953 8.2878C1.36446 7.20693 2.41763 5.43141 3.91686 5.79719L7.6232 6.70147C8.42743 6.89769 9.24654 6.43738 9.47407 5.66135L10.5227 2.08499Z" stroke="white" stroke-width="2"/>
</g>
<defs>
<clipPath id="clip0_764_5768">
<rect width="24" height="24" fill="white"/>
</clipPath>
</defs>
</svg>
