<svg width="22" height="22" viewBox="0 0 22 22" fill="none" xmlns="http://www.w3.org/2000/svg">
<path d="M8.93132 1.56427C9.58245 -0.521421 12.4175 -0.521423 13.0687 1.56426L14.1743 5.10566C14.4655 6.0384 15.3006 6.66992 16.2429 6.66992H19.8207C21.9278 6.66992 22.8039 9.4762 21.0992 10.7652L18.2047 12.9539C17.4424 13.5304 17.1234 14.5522 17.4146 15.485L18.5202 19.0263C19.1713 21.112 16.8777 22.8464 15.173 21.5574L12.2785 19.3687C11.5162 18.7922 10.4838 18.7922 9.72149 19.3687L6.82702 21.5574C5.12234 22.8464 2.8287 21.112 3.47983 19.0263L4.58542 15.485C4.87661 14.5522 4.55761 13.5304 3.79526 12.9539L0.900793 10.7652C-0.803891 9.4762 0.072199 6.66992 2.1793 6.66992H5.75706C6.69938 6.66992 7.53454 6.0384 7.82574 5.10566L8.93132 1.56427Z" fill="#63B3DF"/>
</svg>
