<svg width="22" height="22" viewBox="0 0 22 22" fill="none" xmlns="http://www.w3.org/2000/svg">
<path d="M9.64725 1.78777C10.0792 0.404076 11.9208 0.404078 12.3528 1.78777L13.4583 5.32916C13.8423 6.55917 14.9561 7.41992 16.2429 7.41992H19.8207C20.4935 7.41992 20.9853 7.85487 21.1734 8.45769C21.3622 9.06244 21.2118 9.73982 20.6469 10.167L17.7524 12.3557C16.7301 13.1287 16.316 14.4828 16.6987 15.7085L17.8042 19.2498C18.0278 19.9661 17.7515 20.6009 17.2776 20.9592C16.8082 21.3141 16.1794 21.3781 15.6253 20.9592L12.7309 18.7705C11.7009 17.9916 10.2991 17.9916 9.26913 18.7705L6.37467 20.9592C5.82059 21.3781 5.19177 21.3141 4.72235 20.9592C4.24854 20.6009 3.97216 19.9661 4.19576 19.2499L5.30134 15.7085C5.684 14.4828 5.26993 13.1287 4.24761 12.3557L1.35315 10.167C0.788225 9.73982 0.637754 9.06244 0.826551 8.45769C1.01475 7.85487 1.50651 7.41992 2.1793 7.41992H5.75706C7.04391 7.41992 8.15766 6.55917 8.54166 5.32916L9.64725 1.78777Z" stroke="#DEE2E7" stroke-width="1.5"/>
</svg>
