<svg width="32" height="36" viewBox="0 0 32 36" fill="none" xmlns="http://www.w3.org/2000/svg">
<path d="M13.6363 1.77544C14.3149 -0.591812 17.6851 -0.591813 18.3637 1.77544L20.0415 7.62767C20.4055 8.89753 21.7161 9.65076 23.0029 9.32968L28.933 7.84995C31.3318 7.2514 33.0169 10.1568 31.2968 11.9255L27.0444 16.298C26.1217 17.2468 26.1217 18.7532 27.0444 19.702L31.2968 24.0745C33.0169 25.8432 31.3318 28.7486 28.933 28.15L23.0029 26.6703C21.7161 26.3492 20.4055 27.1025 20.0415 28.3723L18.3637 34.2246C17.6851 36.5918 14.3149 36.5918 13.6363 34.2246L11.9585 28.3723C11.5945 27.1025 10.2839 26.3492 8.99712 26.6703L3.06697 28.15C0.668205 28.7486 -1.01687 25.8432 0.703243 24.0745L4.95563 19.702C5.87835 18.7532 5.87835 17.2468 4.95564 16.298L0.703243 11.9255C-1.01687 10.1568 0.668203 7.2514 3.06697 7.84995L8.99712 9.32968C10.2839 9.65076 11.5945 8.89753 11.9585 7.62767L13.6363 1.77544Z" fill="white"/>
</svg>
