<svg width="22" height="24" viewBox="0 0 22 24" fill="none" xmlns="http://www.w3.org/2000/svg">
<path d="M9.52267 2.08499C9.94683 0.638337 12.0532 0.638336 12.4773 2.08499L13.5259 5.66135C13.7535 6.43738 14.5726 6.89769 15.3768 6.70147L19.0831 5.79719C20.5824 5.43141 21.6355 7.20693 20.5605 8.2878L17.9027 10.9599C17.326 11.5397 17.326 12.4603 17.9027 13.0401L20.5605 15.7122C21.6355 16.7931 20.5824 18.5686 19.0831 18.2028L15.3768 17.2985C14.5726 17.1023 13.7535 17.5626 13.5259 18.3386L12.4773 21.915C12.0532 23.3617 9.94683 23.3617 9.52267 21.915L8.47407 18.3386C8.24654 17.5626 7.42743 17.1023 6.6232 17.2985L2.91686 18.2028C1.41763 18.5686 0.364459 16.7931 1.43953 15.7122L4.09727 13.0401C4.67397 12.4603 4.67397 11.5397 4.09727 10.9599L1.43953 8.2878C0.364459 7.20693 1.41763 5.43141 2.91686 5.79719L6.6232 6.70147C7.42743 6.89769 8.24654 6.43738 8.47407 5.66135L9.52267 2.08499Z" stroke="#6981D7" stroke-width="2"/>
</svg>
