<svg width="32" height="32" viewBox="0 0 32 32" fill="none" xmlns="http://www.w3.org/2000/svg">
<g clip-path="url(#clip0_738_35568)">
<g clip-path="url(#clip1_738_35568)">
<path d="M29.41 6.97332L19.578 2.28932C17.4138 0.996573 14.72 0.973635 12.534 2.22932L2.5914 6.97332C2.55409 6.99201 2.5154 7.01201 2.4794 7.03332C0.119901 8.38245 -0.699224 11.3889 0.649901 13.7484C1.10722 14.5482 1.77991 15.2037 2.5914 15.64L5.33409 16.9467V23.48C5.33571 26.4014 7.23665 28.9824 10.0261 29.8507C11.9673 30.4123 13.9801 30.6872 16.0008 30.6667C18.0211 30.6893 20.0339 30.4167 21.9755 29.8574C24.7649 28.9892 26.6658 26.4081 26.6675 23.4867V16.944L29.3342 15.6693V26.6666C29.3342 27.403 29.9311 27.9999 30.6675 27.9999C31.4038 27.9999 32.0008 27.403 32.0008 26.6666V10.6666C32.0097 9.10095 30.7734 7.65457 29.41 6.97332ZM24.0007 23.4867C24.0014 25.2341 22.8677 26.7798 21.2007 27.304C19.5103 27.787 17.7586 28.0215 16.0007 28C14.2428 28.0215 12.4911 27.787 10.8007 27.304C9.13378 26.7798 8.00003 25.2341 8.00071 23.4867V18.2174L12.4234 20.3241C13.5146 20.9721 14.761 21.3126 16.0301 21.3094C17.2381 21.318 18.4257 20.9981 19.4661 20.3841L24.0007 18.2173V23.4867ZM28.2674 13.2333L18.2114 18.0333C17.5233 18.434 16.7393 18.64 15.9431 18.6295C15.1469 18.6189 14.3686 18.3921 13.6914 17.9733L3.85271 13.2933C2.75603 12.7019 2.3464 11.3335 2.93778 10.2369C3.13779 9.86601 3.43765 9.55856 3.8034 9.34932L13.7967 4.57601C14.4851 4.17619 15.269 3.97061 16.065 3.98118C16.861 3.99175 17.6392 4.21806 18.3167 4.63601L28.1487 9.32001C28.5039 9.51723 28.8007 9.80488 29.0088 10.1538C29.217 10.5027 29.3292 10.9004 29.334 11.3067C29.3347 11.692 29.237 12.0711 29.0504 12.4083C28.8638 12.7454 28.5943 13.0293 28.2674 13.2333Z" fill="#2E2E2E"/>
</g>
</g>
<defs>
<clipPath id="clip0_738_35568">
<rect width="32" height="32" fill="white"/>
</clipPath>
<clipPath id="clip1_738_35568">
<rect width="32" height="32" fill="white"/>
</clipPath>
</defs>
</svg>
