<svg width="38" height="38" viewBox="0 0 38 38" fill="none" xmlns="http://www.w3.org/2000/svg">
<path d="M29.6487 21.5426L26.2732 24.9938C25.9475 25.3268 25.533 25.4933 25.0296 25.4933C24.5262 25.4933 24.1117 25.3268 23.786 24.9938C23.4603 24.6608 23.2974 24.237 23.2974 23.7223C23.2974 23.2076 23.4603 22.7838 23.786 22.4508L27.1615 18.9996L23.786 15.5484C23.4603 15.2154 23.2974 14.7915 23.2974 14.2769C23.2974 13.7622 23.4603 13.3384 23.786 13.0054C24.1117 12.6724 24.5262 12.5059 25.0296 12.5059C25.533 12.5059 25.9475 12.6724 26.2732 13.0054L29.6487 16.4566L33.0242 13.0054C33.3499 12.6724 33.7645 12.5059 34.2678 12.5059C34.7712 12.5059 35.1857 12.6724 35.5114 13.0054C35.8371 13.3384 36 13.7622 36 14.2769C36 14.7915 35.8371 15.2154 35.5114 15.5484L32.1359 18.9996L35.5114 22.4508C35.8371 22.7838 36 23.2076 36 23.7223C36 24.237 35.8371 24.6608 35.5114 24.9938C35.1857 25.3268 34.7712 25.4933 34.2678 25.4933C33.7645 25.4933 33.3499 25.3268 33.0242 24.9938L29.6487 21.5426ZM10.1063 24.4489H4.77659C4.27322 24.4489 3.85099 24.2745 3.50988 23.9257C3.16878 23.577 2.99882 23.1459 3.00001 22.6324V15.3667C3.00001 14.8521 3.17056 14.4204 3.51166 14.0716C3.85277 13.7229 4.27441 13.5491 4.77659 13.5503H10.1063L15.969 7.55608C16.5316 6.98088 17.1759 6.85191 17.902 7.16918C18.628 7.48645 18.9904 8.05439 18.9892 8.87299V29.1262C18.9892 29.9436 18.6262 30.5115 17.9002 30.83C17.1742 31.1485 16.5304 31.0195 15.969 30.4431L10.1063 24.4489Z" fill="#6981D7"/>
</svg>
