<svg width="147" height="23" fill="none" xmlns="http://www.w3.org/2000/svg"><defs><clipPath id="a"><path fill="#fff" fill-opacity="0" d="M0 0h147v23H0z"/></clipPath></defs><path d="M0 0h147v23H0z"/><g clip-path="url(#a)"><path d="M8.232 7.453h-5.61v9.756H0V4.955h10.854v12.254H8.232V7.453Zm5.172-2.498h2.621v1.343a6.256 6.256 0 0 1 1.725-1.202c.613-.283 1.303-.424 2.07-.424.858 0 1.649.165 2.367.495a5.29 5.29 0 0 1 1.887 1.343 6.052 6.052 0 0 1 1.219 2.027c.291.77.438 1.61.438 2.521 0 .943-.163 1.807-.485 2.592a6.239 6.239 0 0 1-1.264 2.003 5.797 5.797 0 0 1-1.931 1.297 5.972 5.972 0 0 1-2.37.47c-.75 0-1.425-.117-2.023-.353a5.643 5.643 0 0 1-1.633-.99v5.845h-2.62V4.955Zm5.887 9.968a3.97 3.97 0 0 0 1.45-.26 3.41 3.41 0 0 0 1.195-.753c.337-.346.597-.755.78-1.226.2-.487.3-1.037.3-1.65 0-.565-.084-1.083-.252-1.555a3.258 3.258 0 0 0-.737-1.225 3.145 3.145 0 0 0-1.103-.801 3.51 3.51 0 0 0-1.426-.283c-.797 0-1.502.196-2.115.589-.598.393-1.051.864-1.358 1.414v3.723c.307.66.745 1.163 1.31 1.508.57.346 1.22.519 1.956.519Zm7.801-3.865c0-.927.152-1.775.459-2.545a5.79 5.79 0 0 1 1.312-2.027 5.974 5.974 0 0 1 2.024-1.32c.781-.33 1.646-.494 2.597-.494.936 0 1.793.165 2.576.495a5.935 5.935 0 0 1 2.045 1.32 5.792 5.792 0 0 1 1.313 2.026c.32.77.482 1.618.482 2.545a6.74 6.74 0 0 1-.482 2.569 5.842 5.842 0 0 1-1.313 2.003 5.936 5.936 0 0 1-2.044 1.32c-.784.314-1.641.47-2.577.47-.935 0-1.793-.156-2.576-.47a6.013 6.013 0 0 1-2.023-1.32 6.16 6.16 0 0 1-1.334-2.003 7 7 0 0 1-.46-2.569Zm2.713 0c0 .55.084 1.06.254 1.532.183.471.435.88.757 1.225.323.346.706.62 1.15.825.46.189.966.283 1.518.283.553 0 1.051-.087 1.494-.26a3.434 3.434 0 0 0 1.174-.777c.323-.346.575-.754.758-1.225a4.387 4.387 0 0 0 .278-1.603c0-.597-.1-1.131-.301-1.602a3.32 3.32 0 0 0-.782-1.226 3.281 3.281 0 0 0-1.171-.777 3.677 3.677 0 0 0-1.45-.283c-.521 0-1.011.094-1.47.283a3.289 3.289 0 0 0-1.174.777c-.322.33-.574.739-.758 1.226-.186.471-.277 1.005-.277 1.602Z" fill="#FF4A37"/><path d="M40.6 14.71h1.384a5.902 5.902 0 0 0 1.084-2.426c.186-.912.278-1.94.278-3.088V4.955h9.644v9.756h1.684v5.302h-2.446V17.21h-9.183v2.804H40.6v-5.302Zm9.76 0V7.454h-4.522v3.134c0 .754-.102 1.508-.3 2.262-.2.739-.477 1.359-.831 1.862h5.652Zm4.847-3.652c0-.927.154-1.775.461-2.545a5.8 5.8 0 0 1 1.316-2.027 5.998 5.998 0 0 1 2.03-1.32c.785-.33 1.654-.494 2.607-.494.938 0 1.799.165 2.584.495.8.314 1.484.754 2.053 1.32a5.8 5.8 0 0 1 1.316 2.026c.323.77.485 1.618.485 2.545 0 .927-.162 1.783-.485 2.569a5.85 5.85 0 0 1-1.316 2.003 5.95 5.95 0 0 1-2.053 1.32c-.785.314-1.646.47-2.584.47-.937 0-1.799-.156-2.584-.47a6.028 6.028 0 0 1-2.031-1.32 6.17 6.17 0 0 1-1.338-2.003 7.003 7.003 0 0 1-.461-2.569Zm2.723 0c0 .55.084 1.06.254 1.532.183.471.437.88.761 1.225.323.346.707.62 1.153.825a3.98 3.98 0 0 0 1.523.283 4.12 4.12 0 0 0 1.5-.26 3.43 3.43 0 0 0 1.176-.777c.324-.346.578-.754.762-1.225.185-.472.277-1.006.277-1.603s-.1-1.131-.3-1.602a3.325 3.325 0 0 0-.784-1.226 3.304 3.304 0 0 0-1.178-.777 3.69 3.69 0 0 0-1.453-.283c-.523 0-1.016.094-1.477.283a3.295 3.295 0 0 0-1.175.777c-.325.33-.578.739-.762 1.226-.185.471-.277 1.005-.277 1.602Zm11.758-6.103h2.63v4.972l5.192-4.972h3.437l-5.838 5.538 6.045 6.716h-3.369l-4.59-5.043-.877.872v4.17h-2.63V4.956Zm12.296 0h11.307v2.498h-4.338v9.756h-2.63V7.453h-4.339V4.955Zm11.881 6.103c0-.927.154-1.775.463-2.545a5.77 5.77 0 0 1 1.315-2.027 6.018 6.018 0 0 1 2.029-1.32c.785-.33 1.654-.494 2.607-.494.94 0 1.799.165 2.584.495a5.946 5.946 0 0 1 2.053 1.32 5.767 5.767 0 0 1 1.316 2.026c.323.77.485 1.618.485 2.545a6.69 6.69 0 0 1-.485 2.569 5.816 5.816 0 0 1-1.316 2.003 5.946 5.946 0 0 1-2.053 1.32c-.785.314-1.644.47-2.584.47-.937 0-1.798-.156-2.584-.47a6.028 6.028 0 0 1-2.03-1.32 6.135 6.135 0 0 1-1.337-2.003 6.964 6.964 0 0 1-.463-2.569Zm2.723 0c0 .55.086 1.06.254 1.532.185.471.437.88.761 1.225.323.346.708.62 1.155.825.46.189.969.283 1.521.283.555 0 1.055-.087 1.5-.26a3.47 3.47 0 0 0 1.178-.777c.322-.346.576-.754.76-1.225.185-.472.277-1.006.277-1.603s-.099-1.131-.301-1.602a3.314 3.314 0 0 0-.783-1.226 3.3 3.3 0 0 0-1.178-.777 3.686 3.686 0 0 0-1.453-.283c-.523 0-1.015.094-1.476.283a3.295 3.295 0 0 0-1.176.777c-.324.33-.578.739-.762 1.226-.185.471-.277 1.005-.277 1.602Zm11.734-6.103h2.631v1.343a6.234 6.234 0 0 1 1.729-1.202c.617-.283 1.308-.424 2.078-.424.861 0 1.652.165 2.377.495a5.318 5.318 0 0 1 1.89 1.343 6.02 6.02 0 0 1 1.223 2.027c.293.77.438 1.61.438 2.521 0 .943-.161 1.807-.485 2.592a6.19 6.19 0 0 1-1.267 2.003c-.54.55-1.186.982-1.938 1.297a6.008 6.008 0 0 1-2.377.47c-.754 0-1.432-.117-2.031-.353a5.63 5.63 0 0 1-1.637-.99v5.845h-2.631V4.955Zm5.907 9.968c.523 0 1.007-.087 1.453-.26a3.435 3.435 0 0 0 1.201-.753c.338-.346.599-.755.783-1.226a4.327 4.327 0 0 0 .301-1.65c0-.565-.086-1.083-.254-1.555a3.266 3.266 0 0 0-.738-1.225 3.181 3.181 0 0 0-1.108-.801 3.534 3.534 0 0 0-1.431-.283c-.799 0-1.506.196-2.122.589-.601.393-1.054.864-1.361 1.414v3.723c.307.66.746 1.163 1.315 1.508.568.346 1.222.519 1.961.519Zm7.765-3.865c0-.927.154-1.775.461-2.545a5.81 5.81 0 0 1 1.316-2.027 6.03 6.03 0 0 1 2.03-1.32c.785-.33 1.654-.494 2.607-.494.938 0 1.799.165 2.584.495a5.946 5.946 0 0 1 2.053 1.32 5.795 5.795 0 0 1 1.316 2.026c.323.77.485 1.618.485 2.545a6.69 6.69 0 0 1-.485 2.569 5.845 5.845 0 0 1-1.316 2.003 5.946 5.946 0 0 1-2.053 1.32c-.785.314-1.646.47-2.584.47-.937 0-1.799-.156-2.584-.47a6.025 6.025 0 0 1-2.031-1.32 6.173 6.173 0 0 1-1.338-2.003 6.996 6.996 0 0 1-.461-2.569Zm2.723 0c0 .55.084 1.06.254 1.532.185.471.437.88.761 1.225.323.346.707.62 1.155.825.461.189.968.283 1.521.283a4.12 4.12 0 0 0 1.5-.26 3.441 3.441 0 0 0 1.176-.777c.324-.346.578-.754.762-1.225.185-.472.277-1.006.277-1.603s-.1-1.131-.301-1.602a3.314 3.314 0 0 0-.783-1.226 3.3 3.3 0 0 0-1.178-.777 3.686 3.686 0 0 0-1.453-.283c-.523 0-1.015.094-1.476.283a3.274 3.274 0 0 0-1.176.777c-.324.33-.578.739-.762 1.226-.185.471-.277 1.005-.277 1.602Zm11.762-6.103h5.121c1.677 0 2.939.243 3.785.73.845.487 1.269 1.328 1.269 2.522 0 .565-.123 1.044-.371 1.437a4.102 4.102 0 0 1-.969 1.06c.571.22.993.59 1.27 1.108.277.503.416 1.084.416 1.744 0 1.226-.424 2.145-1.27 2.757-.845.597-2.037.896-3.576.896h-5.675V4.955Zm2.63 7.187v2.64h2.791c.786 0 1.377-.103 1.778-.307.398-.204.599-.534.599-.99 0-.487-.193-.832-.576-1.037-.371-.204-.947-.306-1.73-.306h-2.862Zm0-4.76v2.427h3.092c.537 0 .961-.102 1.268-.306.308-.204.463-.519.463-.943 0-.503-.209-.825-.623-.966-.401-.141-.993-.212-1.778-.212h-2.422Z" fill="#4377C9"/></g></svg>