<svg width="24" height="24" viewBox="0 0 24 24" fill="none" xmlns="http://www.w3.org/2000/svg">
<g clip-path="url(#clip0_779_2659)">
<path d="M15.7001 7.13397L13.8501 8.19997C13.3405 7.6865 12.7011 7.32085 12.0001 7.14197V4.99997L10.0001 4.99997V7.14197C9.29912 7.32085 8.65976 7.6865 8.15012 8.19997L6.30012 7.13397L5.30012 8.86597L7.16112 9.93897C7.05953 10.2837 7.00537 10.6406 7.00012 11C7.00537 11.3593 7.05953 11.7163 7.16112 12.061L5.30012 13.134L6.30012 14.866L8.15012 13.8C8.65976 14.3135 9.29912 14.6791 10.0001 14.858V17H12.0001V14.858C12.7011 14.6791 13.3405 14.3135 13.8501 13.8L15.7001 14.866L16.7001 13.134L14.8431 12.061C14.9433 11.7161 14.9962 11.3591 15.0001 11C14.9949 10.6406 14.9407 10.2837 14.8391 9.93897L16.7001 8.86597L15.7001 7.13397ZM11.0001 13C10.6046 13 10.2179 12.8827 9.88898 12.6629C9.56008 12.4431 9.30373 12.1308 9.15236 11.7653C9.00098 11.3999 8.96138 10.9978 9.03855 10.6098C9.11572 10.2218 9.3062 9.86547 9.5859 9.58576C9.86561 9.30606 10.222 9.11557 10.6099 9.0384C10.9979 8.96123 11.4 9.00084 11.7655 9.15221C12.1309 9.30359 12.4433 9.55993 12.6631 9.88883C12.8828 10.2177 13.0001 10.6044 13.0001 11C13.0001 11.5304 12.7894 12.0391 12.4143 12.4142C12.0393 12.7893 11.5306 13 11.0001 13ZM23.2721 11.132C22.3765 8.76836 21.2115 6.51584 19.8001 4.41897C18.6278 2.83038 17.0459 1.59003 15.2236 0.830403C13.4012 0.0707733 11.4067 -0.179616 9.45312 0.105973C7.51485 0.381545 5.68526 1.16942 4.15319 2.38826C2.62112 3.6071 1.4421 5.21274 0.737843 7.03944C0.0335819 8.86613 -0.170402 10.8477 0.14695 12.7796C0.464301 14.7114 1.29149 16.5236 2.54312 18.029C2.83818 18.3833 2.99986 18.8298 3.00012 19.291L3.00012 24L16.0001 24L16.0001 21H18.2471C18.974 20.9983 19.6758 20.7334 20.2225 20.2543C20.7692 19.7752 21.124 19.1144 21.2211 18.394L21.6701 15L24.0001 15L24.0001 12.788C24.0001 12.788 23.4861 11.622 23.2721 11.132ZM19.9171 13L19.2391 18.131C19.2073 18.3715 19.0892 18.5923 18.9067 18.7522C18.7242 18.9121 18.4897 19.0001 18.2471 19L14.0001 19L14.0001 22H5.00012V19.291C4.9996 18.3622 4.67412 17.4629 4.08012 16.749C3.30583 15.8251 2.72515 14.755 2.37259 13.6023C2.02003 12.4496 1.90278 11.2378 2.02781 10.0389C2.15283 8.83996 2.51759 7.67841 3.1004 6.62324C3.68321 5.56808 4.47218 4.64084 5.42043 3.89661C6.36868 3.15239 7.45685 2.60638 8.62029 2.29101C9.78372 1.97565 10.9987 1.89738 12.193 2.06085C13.3873 2.22431 14.5365 2.62619 15.5724 3.24258C16.6083 3.85898 17.5097 4.67732 18.2231 5.64897C19.5187 7.62146 20.597 9.72839 21.4391 11.933L21.9071 13.002L19.9171 13Z" fill="white"/>
</g>
<defs>
<clipPath id="clip0_779_2659">
<rect width="24" height="24" fill="white"/>
</clipPath>
</defs>
</svg>
