<svg width="24" height="24" viewBox="0 0 24 24" fill="none" xmlns="http://www.w3.org/2000/svg">
<g clip-path="url(#clip0_779_167)">
<path d="M16 6C16.2652 6 16.5196 6.10536 16.7071 6.29289C16.8946 6.48043 17 6.73478 17 7C17 7.26522 16.8946 7.51957 16.7071 7.70711C16.5196 7.89464 16.2652 8 16 8L8 8C7.73478 8 7.48043 7.89464 7.29289 7.70711C7.10536 7.51957 7 7.26522 7 7C7 6.73478 7.10536 6.48043 7.29289 6.29289C7.48043 6.10536 7.73478 6 8 6L16 6ZM23.707 23.707C23.5195 23.8945 23.2652 23.9998 23 23.9998C22.7348 23.9998 22.4805 23.8945 22.293 23.707L19.886 21.3C19.1732 21.755 18.3456 21.9977 17.5 22C16.61 22 15.74 21.7361 14.9999 21.2416C14.2599 20.7471 13.6831 20.0443 13.3425 19.2221C13.0019 18.3998 12.9128 17.495 13.0865 16.6221C13.2601 15.7492 13.6887 14.9474 14.318 14.318C14.9474 13.6887 15.7492 13.2601 16.6221 13.0865C17.495 12.9128 18.3998 13.0019 19.2221 13.3425C20.0443 13.6831 20.7471 14.2599 21.2416 14.9999C21.7361 15.74 22 16.61 22 17.5C21.9977 18.3456 21.755 19.1732 21.3 19.886L23.707 22.293C23.8945 22.4805 23.9998 22.7348 23.9998 23C23.9998 23.2652 23.8945 23.5195 23.707 23.707ZM17.5 20C17.9945 20 18.4778 19.8534 18.8889 19.5787C19.3 19.304 19.6205 18.9135 19.8097 18.4567C19.9989 17.9999 20.0484 17.4972 19.952 17.0123C19.8555 16.5273 19.6174 16.0819 19.2678 15.7322C18.9181 15.3826 18.4727 15.1445 17.9877 15.048C17.5028 14.9516 17.0001 15.0011 16.5433 15.1903C16.0865 15.3795 15.696 15.7 15.4213 16.1111C15.1466 16.5222 15 17.0055 15 17.5C15 18.163 15.2634 18.7989 15.7322 19.2678C16.2011 19.7366 16.837 20 17.5 20ZM13 22H7C6.20435 22 5.44129 21.6839 4.87868 21.1213C4.31607 20.5587 4 19.7956 4 19L4 5C4 4.20435 4.31607 3.44129 4.87868 2.87868C5.44129 2.31607 6.20435 2 7 2L19 2C19.2652 2 19.5196 2.10536 19.7071 2.29289C19.8946 2.48043 20 2.73478 20 3V11C20 11.2652 20.1054 11.5196 20.2929 11.7071C20.4804 11.8946 20.7348 12 21 12C21.2652 12 21.5196 11.8946 21.7071 11.7071C21.8946 11.5196 22 11.2652 22 11V3C22 2.20435 21.6839 1.44129 21.1213 0.87868C20.5587 0.31607 19.7956 0 19 0L7 0C5.67441 0.00158786 4.40356 0.528882 3.46622 1.46622C2.52888 2.40356 2.00159 3.67441 2 5L2 19C2.00159 20.3256 2.52888 21.5964 3.46622 22.5338C4.40356 23.4711 5.67441 23.9984 7 24H13C13.2652 24 13.5196 23.8946 13.7071 23.7071C13.8946 23.5196 14 23.2652 14 23C14 22.7348 13.8946 22.4804 13.7071 22.2929C13.5196 22.1054 13.2652 22 13 22Z" fill="white"/>
</g>
<defs>
<clipPath id="clip0_779_167">
<rect width="24" height="24" fill="white"/>
</clipPath>
</defs>
</svg>
