<svg width="105" height="16" fill="none" xmlns="http://www.w3.org/2000/svg"><path d="M5.88 5.185H1.872v6.786H0V3.447h7.753v8.524H5.88V5.185Zm3.694-1.738h1.873v.934c.383-.36.794-.64 1.232-.836a3.57 3.57 0 0 1 1.478-.295c.613 0 1.177.115 1.692.344.525.219.974.53 1.346.935.373.393.663.863.87 1.41a4.78 4.78 0 0 1 .313 1.754c0 .655-.115 1.256-.345 1.803-.219.535-.52 1-.903 1.393a4.135 4.135 0 0 1-1.38.902 4.36 4.36 0 0 1-1.692.328 4.007 4.007 0 0 1-1.445-.246 4.054 4.054 0 0 1-1.166-.688v4.065H9.574V3.447Zm4.205 6.934c.372 0 .717-.06 1.035-.18.328-.12.613-.295.854-.525.24-.24.427-.524.558-.852.143-.34.214-.722.214-1.148 0-.393-.06-.754-.18-1.082a2.248 2.248 0 0 0-.526-.852 2.248 2.248 0 0 0-.789-.558 2.564 2.564 0 0 0-1.018-.196c-.57 0-1.073.136-1.511.41-.427.273-.75.6-.97.983v2.59c.22.46.532.809.937 1.05.405.24.87.36 1.396.36Zm5.573-2.688c0-.645.11-1.235.328-1.77a4.028 4.028 0 0 1 .936-1.41 4.29 4.29 0 0 1 1.446-.919 4.839 4.839 0 0 1 1.856-.344c.668 0 1.28.115 1.84.344a4.26 4.26 0 0 1 1.461.918c.405.394.717.864.936 1.41.23.536.345 1.126.345 1.77 0 .645-.115 1.241-.345 1.787-.219.536-.53 1-.936 1.394a4.26 4.26 0 0 1-1.462.918 5.005 5.005 0 0 1-1.84.328 5.02 5.02 0 0 1-1.839-.328 4.296 4.296 0 0 1-1.445-.918 4.266 4.266 0 0 1-.953-1.393 4.76 4.76 0 0 1-.328-1.787Zm1.938 0c0 .382.06.737.18 1.065.132.328.313.612.542.853.23.24.504.431.822.573a2.9 2.9 0 0 0 1.084.197c.394 0 .75-.06 1.067-.18a2.46 2.46 0 0 0 .838-.541c.23-.24.41-.525.542-.853.131-.328.197-.7.197-1.114 0-.416-.071-.787-.213-1.115a2.312 2.312 0 0 0-.559-.853c-.24-.24-.52-.42-.837-.54a2.685 2.685 0 0 0-1.035-.197c-.373 0-.723.065-1.052.196-.317.12-.596.301-.837.541-.23.23-.41.514-.542.853-.132.328-.197.7-.197 1.115Z" fill="#FF4A37"/><path d="M29 10.234h.989a4.036 4.036 0 0 0 .774-1.689c.132-.634.198-1.35.198-2.147V3.447h6.889v6.787h1.203v3.688h-1.747v-1.95h-6.56v1.95H29v-3.688Zm6.971 0v-5.05h-3.23v2.18a5.97 5.97 0 0 1-.214 1.575c-.143.513-.34.945-.594 1.295h4.038Zm3.464-2.541c0-.645.11-1.235.33-1.77a4.012 4.012 0 0 1 .938-1.41c.407-.394.89-.7 1.45-.919a4.87 4.87 0 0 1 1.863-.344c.67 0 1.285.115 1.846.344a4.3 4.3 0 0 1 1.467.918c.406.394.72.864.939 1.41.23.536.346 1.126.346 1.77a4.54 4.54 0 0 1-.346 1.787c-.22.536-.533 1-.94 1.394a4.27 4.27 0 0 1-1.466.918 5.037 5.037 0 0 1-1.846.328c-.67 0-1.285-.11-1.846-.328a4.31 4.31 0 0 1-1.45-.918 4.265 4.265 0 0 1-.956-1.393 4.744 4.744 0 0 1-.33-1.787Zm1.944 0c0 .382.06.737.181 1.065.132.328.314.612.544.853.231.24.506.431.824.573.33.132.693.197 1.088.197.396 0 .753-.06 1.071-.18.33-.131.61-.312.84-.541.231-.24.413-.525.545-.853.131-.328.197-.7.197-1.114 0-.416-.071-.787-.214-1.115a2.311 2.311 0 0 0-.56-.853 2.36 2.36 0 0 0-.84-.54 2.701 2.701 0 0 0-1.039-.197c-.373 0-.725.065-1.055.196a2.36 2.36 0 0 0-.84.541 2.44 2.44 0 0 0-.544.853c-.132.328-.198.7-.198 1.115Zm8.397-4.246h1.88v3.459l3.707-3.46h2.456L53.649 7.3l4.318 4.672h-2.406l-3.28-3.508-.626.607v2.901h-1.879V3.447Zm8.784 0h8.076v1.738h-3.098v6.786h-1.879V5.185H58.56V3.447Zm8.486 4.246c0-.645.11-1.235.33-1.77.22-.547.532-1.017.939-1.41.406-.394.89-.7 1.45-.919a4.867 4.867 0 0 1 1.862-.344c.67 0 1.286.115 1.846.344a4.29 4.29 0 0 1 1.467.918c.406.394.72.864.94 1.41.23.536.345 1.126.345 1.77a4.54 4.54 0 0 1-.346 1.787c-.22.536-.533 1-.94 1.394a4.26 4.26 0 0 1-1.466.918 5.038 5.038 0 0 1-1.846.328c-.67 0-1.285-.11-1.845-.328a4.31 4.31 0 0 1-1.45-.918 4.261 4.261 0 0 1-.956-1.393 4.74 4.74 0 0 1-.33-1.787Zm1.945 0c0 .382.06.737.18 1.065.133.328.314.612.545.853.23.24.505.431.824.573a2.9 2.9 0 0 0 1.087.197c.396 0 .753-.06 1.072-.18.33-.131.61-.312.84-.541.23-.24.412-.525.544-.853.132-.328.198-.7.198-1.114 0-.416-.072-.787-.215-1.115a2.31 2.31 0 0 0-.56-.853 2.363 2.363 0 0 0-.84-.54 2.702 2.702 0 0 0-1.039-.197c-.373 0-.725.065-1.054.196-.319.12-.6.301-.84.541a2.42 2.42 0 0 0-.545.853c-.131.328-.197.7-.197 1.115Zm8.382-4.246h1.878v.934c.385-.36.797-.64 1.236-.836a3.59 3.59 0 0 1 1.484-.295c.615 0 1.181.115 1.697.344.527.219.978.53 1.351.935.374.393.666.863.874 1.41.21.535.313 1.12.313 1.754 0 .655-.115 1.256-.346 1.803a4.3 4.3 0 0 1-.906 1.393 4.154 4.154 0 0 1-1.384.902 4.39 4.39 0 0 1-1.698.328 4.033 4.033 0 0 1-1.45-.246 4.069 4.069 0 0 1-1.17-.688v4.065h-1.879V3.447Zm4.219 6.934c.374 0 .72-.06 1.038-.18.33-.12.616-.295.857-.525.242-.24.428-.524.56-.852.143-.34.215-.722.215-1.148 0-.393-.06-.754-.181-1.082a2.25 2.25 0 0 0-.528-.852 2.259 2.259 0 0 0-.791-.558 2.582 2.582 0 0 0-1.022-.196c-.57 0-1.076.136-1.516.41-.428.273-.752.6-.973.983v2.59c.22.46.533.809.94 1.05.406.24.873.36 1.401.36Zm5.547-2.688c0-.645.11-1.235.33-1.77a4.03 4.03 0 0 1 .939-1.41c.406-.394.89-.7 1.45-.919a4.872 4.872 0 0 1 1.862-.344c.67 0 1.286.115 1.846.344a4.28 4.28 0 0 1 1.467.918c.406.394.72.864.94 1.41.23.536.345 1.126.345 1.77a4.55 4.55 0 0 1-.346 1.787c-.22.536-.533 1-.94 1.394a4.27 4.27 0 0 1-1.466.918 5.04 5.04 0 0 1-1.846.328 5.04 5.04 0 0 1-1.846-.328 4.313 4.313 0 0 1-1.45-.918 4.27 4.27 0 0 1-.956-1.393 4.75 4.75 0 0 1-.33-1.787Zm1.944 0c0 .382.06.737.182 1.065.132.328.313.612.544.853.23.24.505.431.824.573a2.9 2.9 0 0 0 1.087.197c.396 0 .753-.06 1.071-.18.33-.131.61-.312.84-.541.232-.24.413-.525.545-.853.132-.328.198-.7.198-1.114 0-.416-.072-.787-.215-1.115a2.31 2.31 0 0 0-.56-.853 2.355 2.355 0 0 0-.84-.54 2.7 2.7 0 0 0-1.039-.197c-.373 0-.725.065-1.054.196-.32.12-.6.301-.84.541a2.42 2.42 0 0 0-.545.853c-.132.328-.198.7-.198 1.115Zm8.402-4.246h3.659c1.197 0 2.098.17 2.703.508.604.339.906.923.906 1.754 0 .394-.088.727-.264 1a2.9 2.9 0 0 1-.692.738c.407.153.709.41.907.77.197.35.296.754.296 1.213 0 .853-.302 1.492-.906 1.918-.604.416-1.456.623-2.555.623h-4.054V3.447Zm1.88 5v1.836h1.993c.56 0 .983-.071 1.269-.213a.717.717 0 0 0 .429-.689c0-.339-.138-.579-.412-.721-.264-.142-.676-.213-1.236-.213h-2.044Zm0-3.312v1.689h2.207c.385 0 .687-.071.907-.213.22-.142.329-.36.329-.656 0-.35-.148-.574-.445-.672-.285-.098-.708-.148-1.269-.148h-1.73Z" fill="#4377C9"/></svg>