<svg width="105" height="16" viewBox="0 0 105 16" fill="none" xmlns="http://www.w3.org/2000/svg">
<path d="M5.8801 5.18451H1.87244V11.9714H0V3.44678H7.75255V11.9714H5.8801V5.18451Z" fill="#FF4A37"/>
<path d="M9.57422 3.44672H11.4467V4.38115C11.8299 4.02049 12.2405 3.7418 12.6785 3.54508C13.1165 3.34836 13.6093 3.25 14.1568 3.25C14.77 3.25 15.3339 3.36475 15.8486 3.59426C16.3742 3.81284 16.8231 4.12431 17.1954 4.52869C17.5677 4.92213 17.8579 5.3921 18.0659 5.9385C18.274 6.47405 18.378 7.05875 18.378 7.6926C18.378 8.34835 18.263 8.94945 18.0331 9.4959C17.8141 10.0314 17.5129 10.4959 17.1297 10.8893C16.7465 11.2718 16.2866 11.5724 15.75 11.791C15.2244 12.0096 14.6605 12.1188 14.0582 12.1188C13.5217 12.1188 13.0399 12.0369 12.6128 11.8729C12.1858 11.709 11.7971 11.4795 11.4467 11.1845V15.25H9.57422V3.44672ZM13.779 10.3812C14.1513 10.3812 14.4962 10.3211 14.8138 10.2008C15.1423 10.0806 15.427 9.90575 15.6679 9.67625C15.9088 9.4358 16.0949 9.15165 16.2263 8.82375C16.3687 8.48495 16.4399 8.10245 16.4399 7.67625C16.4399 7.2828 16.3796 6.92215 16.2592 6.59425C16.1387 6.25545 15.9635 5.9713 15.7336 5.7418C15.5146 5.50135 15.2518 5.31555 14.9452 5.18445C14.6386 5.0533 14.2991 4.98771 13.9268 4.98771C13.3574 4.98771 12.8537 5.1243 12.4157 5.39755C11.9887 5.67075 11.6657 5.99865 11.4467 6.38115V8.9713C11.6657 9.43035 11.9777 9.78005 12.3829 10.0205C12.788 10.261 13.2534 10.3812 13.779 10.3812Z" fill="#FF4A37"/>
<path d="M19.3516 7.6926C19.3516 7.0478 19.4611 6.45765 19.6801 5.92215C19.8991 5.3757 20.2112 4.90573 20.6163 4.51229C21.0215 4.11885 21.5033 3.81284 22.0617 3.59426C22.6202 3.36475 23.2388 3.25 23.9177 3.25C24.5857 3.25 25.1989 3.36475 25.7573 3.59426C26.3267 3.81284 26.814 4.11885 27.2191 4.51229C27.6243 4.90573 27.9364 5.3757 28.1554 5.92215C28.3853 6.45765 28.5003 7.0478 28.5003 7.6926C28.5003 8.33745 28.3853 8.93305 28.1554 9.4795C27.9364 10.015 27.6243 10.4795 27.2191 10.8729C26.814 11.2664 26.3267 11.5724 25.7573 11.791C25.1989 12.0096 24.5857 12.1188 23.9177 12.1188C23.2498 12.1188 22.6366 12.0096 22.0781 11.791C21.5197 11.5724 21.0379 11.2664 20.6327 10.8729C20.2276 10.4795 19.91 10.015 19.6801 9.4795C19.4611 8.93305 19.3516 8.33745 19.3516 7.6926ZM21.2897 7.6926C21.2897 8.07515 21.35 8.43035 21.4704 8.7582C21.6018 9.08605 21.7825 9.3702 22.0124 9.61065C22.2424 9.8511 22.5161 10.0424 22.8337 10.1845C23.1622 10.3156 23.5235 10.3812 23.9177 10.3812C24.3119 10.3812 24.6678 10.3211 24.9853 10.2008C25.3138 10.0696 25.5931 9.88935 25.823 9.65985C26.053 9.4194 26.2336 9.13525 26.365 8.8074C26.4964 8.4795 26.5621 8.1079 26.5621 7.6926C26.5621 7.2773 26.491 6.90575 26.3486 6.57785C26.2172 6.23905 26.0311 5.9549 25.7902 5.7254C25.5493 5.48495 25.27 5.30465 24.9525 5.18445C24.6349 5.0533 24.29 4.98771 23.9177 4.98771C23.5454 4.98771 23.195 5.0533 22.8665 5.18445C22.549 5.30465 22.2698 5.48495 22.0289 5.7254C21.7989 5.9549 21.6182 6.23905 21.4868 6.57785C21.3554 6.90575 21.2897 7.2773 21.2897 7.6926Z" fill="#FF4A37"/>
<path d="M29 10.2337H29.9888C30.3734 9.74186 30.6315 9.17901 30.7634 8.54516C30.8952 7.91126 30.9611 7.19541 30.9611 6.39761V3.44678H37.8499V10.2337H39.053V13.9222H37.306V11.9714H30.7469V13.9222H29V10.2337ZM35.9711 10.2337V5.18451H32.741V7.36481C32.741 7.88941 32.6696 8.41401 32.5267 8.93856C32.3839 9.45226 32.1862 9.88396 31.9335 10.2337H35.9711Z" fill="#4377C9"/>
<path d="M39.4346 7.6926C39.4346 7.0478 39.5444 6.45765 39.7642 5.92215C39.9839 5.3757 40.297 4.90573 40.7035 4.51229C41.11 4.11885 41.5935 3.81284 42.1538 3.59426C42.7141 3.36475 43.3349 3.25 44.0161 3.25C44.6862 3.25 45.3015 3.36475 45.8618 3.59426C46.4332 3.81284 46.9221 4.11885 47.3286 4.51229C47.7351 4.90573 48.0482 5.3757 48.2679 5.92215C48.4987 6.45765 48.614 7.0478 48.614 7.6926C48.614 8.33745 48.4987 8.93305 48.2679 9.4795C48.0482 10.015 47.7351 10.4795 47.3286 10.8729C46.9221 11.2664 46.4332 11.5724 45.8618 11.791C45.3015 12.0096 44.6862 12.1188 44.0161 12.1188C43.3459 12.1188 42.7306 12.0096 42.1703 11.791C41.6099 11.5724 41.1265 11.2664 40.72 10.8729C40.3135 10.4795 39.9949 10.015 39.7642 9.4795C39.5444 8.93305 39.4346 8.33745 39.4346 7.6926ZM41.3792 7.6926C41.3792 8.07515 41.4396 8.43035 41.5605 8.7582C41.6923 9.08605 41.8736 9.3702 42.1043 9.61065C42.3351 9.8511 42.6097 10.0424 42.9284 10.1845C43.258 10.3156 43.6205 10.3812 44.0161 10.3812C44.4116 10.3812 44.7686 10.3211 45.0873 10.2008C45.4169 10.0696 45.697 9.88935 45.9278 9.65985C46.1585 9.4194 46.3398 9.13525 46.4716 8.8074C46.6034 8.4795 46.6694 8.1079 46.6694 7.6926C46.6694 7.2773 46.598 6.90575 46.4551 6.57785C46.3233 6.23905 46.1365 5.9549 45.8948 5.7254C45.6531 5.48495 45.3729 5.30465 45.0543 5.18445C44.7357 5.0533 44.3896 4.98771 44.0161 4.98771C43.6425 4.98771 43.2909 5.0533 42.9613 5.18445C42.6427 5.30465 42.3625 5.48495 42.1208 5.7254C41.8901 5.9549 41.7088 6.23905 41.577 6.57785C41.4451 6.90575 41.3792 7.2773 41.3792 7.6926Z" fill="#4377C9"/>
<path d="M49.7764 3.44678H51.6551V6.90581L55.3631 3.44678H57.8186L53.6491 7.29926L57.9671 11.9714H55.5611L52.2816 8.46316L51.6551 9.06971V11.9714H49.7764V3.44678Z" fill="#4377C9"/>
<path d="M58.5605 3.44678H66.636V5.18451H63.5375V11.9714H61.659V5.18451H58.5605V3.44678Z" fill="#4377C9"/>
<path d="M67.0459 7.6926C67.0459 7.0478 67.1559 6.45765 67.3759 5.92215C67.5954 5.3757 67.9084 4.90573 68.3149 4.51229C68.7214 4.11885 69.2049 3.81284 69.7654 3.59426C70.3254 3.36475 70.9464 3.25 71.6274 3.25C72.2979 3.25 72.9129 3.36475 73.4734 3.59426C74.0449 3.81284 74.5334 4.11885 74.9399 4.51229C75.3464 4.90573 75.6599 5.3757 75.8794 5.92215C76.1104 6.45765 76.2254 7.0478 76.2254 7.6926C76.2254 8.33745 76.1104 8.93305 75.8794 9.4795C75.6599 10.015 75.3464 10.4795 74.9399 10.8729C74.5334 11.2664 74.0449 11.5724 73.4734 11.791C72.9129 12.0096 72.2979 12.1188 71.6274 12.1188C70.9574 12.1188 70.3419 12.0096 69.7819 11.791C69.2214 11.5724 68.7379 11.2664 68.3314 10.8729C67.9249 10.4795 67.6064 10.015 67.3759 9.4795C67.1559 8.93305 67.0459 8.33745 67.0459 7.6926ZM68.9909 7.6926C68.9909 8.07515 69.0514 8.43035 69.1719 8.7582C69.3039 9.08605 69.4849 9.3702 69.7159 9.61065C69.9464 9.8511 70.2214 10.0424 70.5399 10.1845C70.8694 10.3156 71.2319 10.3812 71.6274 10.3812C72.0229 10.3812 72.3804 10.3211 72.6989 10.2008C73.0284 10.0696 73.3084 9.88935 73.5394 9.65985C73.7699 9.4194 73.9514 9.13525 74.0829 8.8074C74.2149 8.4795 74.2809 8.1079 74.2809 7.6926C74.2809 7.2773 74.2094 6.90575 74.0664 6.57785C73.9349 6.23905 73.7479 5.9549 73.5064 5.7254C73.2644 5.48495 72.9844 5.30465 72.6659 5.18445C72.3474 5.0533 72.0009 4.98771 71.6274 4.98771C71.2539 4.98771 70.9024 5.0533 70.5729 5.18445C70.2544 5.30465 69.9739 5.48495 69.7324 5.7254C69.5014 5.9549 69.3204 6.23905 69.1884 6.57785C69.0569 6.90575 68.9909 7.2773 68.9909 7.6926Z" fill="#4377C9"/>
<path d="M77.373 3.44672H79.2515V4.38115C79.636 4.02049 80.048 3.7418 80.4875 3.54508C80.927 3.34836 81.4215 3.25 81.971 3.25C82.586 3.25 83.152 3.36475 83.6685 3.59426C84.1955 3.81284 84.646 4.12431 85.0195 4.52869C85.393 4.92213 85.6846 5.3921 85.8931 5.9385C86.1021 6.47405 86.206 7.05875 86.206 7.6926C86.206 8.34835 86.091 8.94945 85.86 9.4959C85.6405 10.0314 85.3386 10.4959 84.9536 10.8893C84.5691 11.2718 84.1075 11.5724 83.5695 11.791C83.042 12.0096 82.476 12.1188 81.872 12.1188C81.3335 12.1188 80.85 12.0369 80.4215 11.8729C79.993 11.709 79.603 11.4795 79.2515 11.1845V15.25H77.373V3.44672ZM81.592 10.3812C81.9655 10.3812 82.3116 10.3211 82.6301 10.2008C82.9596 10.0806 83.2456 9.90575 83.4871 9.67625C83.7286 9.4358 83.9155 9.15165 84.0475 8.82375C84.19 8.48495 84.2616 8.10245 84.2616 7.67625C84.2616 7.2828 84.2011 6.92215 84.0806 6.59425C83.9596 6.25545 83.7835 5.9713 83.553 5.7418C83.333 5.50135 83.0695 5.31555 82.762 5.18445C82.454 5.0533 82.1136 4.98771 81.7401 4.98771C81.1691 4.98771 80.6636 5.1243 80.2241 5.39755C79.7956 5.67075 79.4715 5.99865 79.2515 6.38115V8.9713C79.4715 9.43035 79.7845 9.78005 80.191 10.0205C80.5975 10.261 81.0645 10.3812 81.592 10.3812Z" fill="#4377C9"/>
<path d="M87.1387 7.6926C87.1387 7.0478 87.2487 6.45765 87.4682 5.92215C87.6882 5.3757 88.0012 4.90573 88.4077 4.51229C88.8142 4.11885 89.2977 3.81284 89.8577 3.59426C90.4182 3.36475 91.0392 3.25 91.7202 3.25C92.3902 3.25 93.0057 3.36475 93.5662 3.59426C94.1372 3.81284 94.6262 4.11885 95.0327 4.51229C95.4392 4.90573 95.7522 5.3757 95.9722 5.92215C96.2027 6.45765 96.3182 7.0478 96.3182 7.6926C96.3182 8.33745 96.2027 8.93305 95.9722 9.4795C95.7522 10.015 95.4392 10.4795 95.0327 10.8729C94.6262 11.2664 94.1372 11.5724 93.5662 11.791C93.0057 12.0096 92.3902 12.1188 91.7202 12.1188C91.0502 12.1188 90.4347 12.0096 89.8742 11.791C89.3142 11.5724 88.8307 11.2664 88.4242 10.8729C88.0177 10.4795 87.6992 10.015 87.4682 9.4795C87.2487 8.93305 87.1387 8.33745 87.1387 7.6926ZM89.0832 7.6926C89.0832 8.07515 89.1437 8.43035 89.2647 8.7582C89.3967 9.08605 89.5777 9.3702 89.8087 9.61065C90.0392 9.8511 90.3137 10.0424 90.6327 10.1845C90.9622 10.3156 91.3247 10.3812 91.7202 10.3812C92.1157 10.3812 92.4727 10.3211 92.7912 10.2008C93.1212 10.0696 93.4012 9.88935 93.6317 9.65985C93.8627 9.4194 94.0437 9.13525 94.1757 8.8074C94.3077 8.4795 94.3737 8.1079 94.3737 7.6926C94.3737 7.2773 94.3022 6.90575 94.1592 6.57785C94.0272 6.23905 93.8407 5.9549 93.5987 5.7254C93.3572 5.48495 93.0772 5.30465 92.7582 5.18445C92.4397 5.0533 92.0937 4.98771 91.7202 4.98771C91.3467 4.98771 90.9952 5.0533 90.6657 5.18445C90.3467 5.30465 90.0667 5.48495 89.8252 5.7254C89.5942 5.9549 89.4132 6.23905 89.2812 6.57785C89.1492 6.90575 89.0832 7.2773 89.0832 7.6926Z" fill="#4377C9"/>
<path d="M97.4854 3.44678H101.144C102.341 3.44678 103.242 3.61618 103.847 3.95498C104.451 4.29377 104.753 4.87847 104.753 5.70906C104.753 6.10251 104.665 6.43586 104.489 6.70906C104.314 6.98231 104.083 7.22821 103.797 7.44676C104.204 7.59981 104.506 7.85661 104.704 8.21726C104.901 8.56701 105 8.97136 105 9.43041C105 10.2829 104.698 10.9222 104.094 11.3484C103.49 11.7637 102.638 11.9714 101.539 11.9714H97.4854V3.44678ZM99.3643 8.44676V10.2829H101.358C101.918 10.2829 102.341 10.2118 102.627 10.0697C102.913 9.92766 103.056 9.69816 103.056 9.38121C103.056 9.04241 102.918 8.80196 102.644 8.65991C102.38 8.51781 101.968 8.44676 101.408 8.44676H99.3643ZM99.3643 5.13531V6.82381H101.572C101.957 6.82381 102.259 6.75281 102.479 6.61071C102.699 6.46866 102.808 6.25006 102.808 5.95496C102.808 5.60526 102.66 5.38121 102.363 5.28286C102.078 5.18451 101.655 5.13531 101.094 5.13531H99.3643Z" fill="#4377C9"/>
</svg>
