<svg width="1560" height="878" viewBox="0 0 1560 878" fill="none" xmlns="http://www.w3.org/2000/svg">
<path d="M0 142.247C0 124.573 14.3269 110.247 32 110.247L606 110.247C623.673 110.247 638 95.9197 638 78.2466V32C638 14.3269 652.327 0 670 0H670.581H1528C1545.67 0 1560 14.3269 1560 32V655C1560 672.673 1545.67 687 1528 687H1286C1268.33 687 1254 701.327 1254 719V747C1254 764.673 1239.67 779 1222 779H1048C1030.33 779 1016 793.327 1016 811V846C1016 863.673 1001.67 878 984 878H898H32C14.3269 878 0 863.673 0 846V743.943V581.342V142.247Z" fill="white"/>
</svg>
