<svg width="295" height="200" viewBox="0 0 295 200" fill="none" xmlns="http://www.w3.org/2000/svg">
<path d="M0 24C0 10.7452 10.7452 0 24 0H73.0896H184.045H223.374C232.293 0 239.522 7.22985 239.522 16.1483V16.1483C239.522 25.0668 246.752 32.2966 255.671 32.2966H271C284.255 32.2966 295 43.0418 295 56.2966V176C295 189.255 284.255 200 271 200H147.5H73.75H38.006C26.6432 200 17.4318 190.789 17.4318 179.426V167.568C17.4318 162.754 13.5296 158.852 8.71591 158.852V158.852C3.90224 158.852 0 154.949 0 150.136V117.703V35.4067V24Z" fill="white"/>
</svg>
