<svg width="440" height="330" viewBox="0 0 440 330" fill="none" xmlns="http://www.w3.org/2000/svg">
<path d="M0 24C0 10.7452 10.7452 0 24 0H109.015H274.507H333.254C346.509 0 357.254 10.7452 357.254 24V29.2895C357.254 42.5443 367.999 53.2895 381.254 53.2895H416C429.255 53.2895 440 64.0346 440 77.2895V306C440 319.255 429.255 330 416 330H220H110H50C36.7452 330 26 319.255 26 306V275.105C26 267.926 20.1797 262.105 13 262.105V262.105C5.8203 262.105 0 256.285 0 249.105V194.211V58.4211V24Z" fill="white"/>
</svg>
