<svg width="14" height="17" fill="none" xmlns="http://www.w3.org/2000/svg"><path d="M5.966 1.29c.297-1.053 1.771-1.053 2.068 0l.734 2.6c.16.564.733.9 1.296.757l2.594-.658c1.05-.266 1.787 1.025 1.034 1.811l-1.86 1.944a1.096 1.096 0 0 0 0 1.512l1.86 1.944c.753.786.016 2.077-1.034 1.811l-2.594-.657a1.074 1.074 0 0 0-1.296.756l-.734 2.6c-.297 1.053-1.771 1.053-2.068 0l-.734-2.6c-.16-.564-.733-.9-1.296-.756l-2.594.657C.292 13.277-.445 11.986.308 11.2l1.86-1.944a1.096 1.096 0 0 0 0-1.512L.308 5.8c-.753-.786-.016-2.077 1.034-1.81l2.594.658a1.074 1.074 0 0 0 1.296-.757l.734-2.6Z" fill="#D7697D"/></svg>