<svg width="24.000000" height="24.000000" viewBox="0 0 24 24" fill="none" xmlns="http://www.w3.org/2000/svg" xmlns:xlink="http://www.w3.org/1999/xlink">
	<desc>
			Created with Pixso.
	</desc>
	<defs>
		<clipPath id="clip51_3710">
			<rect id="Frame" width="24.000000" height="24.000000" fill="white" fill-opacity="0"/>
		</clipPath>
		<clipPath id="clip573_9626">
			<rect id="Icons" width="24.000000" height="24.000000" fill="white" fill-opacity="0"/>
		</clipPath>
	</defs>
	<rect id="Icons" width="24.000000" height="24.000000" fill="#FFFFFF" fill-opacity="0"/>
	<g clip-path="url(#clip573_9626)">
		<rect id="Frame" width="24.000000" height="24.000000" fill="#FFFFFF" fill-opacity="0"/>
		<g clip-path="url(#clip51_3710)">
			<path id="Vector" d="M12 0C9.625 0 7.30469 0.703735 5.33203 2.02234C3.35938 3.34094 1.82031 5.21509 0.914062 7.40784C0.00390625 9.60046 -0.234375 12.0133 0.230469 14.3411C0.695312 16.6688 1.83594 18.807 3.51562 20.4852C5.19141 22.1635 7.33203 23.3064 9.66016 23.7694C11.9883 24.2324 14.3984 23.9948 16.5938 23.0865C18.7852 22.1783 20.6602 20.6403 21.9766 18.6669C23.2969 16.6935 24 14.3734 24 12C23.9961 8.81848 22.7305 5.76819 20.4805 3.51855C18.2305 1.2688 15.1797 0.00341797 12 0ZM12 22C10.0234 22 8.08984 21.4135 6.44531 20.3147C4.80078 19.2158 3.51953 17.6541 2.76172 15.8268C2.00391 13.9996 1.80469 11.9889 2.19141 10.0491C2.57812 8.10925 3.53125 6.32751 4.92969 4.92896C6.32812 3.5304 8.10938 2.578 10.0508 2.19214C11.9883 1.80627 14 2.00427 15.8281 2.76123C17.6523 3.51807 19.2148 4.7998 20.3164 6.44434C21.4141 8.08875 22 10.0222 22 12C21.9961 14.6512 20.9414 17.1931 19.0664 19.0679C17.1914 20.9426 14.6523 21.9971 12 22Z" fill="#FFFFFF" fill-opacity="1.000000" fill-rule="nonzero"/>
			<path id="Vector" d="M12 6C11.7344 6 11.4805 6.10535 11.293 6.29285C11.1055 6.48047 11 6.73474 11 7L11 11.325L7.62891 13.437C7.40234 13.5779 7.24219 13.8025 7.18359 14.0614C7.12109 14.3204 7.16797 14.5925 7.30859 14.818C7.44922 15.0435 7.67578 15.2037 7.93359 15.2635C8.19141 15.3234 8.46484 15.2778 8.69141 15.137L12.5312 12.7371C12.6758 12.6461 12.793 12.5194 12.875 12.3693C12.957 12.219 13 12.0502 13 11.879L13 7C13 6.73474 12.8945 6.48047 12.707 6.29285C12.5195 6.10535 12.2656 6 12 6Z" fill="#FFFFFF" fill-opacity="1.000000" fill-rule="nonzero"/>
		</g>
	</g>
</svg>
