<svg width="24.000000" height="24.000000" viewBox="0 0 24 24" fill="none" xmlns="http://www.w3.org/2000/svg" xmlns:xlink="http://www.w3.org/1999/xlink">
	<desc>
			Created with Pixso.
	</desc>
	<defs>
		<clipPath id="clip573_9629">
			<rect id="Icons" width="24.000000" height="24.000000" fill="white" fill-opacity="0"/>
		</clipPath>
	</defs>
	<rect id="Icons" width="24.000000" height="24.000000" fill="#FFFFFF" fill-opacity="0"/>
	<g clip-path="url(#clip573_9629)">
		<path id="Vector" d="M24 9C24.0039 8.44946 23.8516 7.90894 23.5703 7.43762C23.2852 6.96631 22.875 6.58228 22.3867 6.32764C21.8984 6.07312 21.3516 5.95764 20.8008 5.99414C20.25 6.03064 19.7227 6.21765 19.2734 6.53455C18.8242 6.85144 18.4688 7.28613 18.25 7.79089C18.0312 8.29578 17.9531 8.85132 18.0273 9.39661C18.1016 9.94202 18.3281 10.4562 18.6758 10.8829C19.0234 11.3097 19.4805 11.6324 20 11.816L20 16C20 17.5913 19.3672 19.1174 18.2422 20.2427C17.1172 21.3679 15.5898 22 14 22C12.4102 22 10.8828 21.3679 9.75781 20.2427C8.63281 19.1174 8 17.5913 8 16L8 15.92C9.66406 15.6786 11.1875 14.8467 12.2891 13.5762C13.3906 12.3058 13.9961 10.6815 14 9L14 5C14 3.67444 13.4727 2.40356 12.5352 1.46619C11.5977 0.528931 10.3242 0.00158691 9 0C8.73438 0 8.48047 0.105347 8.29297 0.292847C8.10547 0.480469 8 0.734741 8 1C8 1.26526 8.10547 1.51953 8.29297 1.70715C8.48047 1.89465 8.73438 2 9 2C9.79688 2 10.5586 2.31604 11.1211 2.87866C11.6836 3.44128 12 4.20435 12 5L12 9C12 10.326 11.4727 11.5979 10.5352 12.5355C9.59766 13.4733 8.32422 14 7 14C5.67578 14 4.40234 13.4733 3.46484 12.5355C2.52734 11.5979 2 10.326 2 9L2 5C2 4.20435 2.31641 3.44128 2.87891 2.87866C3.44141 2.31604 4.20312 2 5 2C5.26562 2 5.51953 1.89465 5.70703 1.70715C5.89453 1.51953 6 1.26526 6 1C6 0.734741 5.89453 0.480469 5.70703 0.292847C5.51953 0.105347 5.26562 0 5 0C3.67578 0.00158691 2.40234 0.528931 1.46484 1.46619C0.527344 2.40356 0 3.67444 0 5L0 9C0.00390625 10.6815 0.609375 12.3058 1.71094 13.5762C2.8125 14.8467 4.33594 15.6786 6 15.92L6 16C6 18.1217 6.84375 20.1566 8.34375 21.6569C9.84375 23.1571 11.8789 24 14 24C16.1211 24 18.1562 23.1571 19.6562 21.6569C21.1562 20.1566 22 18.1217 22 16L22 11.816C22.582 11.6099 23.0898 11.2288 23.4453 10.7247C23.8047 10.2206 23.9961 9.61829 24 9ZM21 10C20.8008 10 20.6094 9.94141 20.4453 9.83142C20.2812 9.72156 20.1523 9.56543 20.0742 9.38269C20 9.19995 19.9805 8.9989 20.0195 8.80493C20.0586 8.61096 20.1523 8.43274 20.293 8.29285C20.4336 8.15308 20.6094 8.05786 20.8047 8.01917C21 7.98059 21.1992 8.00049 21.3828 8.07617C21.5664 8.15186 21.7227 8.28003 21.832 8.44446C21.9414 8.60889 22 8.80225 22 9C22 9.26526 21.8945 9.51953 21.707 9.70715C21.5195 9.89465 21.2656 10 21 10Z" fill="#FFFFFF" fill-opacity="1.000000" fill-rule="nonzero"/>
	</g>
</svg>
