<svg width="24.000000" height="24.000000" viewBox="0 0 24 24" fill="none" xmlns="http://www.w3.org/2000/svg" xmlns:xlink="http://www.w3.org/1999/xlink">
	<desc>
			Created with Pixso.
	</desc>
	<defs>
		<clipPath id="clip573_9615">
			<rect id="Icons" width="24.000000" height="24.000000" fill="white" fill-opacity="0"/>
		</clipPath>
	</defs>
	<rect id="Icons" width="24.000000" height="24.000000" fill="#FFFFFF" fill-opacity="0"/>
	<g clip-path="url(#clip573_9615)">
		<path id="Vector" d="M22.5938 13.1879C20.8867 15.4183 16.7852 20.0107 12 20.0107C7.21484 20.0107 3.11719 15.4183 1.40625 13.1879C1.14453 12.8481 1 12.4302 1 12C1 11.5698 1.14453 11.1519 1.40625 10.8121C3.11719 8.58167 7.21484 3.98926 12 3.98926C16.7852 3.98926 20.8867 8.58167 22.5938 10.8121C23.1367 11.5216 23.1367 12.4795 22.5938 13.1879Z" stroke="#63B3DF" stroke-opacity="1.000000" stroke-width="2.000000" stroke-linejoin="round"/>
		<path id="Vector" d="M12 15.4332C10.1016 15.4332 8.56641 13.8961 8.56641 12.0001C8.56641 10.104 10.1016 8.56689 12 8.56689C13.8945 8.56689 15.4336 10.104 15.4336 12.0001C15.4336 13.8961 13.8945 15.4332 12 15.4332Z" stroke="#63B3DF" stroke-opacity="1.000000" stroke-width="2.000000" stroke-linejoin="round"/>
	</g>
</svg>
