<svg width="62" height="76" fill="none" xmlns="http://www.w3.org/2000/svg"><path d="M.971 23.423c7.06-31.032 53.034-30.996 60.057.035 4.12 18.204-7.202 33.612-17.128 43.144-13.9 13.348-13.9 11.503-25.836 0C8.174 57.07-3.15 41.626.97 23.422Z" fill="#63B3DF"/><path d="M31 41.124c6.175 0 11.18-5.005 11.18-11.18 0-6.174-5.005-11.18-11.18-11.18-6.174 0-11.18 5.006-11.18 11.18 0 6.175 5.006 11.18 11.18 11.18Z" fill="#fff"/><g clip-path="url(#a)"><g filter="url(#b)"><path d="M31.583 51.903c11.92 0 21.583-9.663 21.583-21.583 0-11.92-9.663-21.583-21.583-21.583C19.663 8.737 10 18.4 10 30.32c0 11.92 9.663 21.583 21.583 21.583Z" fill="#fff"/><path fill-rule="evenodd" clip-rule="evenodd" d="M9.717 30.32c0-12.076 9.79-21.866 21.865-21.866 12.077 0 21.866 9.79 21.866 21.866s-9.79 21.866-21.866 21.866S9.718 42.396 9.718 30.32Zm21.865-19.78c-10.924 0-19.78 8.856-19.78 19.78 0 10.924 8.856 19.78 19.78 19.78 10.925 0 19.78-8.856 19.78-19.78 0-10.924-8.855-19.78-19.78-19.78Z" fill="#CD5342"/></g><path d="M34.946 16.826c-1.106.057-2.308.427-3.298 1.016-.963.572-2.124 1.844-2.335 2.44-.093.316-.07.286-.093.468-.026.195-.033.502-.033.502 0 1.003.12 1.81.35 2.363.18.427.647.834.726.632.01-.027.04-.04.067-.03.031.013.123-.088.283-.313.293-.414.653-1.01.677-1.12.014-.048.048-.146.082-.22.034-.074.088-.218.12-.32.03-.1.07-.222.087-.265.065-.159.106-.768.065-.96-.034-.161-.068-.211-.258-.4-.215-.215-.218-.219-.218-.404 0-.178.01-.202.204-.458.408-.535 1.092-1.046 1.702-1.275.401-.152.537-.189 1.157-.317.245-.05 1.668-.05 2.025 0a9.403 9.403 0 0 1 1.344.31c.14.037.65.252.957.407 1.004.498 1.902 1.293 2.283 2.016.3.57.368.852.392 1.582.027.882-.014 1.128-.32 2.02-.416 1.208-1.263 2.339-2.41 3.21-.66.502-1.208.802-1.94 1.054-.636.215-2.968.851-3.642.99a47.082 47.082 0 0 0-2.842.72c-.084.027-.275.08-.425.114a32.13 32.13 0 0 0-2.757.838c-.398.152-1.004.424-1.259.569a6.554 6.554 0 0 0-1.668 1.417c-.816 1.006-1.174 2.006-1.13 3.15.038.932.355 1.882.91 2.713.285.43.428.599.81.973.642.623 1.313 1.047 2.058 1.292.45.152.77.246 1.045.31.123.03.3.074.392.1.895.26 2.263.415 3.318.378 1.018-.037 1.62-.155 2.672-.519.5-.171 1.252-.595 1.684-.949.467-.38.984-.976 1.242-1.433.348-.61.518-1.101.613-1.764.065-.444.065-.62-.003-1.07-.13-.872-.45-1.518-1.038-2.1a3.687 3.687 0 0 0-1.168-.751c-.279-.108-.847-.263-.82-.222.01.013.174.12.364.235.81.488 1.14.815 1.41 1.4.122.266.142.33.258.838.085.377.102 1.155.03 1.532-.125.707-.408 1.286-.857 1.77-.776.842-1.644 1.262-3.247 1.565-.167.034-.548.047-1.293.047-1.103 0-1.273-.016-2.09-.188a10.238 10.238 0 0 1-.922-.24 9.363 9.363 0 0 1-.844-.292c-.03-.017-.17-.087-.31-.155a4.25 4.25 0 0 1-.684-.427 5.698 5.698 0 0 1-.698-.7c-.194-.25-.47-.73-.555-.966-.187-.532-.194-.569-.194-1.222.004-.612.004-.63.116-.976.174-.528.409-.983.763-1.45.241-.327.507-.566.942-.852.967-.633 2.063-.993 3.659-1.202.3-.037.745-.117.987-.178.245-.06.551-.135.68-.165.133-.03.43-.101.664-.155.235-.054.603-.141.817-.192a60.225 60.225 0 0 0 1.991-.501 25.952 25.952 0 0 0 2.162-.724c1.528-.612 2.494-1.198 3.365-2.033.531-.511.878-.99 1.256-1.72a8.29 8.29 0 0 0 .81-2.288c.099-.461.088-1.787-.013-2.238-.358-1.596-1.297-2.878-2.836-3.881-1.16-.75-2.675-1.242-4.128-1.336-.3-.017-.588-.03-.647-.027-.057 0-.313.013-.564.027Zm-4.653 3.958c.126.064.15.094.19.239.035.121-.01.384-.091.515-.126.202-.255.303-.385.303-.109 0-.146-.02-.225-.125-.084-.11-.095-.148-.095-.4 0-.317.051-.424.259-.525.143-.074.207-.074.347-.007Z" fill="#6981D7"/><path d="M27.734 22.446c-1.327.025-2.713.08-3.147.124-.16.015-.445.038-.633.047a21.16 21.16 0 0 0-2.514.33c-.613.13-1.13.342-1.304.54-.208.234-.102.484.339.795.222.155 1.125.593 1.512.73 3.062 1.093 6.972 1.547 11.084 1.284a33.498 33.498 0 0 0 2.002-.194 28.859 28.859 0 0 0 4.002-.79c.366-.1 1.376-.456 1.478-.516.052-.032.311-.67.339-.837.014-.077.044-.216.068-.311a1.3 1.3 0 0 0 .048-.276c0-.092-.014-.105-.14-.136-.247-.064-.784-.159-1.468-.267a25.763 25.763 0 0 1-.53-.082 8.987 8.987 0 0 0-.496-.064c-.161-.016-.428-.04-.599-.06-1.04-.108-1.956-.171-3.472-.238-1.687-.076-2.337-.092-2.432-.057-.062.022-.1.073-.13.171-.14.435-1.054 1.795-1.246 1.852-.048.013-.058.038-.044.086.058.2.099.742.061.83l-.034.096-.003-.133a.922.922 0 0 0-.038-.22l-.038-.088-.061.095c-.034.05-.13.15-.209.219l-.147.127.089-.127c.137-.193.195-.384.195-.618v-.216l-.15-.082a2.07 2.07 0 0 1-.66-.638c-.182-.317-.38-.897-.411-1.189-.017-.184-.035-.222-.086-.216-.024.003-.575.016-1.225.029Z" fill="#6981D7"/><path d="M20.336 24.547c0 .013.048.11.109.215.57 1 1.57 2.026 2.758 2.834 1.234.838 3.008 1.552 4.596 1.845.214.04.444.087.509.104a4.8 4.8 0 0 0 .475.067c.197.017.485.05.644.068.373.043 2.236.043 2.765 0 .482-.04.858-.095 1.069-.152.084-.027.213-.054.288-.067a4.47 4.47 0 0 0 .407-.098c.15-.043.516-.141.814-.222 1.123-.293 1.584-.458 2.368-.848.706-.354 1.069-.569 1.398-.828.305-.243.76-.697 1.02-1.017.235-.286.57-.774.537-.774-.014 0-.255.078-.536.172-.893.296-1.907.545-3.016.737a28.089 28.089 0 0 1-2.585.337c-3.172.279-6.296.094-9.088-.54-1.815-.413-3.6-1.123-4.403-1.756-.071-.054-.13-.088-.13-.077Zm10.869 7.938a5.84 5.84 0 0 1-.624.115c-.268.037-.5.08-.512.093-.015.013-.003.142.024.284.122.64.256 1.606.305 2.216.024.297.052.55.06.564.007.016.028.455.047.98.048 1.391-.003 2.566-.153 3.535-.045.31-.045.343-.003.363.058.023 1.21.03 1.23.007.01-.01-.003-.123-.027-.248a18.653 18.653 0 0 1-.18-1.01 4.46 4.46 0 0 0-.06-.365c-.022-.056-.086-.643-.162-1.428-.094-1.016-.067-3.18.055-3.991.015-.11.043-.317.058-.462.018-.145.051-.356.073-.472.024-.112.036-.21.024-.217a.556.556 0 0 0-.155.036Zm2.705 9.782c-.262.094-.296.103-.952.205a9.9 9.9 0 0 1-1.787.13c-.96 0-2.01-.114-3.124-.335l-.3-.06-.244.075c-.589.185-1.245.5-1.708.817-.28.191-.596.47-.596.527 0 .021 1.378.03 4.434.03 2.44 0 5.108.01 5.928.022l1.494.018-.12-.145c-.16-.197-.459-.437-.85-.667-.517-.312-1.538-.714-1.794-.708a1.61 1.61 0 0 0-.38.09Z" fill="#6981D7"/></g><defs><clipPath id="a"><path fill="#fff" transform="translate(10 8)" d="M0 0h43v44H0z"/></clipPath><filter id="b" x="1.375" y=".112" width="60.416" height="60.415" filterUnits="userSpaceOnUse" color-interpolation-filters="sRGB"><feFlood flood-opacity="0" result="BackgroundImageFix"/><feColorMatrix in="SourceAlpha" values="0 0 0 0 0 0 0 0 0 0 0 0 0 0 0 0 0 0 127 0" result="hardAlpha"/><feOffset/><feGaussianBlur stdDeviation="4.171"/><feComposite in2="hardAlpha" operator="out"/><feColorMatrix values="0 0 0 0 0 0 0 0 0 0 0 0 0 0 0 0 0 0 0.15 0"/><feBlend in2="BackgroundImageFix" result="effect1_dropShadow_2411_30064"/><feBlend in="SourceGraphic" in2="effect1_dropShadow_2411_30064" result="shape"/></filter></defs></svg>