<svg width="147.000000" height="23.000000" viewBox="0 0 147 23" fill="none" xmlns="http://www.w3.org/2000/svg" xmlns:xlink="http://www.w3.org/1999/xlink">
	<desc>
			Created with Pixso.
	</desc>
	<defs>
		<clipPath id="clip365_19814">
			<rect id="Frame" width="147.000000" height="23.000000" fill="white" fill-opacity="0"/>
		</clipPath>
	</defs>
	<rect id="Frame" width="147.000000" height="23.000000" fill="#FFFFFF" fill-opacity="0"/>
	<g clip-path="url(#clip365_19814)">
		<path id="Vector" d="M8.23242 7.45264L2.62109 7.45264L2.62109 17.2086L0 17.2086L0 4.95459L10.8535 4.95459L10.8535 17.2086L8.23242 17.2086L8.23242 7.45264Z" fill="#FF4A37" fill-opacity="1.000000" fill-rule="nonzero"/>
		<path id="Vector" d="M13.4043 4.95471L16.0254 4.95471L16.0254 6.29785C16.5625 5.77942 17.1367 5.37878 17.75 5.09607C18.3633 4.81323 19.0527 4.67188 19.8203 4.67188C20.6777 4.67188 21.4688 4.83679 22.1875 5.16675C22.9238 5.48096 23.5527 5.92871 24.0742 6.51001C24.5957 7.07556 25.002 7.7511 25.293 8.53662C25.584 9.3064 25.7305 10.147 25.7305 11.0581C25.7305 12.0007 25.5684 12.8649 25.2461 13.6504C24.9395 14.4202 24.5176 15.0879 23.9824 15.6534C23.4453 16.2032 22.8008 16.6354 22.0508 16.9496C21.3145 17.2637 20.5254 17.4209 19.6816 17.4209C18.9316 17.4209 18.2559 17.3031 17.6582 17.0674C17.0605 16.8317 16.5156 16.5018 16.0254 16.0776L16.0254 21.9219L13.4043 21.9219L13.4043 4.95471ZM19.291 14.9229C19.8125 14.9229 20.2949 14.8365 20.7402 14.6637C21.1992 14.4908 21.5977 14.2395 21.9355 13.9097C22.2734 13.564 22.5332 13.1555 22.7168 12.6841C22.916 12.1971 23.0156 11.6472 23.0156 11.0347C23.0156 10.469 22.9316 9.95056 22.7637 9.47925C22.5938 8.99219 22.3496 8.58374 22.0273 8.25378C21.7207 7.9082 21.3535 7.64111 20.9238 7.45264C20.4941 7.26416 20.0195 7.1698 19.498 7.1698C18.7012 7.1698 17.9961 7.36621 17.3828 7.75903C16.7852 8.15173 16.332 8.62305 16.0254 9.17285L16.0254 12.8962C16.332 13.5562 16.7695 14.0588 17.3359 14.4044C17.9043 14.7501 18.5547 14.9229 19.291 14.9229Z" fill="#FF4A37" fill-opacity="1.000000" fill-rule="nonzero"/>
		<path id="Vector" d="M27.0918 11.0581C27.0918 10.1312 27.2441 9.28284 27.5508 8.51306C27.8574 7.72754 28.2949 7.052 28.8633 6.48645C29.4297 5.9209 30.1035 5.48096 30.8867 5.16675C31.668 4.83679 32.5332 4.67188 33.4844 4.67188C34.4199 4.67188 35.2773 4.83679 36.0605 5.16675C36.8574 5.48096 37.5391 5.9209 38.1055 6.48645C38.6738 7.052 39.1113 7.72754 39.418 8.51306C39.7383 9.28284 39.9004 10.1312 39.9004 11.0581C39.9004 11.9851 39.7383 12.8413 39.418 13.6268C39.1113 14.3966 38.6738 15.0643 38.1055 15.6299C37.5391 16.1954 36.8574 16.6354 36.0605 16.9496C35.2773 17.2637 34.4199 17.4209 33.4844 17.4209C32.5488 17.4209 31.6914 17.2637 30.9082 16.9496C30.127 16.6354 29.4531 16.1954 28.8848 15.6299C28.3184 15.0643 27.873 14.3966 27.5508 13.6268C27.2441 12.8413 27.0918 11.9851 27.0918 11.0581ZM29.8047 11.0581C29.8047 11.608 29.8887 12.1187 30.0586 12.59C30.2422 13.0612 30.4941 13.4696 30.8164 13.8153C31.1387 14.161 31.5215 14.4359 31.9668 14.6401C32.4258 14.8286 32.9316 14.9229 33.4844 14.9229C34.0371 14.9229 34.5352 14.8365 34.9785 14.6637C35.4395 14.4751 35.8301 14.2159 36.1523 13.886C36.4746 13.5404 36.7266 13.132 36.9102 12.6606C37.0938 12.1893 37.1875 11.6552 37.1875 11.0581C37.1875 10.4611 37.0879 9.927 36.8867 9.45569C36.7031 8.96863 36.4434 8.56018 36.1055 8.23022C35.7695 7.88464 35.377 7.62549 34.9336 7.45264C34.4883 7.26416 34.0059 7.1698 33.4844 7.1698C32.9629 7.1698 32.4727 7.26416 32.0137 7.45264C31.5684 7.62549 31.1777 7.88464 30.8398 8.23022C30.5176 8.56018 30.2656 8.96863 30.082 9.45569C29.8965 9.927 29.8047 10.4611 29.8047 11.0581Z" fill="#FF4A37" fill-opacity="1.000000" fill-rule="nonzero"/>
		<path id="Vector" d="M40.5996 14.7107L41.9844 14.7107C42.5215 14.0038 42.8828 13.1947 43.0684 12.2836C43.2539 11.3723 43.3457 10.3433 43.3457 9.19641L43.3457 4.95459L52.9902 4.95459L52.9902 14.7107L54.6738 14.7107L54.6738 20.0131L52.2285 20.0131L52.2285 17.2086L43.0449 17.2086L43.0449 20.0131L40.5996 20.0131L40.5996 14.7107ZM50.3594 14.7107L50.3594 7.45264L45.8379 7.45264L45.8379 10.5868C45.8379 11.3408 45.7363 12.095 45.5371 12.849C45.3379 13.5875 45.0605 14.208 44.707 14.7107L50.3594 14.7107Z" fill="#4377C9" fill-opacity="1.000000" fill-rule="nonzero"/>
		<path id="Vector" d="M55.207 11.0581C55.207 10.1312 55.3613 9.28284 55.668 8.51306C55.9766 7.72754 56.4141 7.052 56.9844 6.48645C57.5527 5.9209 58.2285 5.48096 59.0137 5.16675C59.7988 4.83679 60.668 4.67188 61.6211 4.67188C62.5586 4.67188 63.4199 4.83679 64.2051 5.16675C65.0059 5.48096 65.6895 5.9209 66.2578 6.48645C66.8281 7.052 67.2656 7.72754 67.5742 8.51306C67.8965 9.28284 68.0586 10.1312 68.0586 11.0581C68.0586 11.9851 67.8965 12.8413 67.5742 13.6268C67.2656 14.3966 66.8281 15.0643 66.2578 15.6299C65.6895 16.1954 65.0059 16.6354 64.2051 16.9496C63.4199 17.2637 62.5586 17.4209 61.6211 17.4209C60.6836 17.4209 59.8223 17.2637 59.0371 16.9496C58.252 16.6354 57.5762 16.1954 57.0059 15.6299C56.4375 15.0643 55.9922 14.3966 55.668 13.6268C55.3613 12.8413 55.207 11.9851 55.207 11.0581ZM57.9297 11.0581C57.9297 11.608 58.0137 12.1187 58.1836 12.59C58.3672 13.0612 58.6211 13.4696 58.9453 13.8153C59.2676 14.161 59.6523 14.4359 60.0977 14.6401C60.5605 14.8286 61.0664 14.9229 61.6211 14.9229C62.1758 14.9229 62.6738 14.8365 63.1211 14.6637C63.582 14.4751 63.9746 14.2159 64.2969 13.886C64.6211 13.5404 64.875 13.132 65.0586 12.6606C65.2441 12.1893 65.3359 11.6552 65.3359 11.0581C65.3359 10.4611 65.2363 9.927 65.0352 9.45569C64.8516 8.96863 64.5898 8.56018 64.252 8.23022C63.9121 7.88464 63.5215 7.62549 63.0742 7.45264C62.6289 7.26416 62.1445 7.1698 61.6211 7.1698C61.0977 7.1698 60.6055 7.26416 60.1445 7.45264C59.6992 7.62549 59.3066 7.88464 58.9688 8.23022C58.6445 8.56018 58.3906 8.96863 58.207 9.45569C58.0215 9.927 57.9297 10.4611 57.9297 11.0581Z" fill="#4377C9" fill-opacity="1.000000" fill-rule="nonzero"/>
		<path id="Vector" d="M69.6875 4.95459L72.3184 4.95459L72.3184 9.927L77.5098 4.95459L80.9473 4.95459L75.1094 10.4926L81.1543 17.2086L77.7852 17.2086L73.1953 12.1656L72.3184 13.0376L72.3184 17.2086L69.6875 17.2086L69.6875 4.95459Z" fill="#4377C9" fill-opacity="1.000000" fill-rule="nonzero"/>
		<path id="Vector" d="M81.9844 4.95459L93.291 4.95459L93.291 7.45264L88.9531 7.45264L88.9531 17.2086L86.3223 17.2086L86.3223 7.45264L81.9844 7.45264L81.9844 4.95459Z" fill="#4377C9" fill-opacity="1.000000" fill-rule="nonzero"/>
		<path id="Vector" d="M93.8652 11.0581C93.8652 10.1312 94.0195 9.28284 94.3281 8.51306C94.6348 7.72754 95.0723 7.052 95.6426 6.48645C96.2109 5.9209 96.8887 5.48096 97.6719 5.16675C98.457 4.83679 99.3262 4.67188 100.279 4.67188C101.219 4.67188 102.078 4.83679 102.863 5.16675C103.664 5.48096 104.348 5.9209 104.916 6.48645C105.486 7.052 105.926 7.72754 106.232 8.51306C106.555 9.28284 106.717 10.1312 106.717 11.0581C106.717 11.9851 106.555 12.8413 106.232 13.6268C105.926 14.3966 105.486 15.0643 104.916 15.6299C104.348 16.1954 103.664 16.6354 102.863 16.9496C102.078 17.2637 101.219 17.4209 100.279 17.4209C99.3418 17.4209 98.4805 17.2637 97.6953 16.9496C96.9102 16.6354 96.2344 16.1954 95.6641 15.6299C95.0957 15.0643 94.6504 14.3966 94.3281 13.6268C94.0195 12.8413 93.8652 11.9851 93.8652 11.0581ZM96.5879 11.0581C96.5879 11.608 96.6738 12.1187 96.8418 12.59C97.0273 13.0612 97.2793 13.4696 97.6035 13.8153C97.9258 14.161 98.3105 14.4359 98.7578 14.6401C99.2188 14.8286 99.7266 14.9229 100.279 14.9229C100.834 14.9229 101.334 14.8365 101.779 14.6637C102.24 14.4751 102.633 14.2159 102.957 13.886C103.279 13.5404 103.533 13.132 103.717 12.6606C103.902 12.1893 103.994 11.6552 103.994 11.0581C103.994 10.4611 103.895 9.927 103.693 9.45569C103.51 8.96863 103.248 8.56018 102.91 8.23022C102.57 7.88464 102.18 7.62549 101.732 7.45264C101.287 7.26416 100.803 7.1698 100.279 7.1698C99.7559 7.1698 99.2637 7.26416 98.8027 7.45264C98.3574 7.62549 97.9648 7.88464 97.627 8.23022C97.3027 8.56018 97.0488 8.96863 96.8652 9.45569C96.6797 9.927 96.5879 10.4611 96.5879 11.0581Z" fill="#4377C9" fill-opacity="1.000000" fill-rule="nonzero"/>
		<path id="Vector" d="M108.322 4.95471L110.953 4.95471L110.953 6.29785C111.49 5.77942 112.066 5.37878 112.682 5.09607C113.299 4.81323 113.99 4.67188 114.76 4.67188C115.621 4.67188 116.412 4.83679 117.137 5.16675C117.873 5.48096 118.504 5.92871 119.027 6.51001C119.551 7.07556 119.959 7.7511 120.25 8.53662C120.543 9.3064 120.688 10.147 120.688 11.0581C120.688 12.0007 120.527 12.8649 120.203 13.6504C119.896 14.4202 119.475 15.0879 118.936 15.6534C118.396 16.2032 117.75 16.6354 116.998 16.9496C116.26 17.2637 115.467 17.4209 114.621 17.4209C113.867 17.4209 113.189 17.3031 112.59 17.0674C111.99 16.8317 111.443 16.5018 110.953 16.0776L110.953 21.9219L108.322 21.9219L108.322 4.95471ZM114.229 14.9229C114.752 14.9229 115.236 14.8365 115.682 14.6637C116.143 14.4908 116.543 14.2395 116.883 13.9097C117.221 13.564 117.482 13.1555 117.666 12.6841C117.865 12.1971 117.967 11.6472 117.967 11.0347C117.967 10.469 117.881 9.95056 117.713 9.47925C117.543 8.99219 117.297 8.58374 116.975 8.25378C116.666 7.9082 116.297 7.64111 115.867 7.45264C115.436 7.26416 114.959 7.1698 114.436 7.1698C113.637 7.1698 112.93 7.36621 112.314 7.75903C111.713 8.15173 111.26 8.62305 110.953 9.17285L110.953 12.8962C111.26 13.5562 111.699 14.0588 112.268 14.4044C112.836 14.7501 113.49 14.9229 114.229 14.9229Z" fill="#4377C9" fill-opacity="1.000000" fill-rule="nonzero"/>
		<path id="Vector" d="M121.994 11.0581C121.994 10.1312 122.148 9.28284 122.455 8.51306C122.764 7.72754 123.201 7.052 123.771 6.48645C124.34 5.9209 125.018 5.48096 125.801 5.16675C126.586 4.83679 127.455 4.67188 128.408 4.67188C129.346 4.67188 130.207 4.83679 130.992 5.16675C131.793 5.48096 132.477 5.9209 133.045 6.48645C133.615 7.052 134.053 7.72754 134.361 8.51306C134.684 9.28284 134.846 10.1312 134.846 11.0581C134.846 11.9851 134.684 12.8413 134.361 13.6268C134.053 14.3966 133.615 15.0643 133.045 15.6299C132.477 16.1954 131.793 16.6354 130.992 16.9496C130.207 17.2637 129.346 17.4209 128.408 17.4209C127.471 17.4209 126.609 17.2637 125.824 16.9496C125.039 16.6354 124.363 16.1954 123.793 15.6299C123.225 15.0643 122.779 14.3966 122.455 13.6268C122.148 12.8413 121.994 11.9851 121.994 11.0581ZM124.717 11.0581C124.717 11.608 124.801 12.1187 124.971 12.59C125.156 13.0612 125.408 13.4696 125.732 13.8153C126.055 14.161 126.439 14.4359 126.887 14.6401C127.348 14.8286 127.855 14.9229 128.408 14.9229C128.963 14.9229 129.461 14.8365 129.908 14.6637C130.369 14.4751 130.762 14.2159 131.084 13.886C131.408 13.5404 131.662 13.132 131.846 12.6606C132.031 12.1893 132.123 11.6552 132.123 11.0581C132.123 10.4611 132.023 9.927 131.822 9.45569C131.639 8.96863 131.377 8.56018 131.039 8.23022C130.699 7.88464 130.309 7.62549 129.861 7.45264C129.416 7.26416 128.932 7.1698 128.408 7.1698C127.885 7.1698 127.393 7.26416 126.932 7.45264C126.484 7.62549 126.094 7.88464 125.756 8.23022C125.432 8.56018 125.178 8.96863 124.994 9.45569C124.809 9.927 124.717 10.4611 124.717 11.0581Z" fill="#4377C9" fill-opacity="1.000000" fill-rule="nonzero"/>
		<path id="Vector" d="M136.479 4.95459L141.6 4.95459C143.277 4.95459 144.539 5.19812 145.385 5.68518C146.23 6.17212 146.654 7.0127 146.654 8.20667C146.654 8.77222 146.531 9.25134 146.283 9.64417C146.039 10.0369 145.715 10.3904 145.314 10.7046C145.885 10.9246 146.307 11.2937 146.584 11.8121C146.861 12.3149 147 12.8961 147 13.556C147 14.7815 146.576 15.7006 145.73 16.3132C144.885 16.9102 143.693 17.2086 142.154 17.2086L136.479 17.2086L136.479 4.95459ZM139.109 12.1421L139.109 14.7815L141.9 14.7815C142.686 14.7815 143.277 14.6793 143.678 14.4751C144.076 14.2709 144.277 13.9409 144.277 13.4854C144.277 12.9983 144.084 12.6527 143.701 12.4485C143.33 12.2441 142.754 12.1421 141.971 12.1421L139.109 12.1421ZM139.109 7.38184L139.109 9.80908L142.201 9.80908C142.738 9.80908 143.162 9.70703 143.469 9.50269C143.777 9.29858 143.932 8.98425 143.932 8.56006C143.932 8.05737 143.723 7.73535 143.309 7.59399C142.908 7.45264 142.316 7.38184 141.531 7.38184L139.109 7.38184Z" fill="#4377C9" fill-opacity="1.000000" fill-rule="nonzero"/>
	</g>
</svg>
