<svg width="24" height="24" viewBox="0 0 24 24" fill="none" xmlns="http://www.w3.org/2000/svg">
<g clip-path="url(#clip0_2440_3322)">
<g clip-path="url(#clip1_2440_3322)">
<path d="M18.581 2.14024L12.316 0.0512408C12.1109 -0.0170803 11.8891 -0.0170803 11.684 0.0512408L5.419 2.14024C4.42291 2.47112 3.55642 3.1075 2.94265 3.95895C2.32887 4.8104 1.99904 5.83363 2 6.88324L2 12.0002C2 19.5632 11.2 23.7402 11.594 23.9142C11.7218 23.971 11.8601 24.0004 12 24.0004C12.1399 24.0004 12.2782 23.971 12.406 23.9142C12.8 23.7402 22 19.5632 22 12.0002V6.88324C22.001 5.83363 21.6711 4.8104 21.0574 3.95895C20.4436 3.1075 19.5771 2.47112 18.581 2.14024ZM20 12.0002C20 17.4552 13.681 21.0332 12 21.8892C10.317 21.0362 4 17.4692 4 12.0002L4 6.88324C4.00006 6.25352 4.19828 5.63978 4.56657 5.12898C4.93486 4.61819 5.45455 4.23623 6.052 4.03724L12 2.05424L17.948 4.03724C18.5455 4.23623 19.0651 4.61819 19.4334 5.12898C19.8017 5.63978 19.9999 6.25352 20 6.88324V12.0002Z" fill="white"/>
<path d="M15.2998 8.30008L11.1118 12.5001L8.86779 10.1601C8.77774 10.0616 8.66889 9.98217 8.54765 9.92642C8.42642 9.87068 8.29526 9.83976 8.16189 9.83549C8.02852 9.83122 7.89565 9.85368 7.7711 9.90155C7.64655 9.94943 7.53284 10.0217 7.43666 10.1142C7.34049 10.2067 7.26381 10.3176 7.21112 10.4402C7.15844 10.5627 7.13083 10.6946 7.12991 10.8281C7.12899 10.9615 7.15478 11.0938 7.20577 11.2171C7.25676 11.3404 7.33191 11.4523 7.42679 11.5461L9.73279 13.9461C9.90477 14.1318 10.1126 14.2808 10.3438 14.3839C10.575 14.487 10.8247 14.5422 11.0778 14.5461H11.1108C11.3588 14.5469 11.6046 14.4984 11.8338 14.4035C12.0629 14.3086 12.271 14.1691 12.4458 13.9931L16.7178 9.72107C16.8111 9.62797 16.8851 9.51739 16.9357 9.39567C16.9863 9.27394 17.0124 9.14345 17.0125 9.01164C17.0127 8.87982 16.9868 8.74927 16.9365 8.62744C16.8862 8.50561 16.8124 8.39488 16.7193 8.30158C16.6262 8.20827 16.5156 8.13422 16.3939 8.08365C16.2722 8.03308 16.1417 8.00698 16.0099 8.00684C15.878 8.0067 15.7475 8.03252 15.6257 8.08284C15.5038 8.13315 15.3931 8.20697 15.2998 8.30008Z" fill="white"/>
</g>
</g>
<defs>
<clipPath id="clip0_2440_3322">
<rect width="24" height="24" fill="white"/>
</clipPath>
<clipPath id="clip1_2440_3322">
<rect width="24" height="24" fill="white"/>
</clipPath>
</defs>
</svg>
